<svg version="1.2" xmlns="http://www.w3.org/2000/svg" viewBox="0 0 386 266" width="386" height="266">
	<style>
		.s0 { fill: #ffffff } 
	</style>
	<path class="s0" d="m8.11 115.8c0 0 15.44-0.77 15.44-15.05 0-18.92-23.55-19.69-23.55-45.17 0-18.91 20.84-23.93 20.84-23.93 0.39 0 0.39 0 0.39 0.39 0 0 0 0.38-0.39 0.38 0 0-14.28 4.25-14.28 21.62 0 18.91 22 23.55 22.78 42.46 0.38 19.3-13.51 21.23-16.6 21.23-3.09 0-4.63-0.77-4.63-0.77-0.39-0.39-0.39-0.77-0.39-0.77 0-0.39 0.39-0.39 0.39-0.39zm327.71 127.77c4.25-4.25 6.18-7.34 7.33-8.88v-0.77c-2.31-6.18-5.01-12.36-8.1-16.99-5.79-4.24-11.58-8.1-17.76-11.19h-0.38c-0.39 0-0.39 0-0.39 0.38v0.39c0.39 0.39 0.77 1.16 1.16 1.93 1.54 1.93 3.47 5.02 5.79 8.88 3.86 6.56 8.1 16.21 11.19 26.25 0.39 0 0.77 0.38 1.16 0-0.39 0.38 0 0 0 0z"/>
	<path class="s0" d="m383.3 159.8c0 0-0.39-0.38-0.39-0.77-0.38-0.38-0.77-1.16-1.54-1.93-1.55-1.54-3.48-4.24-5.41-6.95-4.24-5.79-9.65-13.51-13.89-20.84-6.56-11.19-13.13-25.86-16.21-32.04 6.56-6.56 9.65-11.58 10.03-12.35v-0.39c0-0.38 0-0.38-0.38-0.38l-1.93-2.32c-7.72-10.42-13.13-20.07-15.83-24.7l-1.16-2.32c0-0.38-0.38-0.38-0.77-0.38h-2.7c-12.74 0-48.64-0.78-92.26-5.41-48.63-5.4-88-15.44-95.72-17.75-0.78-1.16-1.55-2.71-2.71-3.86-4.63-0.39-8.87-1.55-11.58-3.09 13.13 13.89 20.46 34.74 20.46 55.2 0 8.1-1.16 16.21-3.86 24.7-3.47 12.35-10.42 22.39-19.3 30.11-4.63 3.86-10.03 7.33-15.82 9.26-6.18-12.74-12.36-23.16-16.6-30.11 2.7-0.38 5.79-0.77 9.65-1.93 7.33-1.93 16.21-5.79 23.54-13.51 5.02-5.01 9.27-11.96 11.97-20.45 1.54-5.02 2.32-9.65 2.32-14.67 0-13.9-6.18-26.25-15.06-35.9-8.88-9.65-20.46-16.6-33.19-20.46-5.79-1.93-12.36-2.7-18.92-2.7-11.96 0-24.7 2.7-35.12 9.26-10.43 6.18-19.3 16.6-21.62 30.11-0.77 4.63-1.16 8.49-1.16 12.35 0 5.41 0.77 10.43 2.7 14.67 1.93 4.25 4.64 7.72 8.5 10.04 2.31 1.16 4.63 1.93 7.33 2.31v0.78c0 0.77 0.39 2.31 0.77 3.86 0.39 2.31 0.77 5.4 0.77 8.1 0 2.32-0.38 5.02-0.38 6.95 0 1.16-0.39 2.32-0.39 2.7h-3.09c-3.47 0-7.33 1.55-7.33 1.55 0 0 10.81 6.56 23.16 18.52 10.81 10.43 14.67 18.53 15.83 20.08 0 0.38 0.38 0.38 0.38 0.38 1.16 0 5.02-0.38 10.04 0 4.63 0.39 8.49 1.55 9.65 1.93 0 0 0.38 0 0.38-0.38 0-1.16 0.39-5.02-0.77-8.11-2.31-6.18-6.95-7.33-8.1-7.33 0 0-0.39 0-0.39 0.38l-0.39 4.25c0 0 0 0.38 0.39 0.38 0.77 0 2.32 0 4.25 1.16 3.08 1.55 2.7 4.63 2.7 4.63 0 0-3.09-1.15-7.72-1.93-4.63-0.77-8.49-0.38-8.49-0.38 0 0-3.48-7.34-10.81-17.37-6.18-8.49-12.35-15.06-13.9-16.6 0-0.39 0.39-1.54 0.77-3.47v-0.78c2.71-1.54 4.64-4.24 4.64-6.94 0-2.71-1.93-5.02-4.64-6.95 0-0.77-0.38-1.55-0.38-2.32-0.39-1.93-0.77-3.47-0.77-4.24q2.31-0.58 4.63-2.32c2.7-1.93 4.63-4.63 6.17-6.95 2.71-5.02 5.02-10.42 8.11-17.37 2.32-5.79 5.4-10.03 8.88-12.35 3.47-2.32 8.49-3.86 13.12-3.86 3.86 0 7.72 0.77 11.58 2.7 5.41 2.32 7.72 5.41 9.65 8.49 1.93 3.09 2.32 6.95 2.32 10.43 0 2.31-0.39 4.24-0.77 5.79-0.39 0.77-0.39 1.54-0.78 2.31-3.47-8.1-11.19-13.89-21.23-13.89-14.28 0-25.09 9.65-25.09 25.47 0 14.28 11.2 23.55 13.51 25.48h0.78c0.38 0 1.15-0.39 1.54-0.39 1.93-0.77 4.25-1.54 5.79-2.7l0.39-0.39v-0.38c-2.32-1.93-11.58-11.58-11.58-21.62 0-12.74 9.26-16.6 15.44-16.6 5.79 0 15.05 4.25 15.05 16.22 0 11.58-11.19 23.16-23.16 27.4-11.97 4.25-24.7 2.32-24.7 2.32-0.39 0-0.39 0-0.39 0.38 0 0 0 0.39 0.39 0.39 0 0 10.42 5.4 28.17 0.77 1.16-0.38 1.93-0.77 3.09-0.77 0 2.7-0.38 8.49 1.16 16.21 1.54 8.88 5.02 16.21 5.79 16.99h0.77l3.09-4.64v-0.77c-0.77-1.93-2.7-8.88-3.09-16.98 0.77 1.16 1.55 2.7 2.7 4.24 3.09 5.41 6.95 12.36 11.2 20.08-1.16 0-2.32 0.38-3.48 0.38 1.55 2.7 2.71 5.41 4.25 8.49 1.16 0 2.32-0.38 3.47-0.38q2.9 5.79 5.79 12.74c11.58 27.4 17.37 49.4 18.15 51.72v0.39l1.15 4.63c0 0.38 0.39 0.77 0.78 0.77h0.38l4.25-1.54c3.47-1.16 6.95-1.93 10.81-1.93 4.63 0 9.26 1.15 13.89 3.08 5.41 2.71 9.65 6.57 12.35 11.97 2.71 5.4 4.25 11.97 4.25 19.3 0 1.93 0 4.25-0.39 6.18 0 0.38 0.39 0.38 0.39 0.38h0.39c5.79-3.09 8.1-5.02 9.26-6.17 0 0 0.39-0.39 0.39-0.78v-0.38c0-8.49-1.55-16.99-5.41-23.93-3.47-6.95-9.26-13.13-16.98-16.6-5.79-2.7-11.97-4.25-18.14-4.25-3.09 0-5.79 0.39-8.88 0.77-2.32-8.49-8.11-26.63-17.37-48.63-1.55-3.86-3.48-7.72-5.02-11.58 6.56-2.7 12.35-6.18 17.37-10.81 10.42-8.88 18.14-21.23 21.62-35.13 2.31-8.87 3.47-18.14 3.47-27.02 0-11.96-2.7-23.93-7.33-34.74 14.28 3.48 47.09 11.2 88.39 15.44 41.3 4.25 75.27 5.41 90.32 5.41 2.71 5.02 6.95 11.96 12.74 20.46-1.54 1.93-3.86 4.63-7.72 8.1l-1.93 1.93c0 0-0.38 0.39-0.38 0.77v0.39l1.15 2.7c0 0 9.27 20.85 18.15 35.9 6.56 11.58 15.82 23.16 20.07 28.95-1.55 1.93-3.09 4.63-5.02 7.72-3.86 6.95-7.72 16.6-7.72 28.18 0 9.26 1.16 18.14 2.32 25.86-4.64-5.4-10.43-10.42-16.99-15.83-29.72-22.77-64.85-33.19-100.74-33.19-13.51 0-25.09 1.93-34.36 4.63-9.26 3.09-16.6 6.95-21.23 11.19-3.09 3.09-5.4 6.18-6.56 10.04-0.39 1.93-0.77 3.86-0.77 5.79 0 5.4 1.54 10.42 3.47 15.44 1.93 5.02 4.25 10.04 5.79 15.83 3.48 11.96 5.02 22.38 5.79 25.47 0 0.39 0.39 0.39 0.39 0.39h0.38q6.37-4.05 8.11-5.79c0 0 0.39-0.39 0.39-0.77-0.78-5.02-2.71-13.13-5.02-21.62-1.93-6.56-4.25-11.97-6.18-16.6-1.93-4.63-3.09-8.49-3.09-11.58 0-1.16 0-2.31 0.39-3.47 0.39-1.16 1.54-3.09 3.47-5.02 2.32-1.93 5.79-4.25 10.04-6.18 8.88-3.86 22-6.94 38.99-6.94 33.96 0 67.16 9.65 94.57 30.88 17.75 13.51 27.02 28.56 31.65 37.44 2.31 4.24 3.09 6.56 3.86 7.72l0.38 0.38h0.39c4.25-4.24 5.79-6.56 6.56-8.1v-0.77c-0.38-1.16-0.77-1.55-1.16-3.09q-1.73-4.05-3.47-9.27c-3.47-10.8-6.95-25.86-6.95-42.07 0-8.88 3.09-16.6 6.18-22.39 3.09-5.79 6.56-9.65 6.56-9.65l3.09-3.09zm-275.99-79.9c0.38-0.77 0.77-1.16 1.16-1.54 1.54-1.93 3.47-5.41 5.01-9.65 0.78-2.32 1.16-5.41 1.16-8.49 0-4.25-0.77-9.65-3.47-14.29-2.7-4.24-6.56-8.87-13.13-11.96q-7.52-3.48-15.05-3.48c-6.18 0-12.74 1.93-17.76 5.41-5.01 3.47-8.87 9.26-11.58 16.21-2.7 6.95-5.01 11.97-7.33 16.21-1.16 1.93-2.32 3.48-3.86 4.63-1.16 1.16-3.09 1.55-5.02 1.55-1.54 0-3.09-0.39-4.24-1.16-1.93-1.16-3.86-3.09-5.02-6.18-1.16-3.08-1.93-6.56-1.93-11.58 0-3.08 0.38-6.94 1.16-10.8 1.93-11.2 8.87-19.3 18.14-24.71 8.88-5.4 20.07-8.1 30.88-8.1 5.79 0 11.58 0.77 16.6 2.31 11.19 3.09 21.61 9.65 29.33 18.14 7.72 8.5 12.74 18.92 12.74 30.5 0 3.86-0.39 8.1-1.93 11.96-2.32 7.34-5.79 13.13-10.04 17.37-6.17 6.18-13.51 9.65-19.68 11.58-5.02 1.55-9.65 1.93-11.58 1.93 9.26-6.56 15.44-15.82 15.44-25.86zm-60.6 15.83c-0.39 4.63-5.41 5.02-6.18 5.02 0-0.78 0-1.55 0.39-2.32 1.15 0 3.47-0.39 3.47-3.09 0-2.7-2.7-3.86-3.86-4.24 0-0.78-0.39-1.55-0.39-2.32 0.78 0 6.95 1.54 6.57 6.95z"/>
</svg>