<?xml version="1.0" encoding="UTF-8"?>
<svg id="Calque_2" data-name="Calque 2" xmlns="http://www.w3.org/2000/svg" viewBox="0 0 546.08 699.83">
  <defs>
    <style>
      .cls-1 {
        fill: #d40016;
      }

      .cls-2 {
        fill: #ffd330;
      }

      .cls-3 {
        fill: #00ba3d;
      }

      .cls-4 {
        fill: #fff;
      }

      .cls-5 {
        fill: #bcbcbc;
      }

      .cls-6 {
        fill: #c3c8cc;
      }

      .cls-7 {
        fill: #003ca6;
      }

      .cls-8 {
        fill: #9198a1;
      }
    </style>
  </defs>
  <g id="Layer_1" data-name="Layer 1">
    <g>
      <path class="cls-4" d="M269.68,699.83c-1.98,0-3.97-.49-5.76-1.47l-4.32-2.36c-71.87-39.36-130-87.98-172.79-144.51-34.42-45.47-59.02-96.11-73.12-150.49C-10.92,306.07,5.13,233.12,5.29,232.4l1.58-7c1.23-5.42,6.01-9.29,11.57-9.35l7.19-.08c1.97-.02,3.93-.06,5.92-.11v-22.08l-7.9-13.41c-1.09-1.85-1.66-3.95-1.66-6.09v-12.51c-.77-.82-1.43-1.75-1.95-2.79-2.04-4.04-1.64-8.89,1.05-12.53l14.01-19.01c2.26-3.07,5.85-4.88,9.66-4.88h0c3.81,0,7.4,1.81,9.66,4.88l14,19.01c2.07,2.8,2.78,6.32,2.07,9.63l33.68-11.47v-9.39c-5.03-8.52-19.62-33.27-19.62-33.27-1.09-1.85-1.66-3.95-1.66-6.09v-63.7c0-3.08,1.18-6.03,3.3-8.26l12.49-13.16c2.27-2.39,5.41-3.74,8.7-3.74h.01c3.29,0,6.44,1.36,8.71,3.76l7.36,7.79,4.74-11.21C130.06,2.94,134.33.07,139.09,0c.05,0,.11,0,.17,0,4.7,0,8.97,2.75,10.92,7.03l5.7,12.54,8.84-13.27c2.16-3.25,5.76-5.24,9.66-5.35.11,0,.22,0,.33,0,3.78,0,7.34,1.78,9.61,4.82l11.07,14.83,9.56-14.36c2.21-3.32,5.93-5.33,9.92-5.35h.07c3.96,0,7.68,1.96,9.91,5.24l3.37,4.94c1.22-4.02,4.5-7.21,8.75-8.2l2.12-.5c.91-.21,1.83-.32,2.73-.32,4.46,0,8.65,2.49,10.72,6.61l2.99,5.94,5.47-8.34c2.22-3.38,5.99-5.41,10.03-5.41h0c4.04,0,7.81,2.04,10.03,5.42l5.47,8.33,2.99-5.94c2.07-4.12,6.26-6.61,10.72-6.61.91,0,1.82.1,2.73.32l2.12.5c4.26.99,7.54,4.18,8.75,8.2l3.37-4.93c2.24-3.28,5.95-5.24,9.91-5.24h.07c3.99.02,7.71,2.03,9.92,5.35l9.56,14.36,11.07-14.82c2.27-3.04,5.84-4.82,9.61-4.82.11,0,.22,0,.32,0,3.9.1,7.5,2.1,9.66,5.34l8.84,13.27,5.7-12.54c1.95-4.29,6.22-7.04,10.92-7.04.05,0,.11,0,.16,0,4.76.06,9.04,2.94,10.89,7.33l4.43,10.49,7.19-9.05c2.28-2.87,5.74-4.54,9.4-4.54.08,0,.15,0,.22,0,3.74.07,7.23,1.88,9.45,4.89l12.3,16.74c1.51,2.06,2.33,4.55,2.33,7.11v62.88c0,2.14-.57,4.25-1.66,6.09,0,0-14.59,24.75-19.62,33.27v9.39l33.68,11.47c-.71-3.31,0-6.83,2.07-9.63l14-19.01c2.26-3.07,5.85-4.89,9.66-4.89h0c3.81,0,7.4,1.81,9.66,4.88l14.01,19.01c2.69,3.64,3.09,8.49,1.05,12.53-.52,1.03-1.18,1.97-1.95,2.79v12.51c0,2.14-.57,4.25-1.66,6.09l-7.9,13.41v21.97c3.29.11,6.56.18,9.81.22l7.14.07c5.53.06,10.31,3.89,11.56,9.27l1.62,6.96c.17.74,16.61,73.81-8.7,168.84-14.49,54.43-39.76,105.09-75.09,150.57-43.91,56.52-103.53,105.11-177.22,144.41l-4.34,2.31c-1.76.94-3.71,1.41-5.65,1.41Z"/>
      <g>
        <g>
          <g>
            <g>
              <g>
                <g>
                  <polygon class="cls-8" points="124.88 151.03 44.31 178.47 44.31 245.15 124.87 216.89 124.88 151.03"/>
                  <polygon points="124.63 150.32 43.55 177.94 43.55 246.21 125.63 217.42 125.63 149.98 124.63 150.32"/>
                  <path class="cls-6" d="M124.12,165.88l-79.06,26.99v12.1l79.06-26.99v-12.1Z"/>
                  <path class="cls-6" d="M124.12,152.08c-1.94.66-78.06,26.59-79.06,26.93v12.27l79.06-26.99c0-6.81,0-11.67,0-12.21Z"/>
                  <path class="cls-6" d="M124.12,179.56l-79.06,26.99v12.48l79.06-26.99v-12.48Z"/>
                  <path class="cls-6" d="M124.12,193.62l-79.06,26.99v12.19l79.06-26.99c0-3.54,0-7.73,0-12.19Z"/>
                  <path class="cls-6" d="M45.06,234.39v9.7c1.95-.69,78.07-27.38,79.06-27.73v-8.96l-79.06,26.99Z"/>
                  <path d="M124.12,192.04l-79.06,26.99v1.59l79.06-26.99v-1.59Z"/>
                  <path d="M124.12,177.97l-79.06,26.99v1.59l79.06-26.99v-1.59Z"/>
                  <path d="M124.12,164.29l-79.06,26.99v1.59l79.06-26.99v-1.59Z"/>
                  <path d="M124.12,205.82l-79.06,26.99v1.59l79.06-26.99v-1.59Z"/>
                  <rect x="56.95" y="230.08" width="1.01" height="10"/>
                  <rect x="82.5" y="220.74" width="1.01" height="10"/>
                  <rect x="106.37" y="212.74" width="1.01" height="10"/>
                  <rect x="115.44" y="195.74" width="1.01" height="13"/>
                  <rect x="93.59" y="203.41" width="1.01" height="13"/>
                  <rect x="70.06" y="211.41" width="1.01" height="13"/>
                  <rect x="48.21" y="218.74" width="1.01" height="13"/>
                  <rect x="56.28" y="202.08" width="1.01" height="13"/>
                  <rect x="79.81" y="194.08" width="1.01" height="13"/>
                  <rect x="103.68" y="186.41" width="1.01" height="13"/>
                  <rect x="118.13" y="167.08" width="1.01" height="13"/>
                  <rect x="92.92" y="176.08" width="1.01" height="13"/>
                  <rect x="67.04" y="184.74" width="1.01" height="13"/>
                  <rect x="51.24" y="176.41" width="1.01" height="13"/>
                  <rect x="78.47" y="167.08" width="1.01" height="13"/>
                  <rect x="101.66" y="159.41" width="1.01" height="13"/>
                  <g>
                    <polygon class="cls-8" points="44.75 191.07 54.77 174.08 54.77 152.82 57.27 152.82 44.75 135.82 32.23 152.82 34.74 152.82 34.74 174.08 44.75 191.07"/>
                    <path d="M44.15,135.38l-13.4,18.19h3.24v20.71l10.77,18.27,10.77-18.27v-20.71h3.24l-14-19.01-.6.82ZM44.75,137.09c1.01,1.38,9.59,13.02,11.04,14.98h-1.77v21.8c-.19.32-8.15,13.83-9.27,15.73-1.12-1.9-9.08-15.4-9.27-15.73v-21.8h-1.77c1.44-1.96,10.02-13.61,11.04-14.98Z"/>
                    <rect x="39" y="153.06" width="11.51" height="12.29"/>
                  </g>
                </g>
                <g>
                  <polygon class="cls-8" points="417.2 151.03 497.78 178.47 497.78 245.15 417.21 216.89 417.2 151.03"/>
                  <polygon points="416.45 149.98 416.45 217.42 498.53 246.21 498.53 177.94 417.45 150.32 416.45 149.98"/>
                  <path class="cls-6" d="M417.96,165.88l79.06,26.99v12.1l-79.06-26.99v-12.1Z"/>
                  <path class="cls-6" d="M417.96,152.08c1.94.66,78.06,26.59,79.06,26.93v12.27l-79.06-26.99v-12.21Z"/>
                  <path class="cls-6" d="M417.96,179.56l79.06,26.99v12.48l-79.06-26.99v-12.48Z"/>
                  <path class="cls-6" d="M417.96,193.62l79.06,26.99v12.19l-79.06-26.99v-12.19Z"/>
                  <path class="cls-6" d="M497.02,234.39v9.7c-1.96-.69-78.07-27.38-79.06-27.73v-8.96l79.06,26.99Z"/>
                  <path d="M417.96,192.04l79.06,26.99v1.59l-79.06-26.99v-1.59Z"/>
                  <path d="M417.96,177.97l79.06,26.99v1.59l-79.06-26.99c0-.53,0-1.06,0-1.59Z"/>
                  <path d="M417.96,164.29l79.06,26.99v1.59l-79.06-26.99v-1.59Z"/>
                  <path d="M417.96,205.82l79.06,26.99v1.59l-79.06-26.99v-1.59Z"/>
                  <rect x="484.12" y="230.08" width="1.01" height="10"/>
                  <rect x="458.57" y="220.74" width="1.01" height="10"/>
                  <rect x="434.71" y="212.74" width="1.01" height="10"/>
                  <rect x="425.63" y="195.74" width="1.01" height="13"/>
                  <rect x="447.48" y="203.41" width="1.01" height="13"/>
                  <rect x="471.01" y="211.41" width="1.01" height="13"/>
                  <rect x="492.86" y="218.74" width="1.01" height="13"/>
                  <rect x="484.79" y="202.08" width="1.01" height="13"/>
                  <rect x="461.26" y="194.08" width="1.01" height="13"/>
                  <rect x="437.4" y="186.41" width="1.01" height="13"/>
                  <rect x="422.94" y="167.08" width="1.01" height="13"/>
                  <rect x="448.15" y="176.08" width="1.01" height="13"/>
                  <rect x="474.04" y="184.74" width="1.01" height="13"/>
                  <rect x="489.84" y="176.41" width="1.01" height="13"/>
                  <rect x="462.61" y="167.08" width="1.01" height="13"/>
                  <rect x="439.41" y="159.41" width="1.01" height="13"/>
                  <g>
                    <polygon class="cls-8" points="497.33 191.07 487.32 174.08 487.32 152.82 484.81 152.82 497.33 135.82 509.85 152.82 507.35 152.82 507.35 174.08 497.33 191.07"/>
                    <path d="M496.73,135.38l-13.4,18.19h3.24v20.71l10.76,18.27,10.77-18.27v-20.71h3.24l-14.01-19.01-.6.82ZM497.33,137.09c1.01,1.38,9.59,13.02,11.04,14.98h-1.77v21.8c-.19.32-8.15,13.83-9.27,15.73-1.12-1.9-9.07-15.4-9.26-15.73v-21.8h-1.77c1.44-1.96,10.02-13.61,11.04-14.98Z"/>
                    <rect x="491.57" y="153.06" width="11.51" height="12.29"/>
                  </g>
                </g>
              </g>
              <g>
                <g>
                  <path class="cls-8" d="M402.32,14.93l-8.31,18.3v15.99h-14.07v-16.03l-12.6-18.92-14.12,18.91v16.05h-13.48v-16.03l-12.61-18.95-12.92,18.95v16.03h-12.59V15.14l-.96-.22-9.21,18.3v16h-8.16v-16.33l-12.25-18.66-12.26,18.66v16.33h-8.16v-16l-9.21-18.3-.96.22v34.08h-12.59v-16.03l-12.93-18.95-12.61,18.95v16.03h-13.48v-16.05l-14.12-18.91-12.6,18.92v16.03h-14.07v-15.99l-8.79-19.35-8.17,19.35v15.98h-11.4v-16.08l-12.33-13.04-11.73,12.36v63.2s21.14,35.86,21.28,36.09v87.72h308.24v-87.72c.14-.23,21.28-36.09,21.28-36.09v-62.46l-11.57-15.57-12.49,15.56v16.03h-11.4v-15.98l-8.18-19.35-.48,1.05Z"/>
                  <path d="M138.59,13.59l-8.23,19.49v15.38h-9.89v-15.62l-13.08-13.84-12.49,13.16v63.7s21.07,35.75,21.28,36.09v88.27h309.75v-88.27c.21-.35,21.28-36.09,21.28-36.09v-62.88l-12.3-16.74-13.27,16.71v15.51h-9.89v-15.38l-8.91-21.08-9.57,21.06v15.4h-12.55v-15.51l-13.32-20-14.91,19.97v15.54h-11.96v-15.51l-13.36-20.07-13.69,20.06v15.51h-11.08V14.54l-2.12-.5-9.56,18.99v15.43h-6.64v-15.8l-13.01-19.82-13.01,19.82v15.8h-6.65v-15.43l-9.55-18.99-2.12.5v33.92h-11.07v-15.51l-13.69-20.06-13.36,20.07v15.51h-11.96v-15.54l-14.91-19.97-13.32,20v15.51h-12.55v-15.4l-9.58-21.07-.67,1.59Z"/>
                  <path class="cls-6" d="M113.73,124.84h314.63c1.76-2.98,3.92-6.65,6.12-10.38H107.61c2.2,3.73,4.36,7.4,6.12,10.38Z"/>
                  <path class="cls-6" d="M117.68,131.54v5.17h306.72v-5.17s1.22-2.07,3.07-5.21H114.61c1.85,3.14,3.07,5.21,3.07,5.21Z"/>
                  <path class="cls-6" d="M106.72,112.96h328.64c2.18-3.7,4.34-7.36,6.12-10.38H100.6c1.78,3.02,3.94,6.68,6.12,10.38Z"/>
                  <path class="cls-6" d="M96.4,89.2h349.28v-10.38H96.4v10.38Z"/>
                  <path class="cls-6" d="M96.4,95.45c.05.09,1.37,2.32,3.32,5.63h342.65c1.95-3.31,3.27-5.54,3.32-5.63v-4.75H96.4v4.75Z"/>
                  <path class="cls-6" d="M117.68,148.6h306.72v-10.38H117.68v10.38Z"/>
                  <path class="cls-6" d="M117.68,196.11h306.72v-10.38H117.68v10.38Z"/>
                  <path class="cls-6" d="M96.4,77.32h349.28v-10.38H96.4v10.38Z"/>
                  <path class="cls-6" d="M117.68,207.99h306.72v-10.38H117.68v10.38Z"/>
                  <path class="cls-6" d="M117.68,160.47h306.72v-10.38H117.68v10.38Z"/>
                  <path class="cls-6" d="M117.68,218.72h306.72v-9.23H117.68v9.23Z"/>
                  <path class="cls-6" d="M117.68,184.23h306.72v-10.38H117.68v10.38Z"/>
                  <path class="cls-6" d="M117.68,172.35h306.72v-10.38H117.68v10.38Z"/>
                  <path class="cls-6" d="M96.4,65.44h349.28v-10.38H96.4v10.38Z"/>
                  <path class="cls-5" d="M445.68,33.41c-.21-.34-9.74-12.66-10.84-14.41-1.16,1.71-11.47,14.06-11.71,14.41v16.55h-12.92v-16.58c-.11-.25-6.32-14.96-7.44-17.62-.45.98-7.88,17.34-8.01,17.63v16.58h-15.58v-16.56c-.23-.35-10.81-16.23-11.88-17.84-1.16,1.55-13.05,17.47-13.33,17.85v16.55h-14.99v-16.56c-.23-.35-10.75-16.15-11.87-17.82-1.13,1.66-11.92,17.47-12.16,17.83v16.55h-14.1V16.2c-.85,1.69-8.51,16.9-8.65,17.2v16.57h-9.67v-16.86c-.23-.35-10.37-15.79-11.49-17.51-1.13,1.72-11.27,17.17-11.5,17.51v16.86h-9.67v-16.57c-.15-.29-7.8-15.5-8.65-17.2v33.77h-14.1v-16.55c-.24-.35-11.03-16.16-12.16-17.83-1.11,1.67-11.63,17.47-11.86,17.82v16.56h-14.99v-16.55c-.28-.37-12.17-16.29-13.33-17.85-1.07,1.61-11.64,17.49-11.87,17.84v16.56h-15.58v-16.58c-.12-.27-6.82-14.99-8.01-17.62-1.12,2.66-7.34,17.37-7.44,17.62v16.58h-12.92v-16.53c-.38-.4-10.58-11.2-11.57-12.24-.98,1.04-10.6,11.16-10.98,11.56v20.81h349.28v-20.16Z"/>
                  <path d="M117.68,208.74h306.72v-.75H117.68v.75Z"/>
                  <path d="M117.68,208.74v.75h306.72v-.75H117.68Z"/>
                  <path d="M117.68,196.86v.75h306.72v-.75H117.68Z"/>
                  <path d="M117.68,196.86h306.72v-.75H117.68v.75Z"/>
                  <path d="M117.68,184.98v.75h306.72v-.75H117.68Z"/>
                  <path d="M117.68,184.98h306.72v-.75H117.68v.75Z"/>
                  <path d="M117.68,173.1h306.72v-.75H117.68v.75Z"/>
                  <path d="M117.68,173.1v.75h306.72v-.75H117.68Z"/>
                  <path d="M117.68,161.22v.75h306.72v-.75H117.68Z"/>
                  <path d="M117.68,161.22h306.72v-.75H117.68v.75Z"/>
                  <path d="M117.68,149.35h306.72v-.75H117.68v.75Z"/>
                  <path d="M117.68,149.35v.75h306.72v-.75H117.68Z"/>
                  <path d="M117.68,137.47v.75h306.72v-.75H117.68Z"/>
                  <path d="M117.68,137.47h306.72v-.75H117.68v.75Z"/>
                  <path d="M114.17,125.59c.15.26.3.51.44.75h312.86c.14-.24.29-.49.44-.75H114.17Z"/>
                  <path d="M114.17,125.59h313.75c.14-.25.29-.49.44-.75H113.73c.15.26.3.5.44.75Z"/>
                  <path d="M107.16,113.71c.15.25.3.5.44.75h326.87c.15-.25.29-.5.44-.75H107.16Z"/>
                  <path d="M107.16,113.71h327.76c.15-.25.29-.5.44-.75H106.72c.15.25.29.5.44.75Z"/>
                  <path d="M100.16,101.83h341.76c.15-.25.3-.51.44-.75H99.72c.14.24.29.5.44.75Z"/>
                  <path d="M100.16,101.83c.15.25.29.49.44.75h340.88c.15-.26.29-.5.44-.75H100.16Z"/>
                  <path d="M96.4,89.95h349.28v-.75H96.4v.75Z"/>
                  <path d="M96.4,89.95v.75h349.28v-.75H96.4Z"/>
                  <path d="M96.4,78.07v.75h349.28v-.75H96.4Z"/>
                  <path d="M96.4,78.07h349.28v-.75H96.4v.75Z"/>
                  <path d="M96.4,66.19h349.28v-.75H96.4v.75Z"/>
                  <path d="M96.4,66.19v.75h349.28v-.75H96.4Z"/>
                  <path d="M96.4,54.31v.75h349.28v-.75H96.4Z"/>
                  <path d="M445.68,54.31v-.75H96.4v.75h349.28Z"/>
                </g>
                <polygon points="107.49 101.41 126.32 101.41 138.55 125 131.97 125 107.49 101.41"/>
                <polygon points="434.9 101.41 416.08 101.41 403.85 124.99 410.48 124.96 434.9 101.41"/>
                <rect x="141.7" y="208.08" width="1.51" height="11.33"/>
                <rect x="124.55" y="196.58" width="1.51" height="11.33"/>
                <rect x="160.86" y="197.58" width="1.51" height="11.33"/>
                <rect x="202.2" y="197.08" width="1.51" height="11.33"/>
                <rect x="241.03" y="196.58" width="1.51" height="11.33"/>
                <rect x="273.8" y="196.58" width="1.51" height="11.33"/>
                <rect x="311.62" y="197.58" width="1.51" height="11.33"/>
                <rect x="345.4" y="197.08" width="1.51" height="11.33"/>
                <rect x="381.2" y="197.08" width="1.51" height="11.33"/>
                <rect x="415.99" y="197.08" width="1.51" height="11.33"/>
                <rect x="124.55" y="172.08" width="1.51" height="11.33"/>
                <rect x="160.86" y="173.08" width="1.51" height="11.33"/>
                <rect x="202.2" y="172.58" width="1.51" height="11.33"/>
                <rect x="241.03" y="172.08" width="1.51" height="11.33"/>
                <rect x="273.8" y="172.08" width="1.51" height="11.33"/>
                <rect x="311.62" y="173.08" width="1.51" height="11.33"/>
                <rect x="345.4" y="172.58" width="1.51" height="11.33"/>
                <rect x="381.2" y="172.58" width="1.51" height="11.33"/>
                <rect x="415.99" y="172.58" width="1.51" height="11.33"/>
                <rect x="124.05" y="149.08" width="1.51" height="11.33"/>
                <rect x="160.35" y="150.08" width="1.51" height="11.33"/>
                <rect x="201.7" y="149.58" width="1.51" height="11.33"/>
                <rect x="240.53" y="149.08" width="1.51" height="11.33"/>
                <rect x="273.3" y="149.08" width="1.51" height="11.33"/>
                <rect x="311.12" y="150.08" width="1.51" height="11.33"/>
                <rect x="344.9" y="149.58" width="1.51" height="11.33"/>
                <rect x="380.7" y="149.58" width="1.51" height="11.33"/>
                <rect x="415.49" y="149.58" width="1.51" height="11.33"/>
                <rect x="123.04" y="125.08" width="1.51" height="11.33"/>
                <rect x="159.34" y="126.08" width="1.51" height="11.33"/>
                <rect x="200.69" y="125.58" width="1.51" height="11.33"/>
                <rect x="239.52" y="125.08" width="1.51" height="11.33"/>
                <rect x="272.29" y="125.08" width="1.51" height="11.33"/>
                <rect x="310.11" y="126.08" width="1.51" height="11.33"/>
                <rect x="343.89" y="125.58" width="1.51" height="11.33"/>
                <rect x="379.69" y="125.58" width="1.51" height="11.33"/>
                <rect x="414.48" y="125.58" width="1.51" height="11.33"/>
                <rect x="121.02" y="101.58" width="1.51" height="11.33"/>
                <rect x="157.33" y="102.58" width="1.51" height="11.33"/>
                <rect x="198.67" y="102.08" width="1.51" height="11.33"/>
                <rect x="237.5" y="101.58" width="1.51" height="11.33"/>
                <rect x="270.27" y="101.58" width="1.51" height="11.33"/>
                <rect x="308.09" y="102.58" width="1.51" height="11.33"/>
                <rect x="341.87" y="102.08" width="1.51" height="11.33"/>
                <rect x="377.67" y="102.08" width="1.51" height="11.33"/>
                <rect x="412.46" y="102.08" width="1.51" height="11.33"/>
                <rect x="121.02" y="77.58" width="1.51" height="11.33"/>
                <rect x="157.33" y="78.58" width="1.51" height="11.33"/>
                <rect x="198.67" y="78.08" width="1.51" height="11.33"/>
                <rect x="237.5" y="77.58" width="1.51" height="11.33"/>
                <rect x="270.27" y="77.58" width="1.51" height="11.33"/>
                <rect x="308.09" y="78.58" width="1.51" height="11.33"/>
                <rect x="341.87" y="78.08" width="1.51" height="11.33"/>
                <rect x="377.67" y="78.08" width="1.51" height="11.33"/>
                <rect x="412.46" y="78.08" width="1.51" height="11.33"/>
                <rect x="438.69" y="78.58" width="1.51" height="11.33"/>
                <rect x="438.18" y="55.58" width="1.51" height="11.33"/>
                <rect x="121.02" y="54.08" width="1.51" height="11.33"/>
                <rect x="157.33" y="55.08" width="1.51" height="11.33"/>
                <rect x="198.67" y="54.58" width="1.51" height="11.33"/>
                <rect x="237.5" y="54.08" width="1.51" height="11.33"/>
                <rect x="270.27" y="54.08" width="1.51" height="11.33"/>
                <rect x="308.09" y="55.08" width="1.51" height="11.33"/>
                <rect x="341.87" y="54.58" width="1.51" height="11.33"/>
                <rect x="377.67" y="54.58" width="1.51" height="11.33"/>
                <rect x="412.46" y="54.58" width="1.51" height="11.33"/>
                <rect x="182.71" y="208.08" width="1.51" height="11.33"/>
                <rect x="223.04" y="207.91" width="1.51" height="10.83"/>
                <rect x="257.84" y="208.41" width="1.51" height="10.83"/>
                <rect x="292.12" y="208.41" width="1.51" height="10.83"/>
                <rect x="329.44" y="208.41" width="1.51" height="10.83"/>
                <rect x="364.73" y="208.41" width="1.51" height="10.83"/>
                <rect x="398.01" y="208.41" width="1.51" height="10.83"/>
                <rect x="139.18" y="184.11" width="1.51" height="13.3"/>
                <rect x="180.19" y="184.11" width="1.51" height="13.3"/>
                <rect x="220.52" y="183.91" width="1.51" height="12.72"/>
                <rect x="255.31" y="184.5" width="1.51" height="12.72"/>
                <rect x="289.6" y="184.5" width="1.51" height="12.72"/>
                <rect x="326.91" y="184.5" width="1.51" height="12.72"/>
                <rect x="362.21" y="184.5" width="1.51" height="12.72"/>
                <rect x="395.49" y="184.5" width="1.51" height="12.72"/>
                <rect x="138.67" y="160.58" width="1.51" height="11.33"/>
                <rect x="179.68" y="160.58" width="1.51" height="11.33"/>
                <rect x="220.02" y="160.41" width="1.51" height="10.83"/>
                <rect x="254.81" y="160.91" width="1.51" height="10.83"/>
                <rect x="289.1" y="160.91" width="1.51" height="10.83"/>
                <rect x="326.41" y="160.91" width="1.51" height="10.83"/>
                <rect x="361.7" y="160.91" width="1.51" height="10.83"/>
                <rect x="394.98" y="160.91" width="1.51" height="10.83"/>
                <rect x="138.17" y="137.58" width="1.51" height="11.33"/>
                <rect x="179.18" y="137.58" width="1.51" height="11.33"/>
                <rect x="219.52" y="137.41" width="1.51" height="10.83"/>
                <rect x="254.31" y="137.91" width="1.51" height="10.83"/>
                <rect x="288.59" y="137.91" width="1.51" height="10.83"/>
                <rect x="325.91" y="137.91" width="1.51" height="10.83"/>
                <rect x="361.2" y="137.91" width="1.51" height="10.83"/>
                <rect x="394.48" y="137.91" width="1.51" height="10.83"/>
                <rect x="137.66" y="114.08" width="1.51" height="11.33"/>
                <rect x="112.95" y="114.08" width="1.51" height="11.33"/>
                <rect x="178.67" y="114.08" width="1.51" height="11.33"/>
                <rect x="219.01" y="113.91" width="1.51" height="10.83"/>
                <rect x="253.8" y="114.41" width="1.51" height="10.83"/>
                <rect x="288.09" y="114.41" width="1.51" height="10.83"/>
                <rect x="325.4" y="114.41" width="1.51" height="10.83"/>
                <rect x="360.7" y="114.41" width="1.51" height="10.83"/>
                <rect x="393.98" y="114.41" width="1.51" height="10.83"/>
                <rect x="426.75" y="114.91" width="1.51" height="10.83"/>
                <rect x="137.16" y="91.08" width="1.51" height="11.33"/>
                <rect x="103.37" y="90.58" width="1.51" height="11.33"/>
                <rect x="102.87" y="67.58" width="1.51" height="11.33"/>
                <rect x="178.17" y="91.08" width="1.51" height="11.33"/>
                <rect x="218.51" y="90.91" width="1.51" height="10.83"/>
                <rect x="253.3" y="89.91" width="1.51" height="12.33"/>
                <rect x="287.59" y="88.91" width="1.51" height="13.33"/>
                <rect x="324.9" y="91.41" width="1.51" height="10.83"/>
                <rect x="360.19" y="91.41" width="1.51" height="10.83"/>
                <rect x="393.47" y="91.41" width="1.51" height="10.83"/>
                <rect x="428.26" y="89.41" width="1.51" height="10.83"/>
                <rect x="136.65" y="66.08" width="1.51" height="11.33"/>
                <rect x="177.66" y="66.08" width="1.51" height="11.33"/>
                <rect x="218" y="65.91" width="1.51" height="10.83"/>
                <rect x="252.79" y="66.41" width="1.51" height="10.83"/>
                <rect x="287.08" y="66.41" width="1.51" height="10.83"/>
                <rect x="324.39" y="66.41" width="1.51" height="10.83"/>
                <rect x="359.69" y="66.41" width="1.51" height="10.83"/>
                <rect x="392.97" y="66.41" width="1.51" height="10.83"/>
                <g>
                  <rect x="243.3" y="61.74" width="55.1" height="19.02"/>
                  <g>
                    <g>
                      <rect class="cls-8" x="243.24" y="61.74" width="8.57" height="36.5"/>
                      <path d="M251.82,61.24h-9.08v37.5h9.58v-37.5h-.5ZM251.31,62.24v35.5h-7.56v-35.5h7.56Z"/>
                      <g>
                        <rect x="243.5" y="86.74" width="8.07" height="1"/>
                        <rect x="243.5" y="72.24" width="8.07" height="1"/>
                      </g>
                    </g>
                    <g>
                      <rect class="cls-8" x="266.57" y="61.74" width="8.57" height="36.5"/>
                      <path d="M275.14,61.24h-9.08v37.5h9.58v-37.5h-.5ZM274.63,62.24v35.5h-7.56v-35.5h7.56Z"/>
                      <g>
                        <rect x="266.82" y="86.74" width="8.07" height="1"/>
                        <rect x="266.82" y="72.24" width="8.07" height="1"/>
                      </g>
                    </g>
                    <g>
                      <rect class="cls-8" x="289.89" y="61.74" width="8.57" height="36.5"/>
                      <path d="M298.46,61.24h-9.08v37.5h9.58v-37.5h-.5ZM297.95,62.24v35.5h-7.56v-35.5h7.56Z"/>
                      <g>
                        <rect x="290.14" y="86.74" width="8.07" height="1"/>
                        <rect x="290.14" y="72.24" width="8.07" height="1"/>
                      </g>
                    </g>
                  </g>
                </g>
                <rect x="142.87" y="54.41" width="1.51" height="72"/>
                <rect x="397.51" y="53.41" width="1.51" height="72"/>
              </g>
            </g>
            <path d="M268.22,123.98l-5.73,7.48c-.72.95-74.32,94.76-236.73,96.51l-7.19.08-1.59,7.01c-.63,2.79-59.99,281.54,248.37,450.41l4.32,2.36,4.34-2.31c316.36-168.73,255.63-447.71,254.98-450.51l-1.62-6.96-7.15-.07c-166.68-1.74-242.58-95.66-243.32-96.6l-7.25-9.25-1.43,1.87Z"/>
            <path class="cls-2" d="M269.69,128.06c1.63,2.08,4.35,5.55,4.35,5.55.76.96,77.7,96.23,246.15,98,0,0,2.68.03,4.29.04.36,1.56.97,4.18.97,4.18.18.78,5.02,22.95,5.02,58.17,0,90.66-32.05,267.71-258.16,388.31,0,0-1.63.87-2.61,1.39-.97-.53-2.59-1.42-2.59-1.42C46.9,561.68,15.62,384.89,15.62,294.21c0-35.32,4.75-57.57,4.92-58.35,0,0,.6-2.63.95-4.21,1.62-.02,4.32-.04,4.32-.04,164.4-1.77,238.85-96.98,239.58-97.94h0s2.68-3.5,4.29-5.6Z"/>
            <path d="M268.44,146.89c-19.37,21.48-93.66,91.85-236.51,95.36l-1.51.04-.24,1.49c-1.37,8.4-3.66,26.11-3.66,50.27,0,90.33,31.49,259.38,242.37,376.6l.87.48.88-.48c216.59-117.23,248.94-286.28,248.94-376.62,0-24.17-2.36-41.86-3.77-50.26l-.25-1.48-1.5-.04c-146.77-3.45-223.04-73.88-242.93-95.38l-1.35-1.46-1.33,1.48Z"/>
            <path class="cls-7" d="M124.6,449h358.75c26.18-59.54,32.58-115.02,32.58-154.97,0-22.82-2.1-39.52-3.5-48.22-144.36-3.87-220.82-71.98-242.62-95.06-21.26,23.08-95.75,91.1-236.24,95.05-1.36,8.71-3.41,25.43-3.41,48.24,0,39.95,6.23,95.42,31.71,154.95h62.73Z"/>
            <path d="M485.29,450.29h.65v-1.29h-2.59c-.19.43-.38.86-.57,1.29h2.51Z"/>
            <polygon points="199.23 491.6 234.08 491.6 234.72 491.6 234.72 490.31 219.87 490.31 219.23 490.31 219.23 490.88 219.23 490.31 218.58 490.31 198.59 490.31 198.59 491.6 199.23 491.6"/>
            <path d="M435.1,511.25H95.43s.06.09.09.14h353.24s.06-.09.1-.14h-13.77Z"/>
            <path d="M414.31,450.29h35.49v-1.29h-36.13v1.29h.65Z"/>
            <path d="M378.18,450.29h35.49v-1.29h-36.13v1.29h.65Z"/>
            <polygon points="163.1 491.6 197.94 491.6 198.59 491.6 198.59 490.31 183.74 490.31 183.1 490.31 183.1 490.88 183.1 490.31 182.45 490.31 162.45 490.31 162.45 491.6 163.1 491.6"/>
            <polygon points="307.63 491.6 342.48 491.6 343.12 491.6 343.12 490.31 328.27 490.31 327.63 490.31 327.63 490.88 327.63 490.31 326.98 490.31 306.99 490.31 306.99 491.6 307.63 491.6"/>
            <polygon points="235.37 491.6 270.21 491.6 270.85 491.6 270.85 490.31 256.01 490.31 255.36 490.31 255.36 490.88 255.36 490.31 254.72 490.31 234.72 490.31 234.72 491.6 235.37 491.6"/>
            <polygon points="343.77 491.6 378.61 491.6 379.25 491.6 379.25 490.31 364.41 490.31 363.76 490.31 363.76 490.88 363.76 490.31 363.12 490.31 343.12 490.31 343.12 491.6 343.77 491.6"/>
            <path d="M342.04,450.29h35.49v-1.29h-36.13v1.29h.65Z"/>
            <polygon points="271.5 491.6 306.34 491.6 306.99 491.6 306.99 490.31 292.14 490.31 291.5 490.31 291.5 490.88 291.5 490.31 290.85 490.31 270.85 490.31 270.85 491.6 271.5 491.6"/>
            <path d="M305.91,450.29h35.49v-1.29h-36.13v1.29h.65Z"/>
            <polygon points="126.97 491.6 161.81 491.6 162.45 491.6 162.45 490.31 147.61 490.31 146.96 490.31 146.96 490.88 146.96 490.31 146.32 490.31 126.32 490.31 126.32 491.6 126.97 491.6"/>
            <path d="M161.38,450.29h35.49v-1.29h-36.13v1.29h.65Z"/>
            <path d="M197.51,450.29h35.49v-1.29h-36.13v1.29h.65Z"/>
            <path d="M90.19,491.6v-1.29h-7.67c.25.43.5.86.75,1.29h6.93Z"/>
            <path d="M123.95,450.29h.65v-1.29h-36.13v1.29h35.49Z"/>
            <path d="M125.24,450.29h35.49v-1.29h-36.13v1.29h.65Z"/>
            <polygon points="125.67 491.6 126.32 491.6 126.32 490.31 111.47 490.31 110.83 490.31 110.83 490.88 110.83 490.31 110.18 490.31 90.19 490.31 90.19 491.6 90.83 491.6 125.67 491.6"/>
            <path d="M233.64,450.29h35.49v-1.29h-36.13v1.29h.65Z"/>
            <path d="M269.78,450.29h35.49v-1.29h-36.13v1.29h.65Z"/>
            <path d="M87.82,450.29h.65v-1.29h-26.6c.18.43.37.86.56,1.29h25.39Z"/>
            <path d="M472.16,469.37v.86-.86h-36.13v.86-.86h-36.13v.86-.86h-36.13v.86-.86h-36.13v.86-.86h-36.13v.86-.86h-36.13v.86-.86h-36.13v.86-.86h-36.13v.86-.86h-36.13v.86-.86h-36.13v.86-.86h-36.13v.86-.86h-3.41c.21.43.43.86.64,1.29h18.25v-1,1h36.13v-1,1h36.13v-1,1h36.13v-1,1h36.13v-1,1h36.13v-1,1h36.13v-1,1h36.13v-1,1h36.13v-1,1h36.13v-1,1h36.13v-1,1h21.49c.22-.43.44-.86.66-1.29h-1.5Z"/>
            <path d="M449.8,458.9v.72-.72h-36.13v.72-.72h-36.13v.72-.72h-36.13v.72-.72h-36.13v.72-.72h-36.13v.72-.72h-36.13v.72-.72h-36.13v.72-.72h-36.13v.72-.72h-36.13v.72-.72h-36.13v.72-.72h-22.2c.2.43.4.86.6,1.29h7.83v-.57.57h36.13v-.57.57h36.13v-.57.57h36.13v-.57.57h36.13v-.57.57h36.13v-.57.57h36.13v-.57.57h36.13v-.57.57h36.13v-.57.57h36.13v-.57.57h36.13v-.57.57h36.13v-.57.57h6.05c.21-.43.41-.86.61-1.29h-29.02Z"/>
            <polygon points="436.03 490.88 436.03 490.31 435.38 490.31 415.39 490.31 415.39 491.6 416.03 491.6 450.87 491.6 451.52 491.6 451.52 490.31 436.67 490.31 436.03 490.31 436.03 490.88"/>
            <path d="M451.52,479.84v.72-.72h-36.13v.72-.72h-36.13v.72-.72h-36.13v.72-.72h-36.13v.72-.72h-36.13v.72-.72h-36.13v.72-.72h-36.13v.72-.72h-36.13v.72-.72h-36.13v.72-.72h-36.13v.72-.72h-13.49c.23.43.47.86.7,1.29h33.44v-1.15,1.15h36.13v-1.15,1.15h36.13v-1.15,1.15h36.13v-1.15,1.15h36.13v-1.15,1.15h36.13v-1.15,1.15h36.13v-1.15,1.15h36.13v-1.15,1.15h36.13v-1.15,1.15h36.13v-1.15,1.15h31.37c.24-.43.48-.86.72-1.29h-16.59Z"/>
            <path d="M452.16,491.6h9.2c.26-.43.51-.86.77-1.29h-10.62v1.29h.65Z"/>
            <polygon points="379.9 491.6 414.74 491.6 415.39 491.6 415.39 490.31 400.54 490.31 399.9 490.31 399.9 490.88 399.9 490.31 399.25 490.31 379.25 490.31 379.25 491.6 379.9 491.6"/>
            <path d="M451.52,500.78v.43-.43h-36.13v.43-.43h-36.13v.43-.43h-36.13v.43-.43h-36.13v.43-.43h-36.13v.43-.43h-36.13v.43-.43h-36.13v.43-.43h-36.13v.43-.43h-36.13v.43-.43h-36.13v.43-.43h-1.43c.27.43.53.86.8,1.29h365.36c.27-.43.54-.86.82-1.29h-4.21Z"/>
            <path d="M449.8,450.29h32.97c.19-.43.38-.86.57-1.29h-33.55v1.29Z"/>
            <rect x="183.1" y="481.13" width=".65" height="9.18"/>
            <rect x="218.58" y="481.13" width=".65" height="9.18"/>
            <rect x="291.5" y="481.13" width=".65" height="9.18"/>
            <rect x="290.85" y="481.13" width=".65" height="9.18"/>
            <rect x="254.72" y="481.13" width=".65" height="9.18"/>
            <rect x="219.23" y="481.13" width=".64" height="9.18"/>
            <rect x="255.36" y="481.13" width=".64" height="9.18"/>
            <rect x="399.25" y="481.13" width=".65" height="9.18"/>
            <rect x="399.9" y="481.13" width=".65" height="9.18"/>
            <rect x="326.98" y="481.13" width=".65" height="9.18"/>
            <rect x="363.76" y="481.13" width=".64" height="9.18"/>
            <rect x="435.38" y="481.13" width=".65" height="9.18"/>
            <rect x="436.03" y="481.13" width=".65" height="9.18"/>
            <rect x="327.63" y="481.13" width=".65" height="9.18"/>
            <rect x="363.12" y="481.13" width=".65" height="9.18"/>
            <rect x="146.32" y="481.13" width=".65" height="9.18"/>
            <rect x="110.83" y="481.13" width=".64" height="9.18"/>
            <rect x="146.96" y="481.13" width=".65" height="9.18"/>
            <rect x="110.18" y="481.13" width=".65" height="9.18"/>
            <rect x="182.45" y="481.13" width=".65" height="9.18"/>
            <rect x="451.52" y="491.6" width=".65" height="9.18"/>
            <rect x="89.54" y="491.6" width=".65" height="9.18"/>
            <rect x="306.34" y="491.6" width=".64" height="9.18"/>
            <rect x="450.87" y="491.6" width=".65" height="9.18"/>
            <rect x="379.25" y="491.6" width=".65" height="9.18"/>
            <rect x="342.48" y="491.6" width=".64" height="9.18"/>
            <rect x="378.61" y="491.6" width=".65" height="9.18"/>
            <rect x="415.39" y="491.6" width=".65" height="9.18"/>
            <rect x="414.74" y="491.6" width=".65" height="9.18"/>
            <rect x="306.99" y="491.6" width=".65" height="9.18"/>
            <rect x="197.94" y="491.6" width=".64" height="9.18"/>
            <rect x="343.12" y="491.6" width=".65" height="9.18"/>
            <rect x="162.45" y="491.6" width=".65" height="9.18"/>
            <rect x="270.21" y="491.6" width=".65" height="9.18"/>
            <rect x="234.72" y="491.6" width=".65" height="9.18"/>
            <rect x="234.08" y="491.6" width=".65" height="9.18"/>
            <rect x="198.59" y="491.6" width=".65" height="9.18"/>
            <rect x="126.32" y="491.6" width=".65" height="9.18"/>
            <rect x="90.19" y="491.6" width=".65" height="9.18"/>
            <rect x="125.67" y="491.6" width=".65" height="9.18"/>
            <rect x="161.81" y="491.6" width=".65" height="9.18"/>
            <rect x="270.85" y="491.6" width=".65" height="9.18"/>
            <rect x="146.03" y="502.07" width="1.29" height="9.18"/>
            <rect x="290.56" y="502.07" width="1.29" height="9.18"/>
            <rect x="254.43" y="502.07" width="1.29" height="9.18"/>
            <rect x="362.83" y="502.07" width="1.29" height="9.18"/>
            <rect x="398.96" y="502.07" width="1.29" height="9.18"/>
            <rect x="435.1" y="502.07" width="1.29" height="9.18"/>
            <rect x="218.3" y="502.07" width="1.29" height="9.18"/>
            <rect x="109.9" y="502.07" width="1.29" height="9.18"/>
            <rect x="182.16" y="502.07" width="1.29" height="9.18"/>
            <rect x="326.7" y="502.07" width="1.29" height="9.18"/>
            <rect x="343.12" y="470.66" width=".65" height="9.18"/>
            <rect x="126.32" y="470.66" width=".65" height="9.18"/>
            <rect x="161.81" y="470.66" width=".65" height="9.18"/>
            <rect x="125.67" y="470.66" width=".65" height="9.18"/>
            <rect x="162.45" y="470.66" width=".65" height="9.18"/>
            <rect x="89.54" y="470.66" width=".65" height="9.18"/>
            <rect x="197.94" y="470.66" width=".64" height="9.18"/>
            <rect x="414.74" y="470.66" width=".65" height="9.18"/>
            <rect x="90.19" y="470.66" width=".65" height="9.18"/>
            <rect x="378.61" y="470.66" width=".65" height="9.18"/>
            <rect x="450.87" y="470.66" width=".65" height="9.18"/>
            <rect x="306.99" y="470.66" width=".65" height="9.18"/>
            <rect x="198.59" y="470.66" width=".65" height="9.18"/>
            <rect x="306.34" y="470.66" width=".64" height="9.18"/>
            <rect x="415.39" y="470.66" width=".65" height="9.18"/>
            <rect x="342.48" y="470.66" width=".64" height="9.18"/>
            <rect x="234.08" y="470.66" width=".65" height="9.18"/>
            <rect x="234.72" y="470.66" width=".65" height="9.18"/>
            <rect x="451.52" y="470.66" width=".65" height="9.18"/>
            <rect x="270.21" y="470.66" width=".65" height="9.18"/>
            <rect x="270.85" y="470.66" width=".65" height="9.18"/>
            <rect x="379.25" y="470.66" width=".65" height="9.18"/>
            <rect x="219.23" y="460.19" width=".64" height="9.18"/>
            <rect x="182.45" y="460.19" width=".65" height="9.18"/>
            <rect x="399.9" y="460.19" width=".65" height="9.18"/>
            <rect x="110.83" y="460.19" width=".64" height="9.18"/>
            <rect x="472.16" y="460.19" width=".65" height="9.18"/>
            <rect x="471.52" y="460.19" width=".65" height="9.18"/>
            <rect x="218.58" y="460.19" width=".65" height="9.18"/>
            <rect x="435.38" y="460.19" width=".65" height="9.18"/>
            <rect x="183.1" y="460.19" width=".65" height="9.18"/>
            <rect x="363.12" y="460.19" width=".65" height="9.18"/>
            <rect x="436.03" y="460.19" width=".65" height="9.18"/>
            <rect x="399.25" y="460.19" width=".65" height="9.18"/>
            <rect x="326.98" y="460.19" width=".65" height="9.18"/>
            <rect x="110.18" y="460.19" width=".65" height="9.18"/>
            <rect x="255.36" y="460.19" width=".64" height="9.18"/>
            <rect x="146.32" y="460.19" width=".65" height="9.18"/>
            <rect x="291.5" y="460.19" width=".65" height="9.18"/>
            <rect x="290.85" y="460.19" width=".65" height="9.18"/>
            <rect x="146.96" y="460.19" width=".65" height="9.18"/>
            <rect x="74.05" y="460.19" width=".65" height="9.18"/>
            <rect x="74.7" y="460.19" width=".65" height="9.18"/>
            <rect x="254.72" y="460.19" width=".65" height="9.18"/>
            <rect x="327.63" y="460.19" width=".65" height="9.18"/>
            <rect x="363.76" y="460.19" width=".64" height="9.18"/>
            <path d="M376.89,450.29v8.61h.65v-8.61h-.65Z"/>
            <path d="M377.53,450.29v8.61h.65v-8.61h-.65Z"/>
            <path d="M341.4,450.29v8.61h.65v-8.61h-.65Z"/>
            <path d="M340.75,450.29v8.61h.65v-8.61h-.65Z"/>
            <path d="M413.02,450.29v8.61h.65v-8.61h-.65Z"/>
            <path d="M124.6,450.29v8.61h.65v-8.61h-.65Z"/>
            <path d="M450.44,458.9v-8.61h-.65v8.61h.65Z"/>
            <path d="M123.95,450.29v8.61h.65v-8.61h-.65Z"/>
            <path d="M449.15,458.9h.65v-8.61h-.65v8.61Z"/>
            <path d="M305.27,450.29v8.61h.65v-8.61h-.65Z"/>
            <path d="M413.66,450.29v8.61h.65v-8.61h-.65Z"/>
            <path d="M232.35,450.29v8.61h.65v-8.61h-.65Z"/>
            <path d="M196.87,450.29v8.61h.65v-8.61h-.65Z"/>
            <path d="M304.62,450.29v8.61h.65v-8.61h-.65Z"/>
            <path d="M196.22,450.29v8.61h.65v-8.61h-.65Z"/>
            <path d="M89.11,458.9v-8.61h-.65v8.61h.65Z"/>
            <path d="M160.73,450.29v8.61h.65v-8.61h-.65Z"/>
            <path d="M88.47,458.9v-8.61h-.65v8.61h.65Z"/>
            <path d="M269.13,450.29v8.61h.65v-8.61h-.65Z"/>
            <path d="M160.09,450.29v8.61h.65v-8.61h-.65Z"/>
            <path d="M233,450.29v8.61h.65v-8.61h-.65Z"/>
            <path d="M268.49,450.29v8.61h.65v-8.61h-.65Z"/>
            <path d="M434.99,530.48v1.14h.65v-1.99c-.22.28-.43.57-.65.85Z"/>
            <path d="M327.24,523.01v8.61h.65v-8.61h-.65Z"/>
            <path d="M326.6,523.01v8.61h.65v-8.61h-.65Z"/>
            <path d="M435.64,529.63v-6.62h-.65v7.47c.22-.28.43-.57.65-.85Z"/>
            <path d="M398.86,523.01v8.61h.65v-8.61h-.65Z"/>
            <path d="M362.73,523.01v8.61h.65v-8.61h-.65Z"/>
            <path d="M436.28,528.78v-5.77h-.65v6.62c.22-.28.43-.57.65-.85Z"/>
            <path d="M363.37,523.01v8.61h.65v-8.61h-.65Z"/>
            <path d="M218.84,523.01v8.61h.65v-8.61h-.65Z"/>
            <path d="M290.46,523.01v8.61h.65v-8.61h-.65Z"/>
            <path d="M254.97,523.01v8.61h.65v-8.61h-.65Z"/>
            <path d="M218.2,523.01v8.61h.65v-8.61h-.65Z"/>
            <path d="M110.44,523.01v8.61h.65v-8.61h-.65Z"/>
            <path d="M109.79,523.01v8.61h.65v-8.61h-.65Z"/>
            <path d="M146.58,523.01v8.61h.65v-8.61h-.65Z"/>
            <path d="M254.33,523.01v8.61h.65v-8.61h-.65Z"/>
            <path d="M182.71,523.01v8.61h.65v-8.61h-.65Z"/>
            <path d="M291.11,523.01v8.61h.65v-8.61h-.65Z"/>
            <path d="M182.06,523.01v8.61h.65v-8.61h-.65Z"/>
            <path d="M145.93,523.01v8.61h.65v-8.61h-.65Z"/>
            <path class="cls-6" d="M450.44,450.29v8.61h28.38c1.36-2.88,2.68-5.75,3.95-8.61h-32.33Z"/>
            <path class="cls-6" d="M436.39,511.25h12.47c2.08-3.06,4.09-6.12,6.05-9.18h-18.52v9.18Z"/>
            <path class="cls-6" d="M109.9,502.07h-20.35c1.9,3.06,3.86,6.12,5.88,9.18h14.46v-9.18Z"/>
            <rect class="cls-6" x="183.74" y="460.19" width="34.84" height="9.18"/>
            <polygon class="cls-6" points="415.39 490.31 435.38 490.31 435.38 481.13 400.54 481.13 400.54 490.31 415.39 490.31"/>
            <rect class="cls-6" x="416.03" y="491.6" width="34.84" height="9.18"/>
            <polygon class="cls-6" points="126.32 490.31 146.32 490.31 146.32 481.13 111.47 481.13 111.47 490.31 126.32 490.31"/>
            <rect class="cls-6" x="90.83" y="491.6" width="34.84" height="9.18"/>
            <rect class="cls-6" x="126.97" y="491.6" width="34.84" height="9.18"/>
            <polygon class="cls-6" points="162.45 490.31 182.45 490.31 182.45 481.13 147.61 481.13 147.61 490.31 162.45 490.31"/>
            <rect class="cls-6" x="163.1" y="491.6" width="34.84" height="9.18"/>
            <polygon class="cls-6" points="198.59 490.31 218.58 490.31 218.58 481.13 183.74 481.13 183.74 490.31 198.59 490.31"/>
            <rect class="cls-6" x="199.23" y="491.6" width="34.84" height="9.18"/>
            <polygon class="cls-6" points="234.72 490.31 254.72 490.31 254.72 481.13 219.87 481.13 219.87 490.31 234.72 490.31"/>
            <rect class="cls-6" x="235.37" y="491.6" width="34.84" height="9.18"/>
            <polygon class="cls-6" points="270.85 490.31 290.85 490.31 290.85 481.13 256.01 481.13 256.01 490.31 270.85 490.31"/>
            <rect class="cls-6" x="271.5" y="491.6" width="34.84" height="9.18"/>
            <polygon class="cls-6" points="306.99 490.31 326.98 490.31 326.98 481.13 292.14 481.13 292.14 490.31 306.99 490.31"/>
            <rect class="cls-6" x="307.63" y="491.6" width="34.84" height="9.18"/>
            <polygon class="cls-6" points="343.12 490.31 363.12 490.31 363.12 481.13 328.27 481.13 328.27 490.31 343.12 490.31"/>
            <rect class="cls-6" x="343.77" y="491.6" width="34.84" height="9.18"/>
            <polygon class="cls-6" points="379.25 490.31 399.25 490.31 399.25 481.13 364.41 481.13 364.41 490.31 379.25 490.31"/>
            <rect class="cls-6" x="379.9" y="491.6" width="34.84" height="9.18"/>
            <rect class="cls-6" x="416.03" y="470.66" width="34.84" height="9.18"/>
            <rect class="cls-6" x="400.54" y="460.19" width="34.84" height="9.18"/>
            <rect class="cls-6" x="379.9" y="470.66" width="34.84" height="9.18"/>
            <rect class="cls-6" x="364.41" y="460.19" width="34.84" height="9.18"/>
            <rect class="cls-6" x="343.77" y="470.66" width="34.84" height="9.18"/>
            <rect class="cls-6" x="328.27" y="460.19" width="34.84" height="9.18"/>
            <rect class="cls-6" x="307.63" y="470.66" width="34.84" height="9.18"/>
            <rect class="cls-6" x="292.14" y="460.19" width="34.84" height="9.18"/>
            <rect class="cls-6" x="271.5" y="470.66" width="34.84" height="9.18"/>
            <rect class="cls-6" x="256.01" y="460.19" width="34.84" height="9.18"/>
            <rect class="cls-6" x="235.37" y="470.66" width="34.84" height="9.18"/>
            <rect class="cls-6" x="219.87" y="460.19" width="34.84" height="9.18"/>
            <rect class="cls-6" x="199.23" y="470.66" width="34.84" height="9.18"/>
            <rect class="cls-6" x="163.1" y="470.66" width="34.84" height="9.18"/>
            <rect class="cls-6" x="147.61" y="460.19" width="34.84" height="9.18"/>
            <rect class="cls-6" x="126.97" y="470.66" width="34.84" height="9.18"/>
            <rect class="cls-6" x="111.47" y="460.19" width="34.84" height="9.18"/>
            <rect class="cls-6" x="90.83" y="470.66" width="34.84" height="9.18"/>
            <rect class="cls-6" x="75.34" y="460.19" width="34.84" height="9.18"/>
            <path class="cls-6" d="M89.54,470.66h-17.61c1.53,3.05,3.12,6.11,4.76,9.18h12.85v-9.18Z"/>
            <path class="cls-6" d="M110.18,490.31v-9.18h-32.79c1.65,3.06,3.36,6.12,5.12,9.18h27.67Z"/>
            <path class="cls-6" d="M89.54,491.6h-6.28c1.77,3.06,3.61,6.12,5.49,9.18h.79v-9.18Z"/>
            <path class="cls-6" d="M125.96,512.54h-29.67c2.04,3.06,4.13,6.12,6.29,9.18h23.38v-9.18Z"/>
            <rect class="cls-6" x="111.19" y="502.07" width="34.84" height="9.18"/>
            <rect class="cls-6" x="127.25" y="512.54" width="34.84" height="9.18"/>
            <rect class="cls-6" x="147.32" y="502.07" width="34.84" height="9.18"/>
            <rect class="cls-6" x="163.39" y="512.54" width="34.84" height="9.18"/>
            <rect class="cls-6" x="183.45" y="502.07" width="34.84" height="9.18"/>
            <rect class="cls-6" x="199.52" y="512.54" width="34.84" height="9.18"/>
            <rect class="cls-6" x="219.59" y="502.07" width="34.84" height="9.18"/>
            <rect class="cls-6" x="235.65" y="512.54" width="34.84" height="9.18"/>
            <rect class="cls-6" x="255.72" y="502.07" width="34.84" height="9.18"/>
            <rect class="cls-6" x="271.79" y="512.54" width="34.84" height="9.18"/>
            <rect class="cls-6" x="291.85" y="502.07" width="34.84" height="9.18"/>
            <rect class="cls-6" x="307.92" y="512.54" width="34.84" height="9.18"/>
            <rect class="cls-6" x="327.99" y="502.07" width="34.84" height="9.18"/>
            <rect class="cls-6" x="344.05" y="512.54" width="34.84" height="9.18"/>
            <rect class="cls-6" x="364.12" y="502.07" width="34.84" height="9.18"/>
            <rect class="cls-6" x="380.19" y="512.54" width="34.84" height="9.18"/>
            <rect class="cls-6" x="400.25" y="502.07" width="34.84" height="9.18"/>
            <path class="cls-6" d="M416.32,512.54v9.18h25.2c2.22-3.06,4.37-6.12,6.46-9.18h-31.66Z"/>
            <path class="cls-6" d="M452.16,491.6v9.18h3.56c1.94-3.06,3.82-6.12,5.64-9.18h-9.2Z"/>
            <path class="cls-6" d="M436.67,490.31h25.46c1.81-3.06,3.56-6.12,5.26-9.18h-30.72v9.18Z"/>
            <path class="cls-6" d="M452.16,479.84h15.95c1.69-3.07,3.32-6.13,4.89-9.18h-20.84v9.18Z"/>
            <rect class="cls-6" x="436.67" y="460.19" width="34.84" height="9.18"/>
            <path class="cls-6" d="M414.31,450.29v8.61h34.84v-8.61h-34.84Z"/>
            <path class="cls-6" d="M378.18,450.29v8.61h34.84v-8.61h-34.84Z"/>
            <path class="cls-6" d="M342.04,450.29v8.61h34.84v-8.61h-34.84Z"/>
            <path class="cls-6" d="M305.91,450.29v8.61h34.84v-8.61h-34.84Z"/>
            <path class="cls-6" d="M269.78,450.29v8.61h34.84v-8.61h-34.84Z"/>
            <path class="cls-6" d="M233.64,450.29v8.61h34.84v-8.61h-34.84Z"/>
            <path class="cls-6" d="M197.51,450.29v8.61h34.84v-8.61h-34.84Z"/>
            <path class="cls-6" d="M161.38,450.29v8.61h34.84v-8.61h-34.84Z"/>
            <path class="cls-6" d="M125.24,450.29v8.61h34.84v-8.61h-34.84Z"/>
            <path class="cls-6" d="M89.11,450.29v8.61h34.84v-8.61h-34.84Z"/>
            <path class="cls-6" d="M87.82,450.29h-25.39c1.24,2.86,2.52,5.73,3.84,8.61h21.55v-8.61Z"/>
            <path class="cls-6" d="M74.05,460.19h-7.18c1.42,3.05,2.9,6.11,4.42,9.18h2.76v-9.18Z"/>
            <path class="cls-6" d="M103.5,523.01c2.04,2.87,4.14,5.74,6.29,8.61h0v-8.61h-6.3Z"/>
            <path class="cls-6" d="M111.09,523.01v8.61h34.84v-8.61h-34.84Z"/>
            <path class="cls-6" d="M147.22,523.01v8.61h34.84v-8.61h-34.84Z"/>
            <path class="cls-6" d="M183.35,523.01v8.61h34.84v-8.61h-34.84Z"/>
            <path class="cls-6" d="M219.49,523.01v8.61h34.84v-8.61h-34.84Z"/>
            <path class="cls-6" d="M255.62,523.01v8.61h34.84v-8.61h-34.84Z"/>
            <path class="cls-6" d="M291.75,523.01v8.61h34.84v-8.61h-34.84Z"/>
            <path class="cls-6" d="M327.89,523.01v8.61h34.84v-8.61h-34.84Z"/>
            <path class="cls-6" d="M364.02,523.01v8.61h34.84v-8.61h-34.84Z"/>
            <path class="cls-6" d="M434.99,523.01h-34.84v8.61h33.96c.29-.38.59-.76.88-1.14v-7.47Z"/>
            <path class="cls-6" d="M436.28,528.78c1.46-1.92,2.89-3.85,4.29-5.77h-4.29v5.77Z"/>
            <path class="cls-6" d="M472.81,469.37h.86c1.57-3.07,3.08-6.13,4.54-9.18h-5.4v9.18Z"/>
            <path class="cls-7" d="M164.47,481.12c-26.39,0-47.78,22.86-47.78,51.05h95.56c0-28.2-21.39-51.05-47.78-51.05Z"/>
            <path d="M213,532.93v-.75c0-28.57-21.77-51.8-48.53-51.8s-48.53,23.24-48.53,51.8v.75"/>
            <path class="cls-7" d="M273.04,481.12c-26.39,0-47.78,22.86-47.78,51.05h95.57c0-28.2-21.39-51.05-47.78-51.05Z"/>
            <path d="M224.51,532.18v.75h97.07v-.75c0-28.57-21.77-51.8-48.53-51.8s-48.53,23.24-48.53,51.8Z"/>
            <path d="M333.08,532.18v.75h97.06v-.75c0-28.57-21.77-51.8-48.53-51.8s-48.53,23.24-48.53,51.8Z"/>
            <path class="cls-7" d="M273.04,481.87c-25.52,0-46.31,22.59-46.97,50.62h93.95c-.67-28.03-21.46-50.62-46.97-50.62Z"/>
            <path class="cls-7" d="M164.47,481.87c-25.42,0-46.14,22.56-46.96,50.62h93.92c-.82-28.06-21.54-50.62-46.96-50.62Z"/>
            <path class="cls-7" d="M381.61,481.87c-25.32,0-45.98,22.53-46.95,50.62h93.89c-.97-28.09-21.63-50.62-46.95-50.62Z"/>
            <path class="cls-3" d="M222.8,559.62l7.28-1.71c41.02-9.64,41.75-9.65,78.94-.98l11.58,2.68c43.69,10.02,78.5,3.48,89.08.96,8.6-9.3,16.54-18.66,23.83-28.04l-316-.04c0,.14-7,.16-7,.16,6.98,9.23,14.57,18.43,22.77,27.57,13.2,2.04,56.5,7.64,89.51-.61Z"/>
            <path class="cls-3" d="M287.71,634.79q-16.25-4.16-34.36.51s-3.51.9-3.43.88c-8.35,2.29-17.72,2.76-25.97,2.5,10.84,7.38,22.27,14.61,34.3,21.65.75-.13,1.48-.29,2.18-.5l1.47-.42c9.09-2.57,9.94-2.58,18.28-.24,0,0,2.32.65,2.33.65,11.71-6.7,22.85-13.56,33.46-20.56-6.67-.14-14.34-.97-22.66-3.06l-5.6-1.42Z"/>
            <path class="cls-3" d="M318.37,569.37l-11.62-2.69q-35.26-8.22-74.38.98s-7.29,1.71-7.22,1.69c-27.8,6.94-61.42,4.76-81.11,2.46,7.16,7.43,14.76,14.82,22.81,22.12,13.66,1.65,43.02,4.16,66.02-1l5.75-1.21c32.54-6.88,33.12-6.88,62.64-.7l9.15,1.91c28.5,5.87,52.19,3.7,64.21,1.78,8.14-7.15,15.84-14.37,23.1-21.65-17.31,2.5-45.63,4.06-79.35-3.67Z"/>
            <path class="cls-3" d="M308.39,602.7l-9.18-1.91q-27.73-5.81-58.52.69s-5.76,1.21-5.7,1.2c-18.19,4.08-39.5,3.74-55.17,2.57,8.75,7.39,17.99,14.69,27.76,21.87,7.82,1.19,25.82,3.21,39.77-.61l3.5-.9c20.21-5.22,20.95-5.23,39.34-.52l5.56,1.41c15.85,3.99,29.18,2.84,36.58,1.55,10.03-7.13,19.53-14.38,28.53-21.72-13.52.92-31.71.64-52.47-3.63Z"/>
            <path class="cls-6" d="M225.15,569.34c-.07.02,7.22-1.69,7.22-1.69q39.12-9.2,74.38-.98l11.62,2.69c33.71,7.73,62.03,6.17,79.35,3.67,4.13-4.14,8.11-8.29,11.97-12.46-10.58,2.52-45.38,9.06-89.08-.96l-11.58-2.68c-37.19-8.67-37.93-8.66-78.94.98l-7.28,1.71c-33.02,8.25-76.31,2.65-89.51.61,3.47,3.87,7.05,7.73,10.75,11.57,19.69,2.3,53.3,4.49,81.11-2.46Z"/>
            <path class="cls-6" d="M310.41,592.91l-9.15-1.91c-29.51-6.19-30.1-6.18-62.64.7l-5.75,1.21c-23,5.16-52.36,2.65-66.02,1,4.2,3.8,8.53,7.58,12.98,11.34,15.66,1.16,36.98,1.51,55.17-2.57-.06.01,5.7-1.2,5.7-1.2q30.79-6.51,58.52-.69l9.18,1.91c20.76,4.28,38.94,4.56,52.47,3.63,4.73-3.86,9.31-7.75,13.76-11.65-12.02,1.93-35.71,4.1-64.21-1.78Z"/>
            <path class="cls-6" d="M295.75,626.51l-5.56-1.41c-18.39-4.71-19.12-4.7-39.34.52l-3.5.9c-13.94,3.82-31.94,1.8-39.77.61,5.3,3.89,10.75,7.75,16.36,11.56,8.25.26,17.62-.21,25.97-2.5-.08.02,3.43-.88,3.43-.88q18.11-4.67,34.36-.51l5.6,1.42c8.32,2.09,15.99,2.92,22.66,3.06,5.6-3.7,11.05-7.44,16.36-11.21-7.4,1.29-20.72,2.44-36.58-1.55Z"/>
            <path class="cls-6" d="M261.9,659.43l-1.47.42c-.69.21-1.42.37-2.18.5,3.78,2.22,7.62,4.42,11.53,6.6,4.32-2.35,8.56-4.72,12.73-7.11-.02,0-2.33-.65-2.33-.65-8.34-2.34-9.19-2.33-18.28.24Z"/>
          </g>
          <path class="cls-2" d="M410.68,383.87c-11.16-7.39-32.24-1.6-35.83,12.96l-91.82-60.77,137.3-90.88s3.89-8.61-6.09-9.2c-8.85,5.61-15.62,10.34-15.62,10.34l-13.54-20.45-5.98,3.96,9.89,14.93-8.28,5.48-9.88-14.94-10.11,6.69,9.89,14.94-8.27,5.47-9.88-14.94-5.98,3.95,13.54,20.45-86.97,57.56-86.97-57.56,13.54-20.45-5.98-3.95-9.88,14.94-8.27-5.47,9.89-14.94-10.11-6.69-9.88,14.94-8.28-5.48,9.89-14.93-5.98-3.96-13.54,20.45s-6.78-4.73-15.62-10.34c-9.97.59-6.09,9.2-6.09,9.2l137.3,90.88-91.82,60.77c-3.59-14.56-24.66-20.35-35.83-12.96-12.52,8.29-17.12,30.25,6.11,38.67-.39,24.05,20.3,28.45,32.82,20.16,11.39-7.54,16.68-22.76,2.27-36.21l96.43-63.82,96.43,63.82c-14.41,13.45-9.12,28.67,2.27,36.21,12.52,8.29,33.21,3.89,32.82-20.16,23.24-8.41,18.64-30.38,6.11-38.67ZM169.22,433.88c-8.91,5.9-23.63,2.77-23.35-14.34-16.53-5.98-13.26-21.61-4.35-27.51,7.59-5.02,21.6-1.48,25.07,7.87l-.52.34,1.05,1.59c.22,1.1.34,2.24.26,3.46,1.85,1.3,3.4,2.65,4.68,4l.09.14h.01c8.58,9.22,4.78,19.32-2.95,24.44ZM400.22,419.54c.28,17.11-14.44,20.24-23.35,14.34-7.74-5.12-11.54-15.22-2.95-24.45h.01s.09-.13.09-.13c1.28-1.36,2.83-2.71,4.68-4-.08-1.23.04-2.36.26-3.46l1.05-1.59-.52-.34c3.47-9.36,17.48-12.9,25.07-7.87,8.91,5.9,12.18,21.53-4.35,27.51Z"/>
        </g>
        <path class="cls-1" d="M233.4,261.45c4.62-.77,12.1,0,12.1-10.67v-45.86c0-10.67-7.48-9.9-12.1-10.67v-3.3c4.62,0,12.1.55,18.47.55,7.7,0,15.61-.55,23.31-.55,22.76,0,37.5,13.42,37.5,35.63s-12.76,38.16-38.82,38.16c-7.26,0-14.74-.55-21.99-.55-6.38,0-13.86.55-18.47.55v-3.3ZM258.36,250.78c0,3.74,0,9.79,11.44,9.79,21.11,0,28.37-15.72,28.37-33.98,0-19.35-7.81-31.45-28.92-31.45-10.89,0-10.89,3.96-10.89,9.79v45.86Z"/>
        <g>
          <path class="cls-1" d="M132.3,344.14c0,3.74.77,7.7,1.43,10.45-2.42-.66-4.84-1.32-7.26-1.32-6.93,0-15.83,5.28-26.83,5.28-20.01,0-34.86-12.1-34.86-39.26,0-24.52,16.28-37.39,39.7-37.39,9.57,0,16.93,3.3,21.44,3.3,2.31,0,4.18-.77,5.83-2.86-.33,1.1-.55,5.83-.55,8.03,0,2.75.33,14.08.55,16.82h-4.07c-2.97-9.46-6.82-20.45-23.2-20.45-18.8,0-25.18,12.76-25.18,32.55,0,15.94,6.27,32.44,27.6,32.44,8.69,0,12.54-2.09,12.54-7.59v-13.2c0-5.72-4.51-7.92-12.32-7.92v-3.3c6.16,0,12.32.55,18.58.55,4.84,0,9.68-.55,14.63-.55v3.3c-6.16,0-8.03,2.75-8.03,7.92v13.2Z"/>
          <path class="cls-1" d="M481.31,330.83c-1.76,8.91-9.79,27.71-33.43,27.71-21.11,0-32.44-18.03-32.44-39.26s11.88-37.39,36.4-37.39c9.13,0,16.06,3.3,20.34,3.3,2.31,0,4.18-.77,5.83-2.86-.33,1.1-.55,5.83-.55,8.03,0,2.75.33,14.08.55,16.82h-4.07c-2.86-9.46-6.49-20.45-22.1-20.45-17.81,0-21.88,18.25-21.88,32.55,0,15.94,7.7,29.91,22.76,29.91s21.55-10.78,24.19-18.36h4.4Z"/>
        </g>
      </g>
    </g>
  </g>
</svg>