<?xml version="1.0" encoding="UTF-8"?>
<svg id="Layer_1" data-name="Layer 1" xmlns="http://www.w3.org/2000/svg" viewBox="0 0 177.17 316.71">
  <defs>
    <style>
      .cls-1, .cls-2, .cls-3 {
        fill: #eb9e23;
      }

      .cls-2 {
        stroke: #fcba13;
        stroke-miterlimit: 4.95;
        stroke-width: .39px;
      }

      .cls-3 {
        fill-rule: evenodd;
      }
    </style>
  </defs>
  <path id="path1" class="cls-3" d="M3.84,49.8h170.04v73.53l-119.06,69.61s-1.73,21.9,32.55,35.52c4.71,1.88,20.81-8.13,25.66-13.92,17.34-20.96,14.86-35.97,14.86-35.97l46.33-26.9s8.62,58.02-35.03,94.63c0,0-40.53,29.08-48.01,30.82-6.39,1.59-99.79-45.83-87.89-108.26l123.12-71H49.97v16.6L3.84,140.57V49.8Z"/>
  <path id="path2" class="cls-1" d="M72.96,301.79h-3.12v-11.4c0,.15-.15.3-.45.45-.3.15-.45.45-.64.64l-1.73,1.39-1.39-1.88,4.71-3.77h2.53v14.57h.1Z"/>
  <path id="path3" class="cls-1" d="M87.03,293.37c0,.79,0,1.73-.15,2.53s-.3,1.59-.64,2.33c-.3.79-.79,1.39-1.24,1.88-.45.45-1.24.94-2.03,1.24s-1.88.45-3.12.45h-.94c-.3,0-.79,0-.94-.15v-2.48c.3,0,.64.15.79.15h.94c1.24,0,2.18-.15,2.82-.64.64-.3,1.09-.94,1.39-1.59.3-.64.45-1.39.45-2.33h-.3c-.15.3-.45.64-.64.94-.3.3-.64.45-.94.64-.45.15-.94.15-1.59.15-.79,0-1.59-.15-2.18-.45-.59-.3-1.09-.94-1.39-1.59-.3-.64-.45-1.59-.45-2.53,0-1.09.15-2.03.64-2.68.45-.79.94-1.39,1.73-1.73.79-.45,1.59-.64,2.68-.64.79,0,1.39.15,2.03.3.64.3,1.24.64,1.73,1.24.45.64.94,1.24,1.09,2.03.1.89.25,1.83.25,2.92h0ZM81.73,289.46c-.64,0-1.09.15-1.39.64-.3.45-.64,1.09-.64,1.88s.15,1.24.45,1.73c.3.45.79.64,1.39.64.45,0,.79-.15,1.24-.3.3-.15.64-.45.79-.79.15-.35.3-.64.3-.94s0-.64-.15-.94c-.15-.3-.15-.64-.45-.94-.15-.3-.45-.45-.64-.64-.2-.2-.4-.35-.89-.35h0Z"/>
  <path id="path4" class="cls-1" d="M93.77,292.43c.94,0,1.73.15,2.33.45.64.3,1.24.79,1.59,1.59.45.64.64,1.39.64,2.53s-.15,2.03-.64,2.68c-.45.79-1.09,1.39-1.88,1.73-.79.45-1.88.64-3.27.64-.79,0-1.39,0-2.18-.15s-1.24-.3-1.73-.64v-2.68c.45.3,1.09.45,1.88.64.79.15,1.39.3,2.03.3s1.09-.15,1.59-.3c.45-.15.79-.45.94-.79.15-.35.3-.79.3-1.24,0-.79-.3-1.24-.79-1.59-.45-.3-1.24-.64-2.18-.64-.3,0-.79,0-1.24.15-.45,0-.79.15-1.09.15l-1.24-.64.64-7.53h7.98v2.68h-5.15l-.3,2.82c.15,0,.45-.15.79-.15h.99Z"/>
  <path id="path5" class="cls-1" d="M101.6,301.79l5.5-12.04h-7.18v-2.68h10.5v1.88l-5.55,12.68h-3.27v.15Z"/>
  <path id="path6" class="cls-2" d="M13.7,38.56l-.79-2.68h-3.91l-.94,2.68h-2.53l3.91-11.1h2.82l3.91,11.1h-2.48ZM12.41,33.85l-.79-2.68c0-.15-.15-.45-.15-.64,0-.15-.15-.45-.3-.79-.15-.3-.15-.45-.15-.79,0,.15-.15.45-.15.79-.15.3-.3.64-.3.94-.15.3-.15.45-.15.64l-.94,2.53h2.92Z"/>
  <path id="path7" class="cls-2" d="M17.62,38.56v-11.1h2.33v9.22h4.56v1.88h-6.89Z"/>
  <path id="path8" class="cls-2" d="M35.25,38.56h-2.33v-4.86h-4.36v4.86h-2.33v-11.1h2.33v4.36h4.36v-4.36h2.33v11.1Z"/>
  <path id="path9" class="cls-2" d="M44.82,38.56l-.79-2.68h-4.06l-.79,2.68h-2.53l3.91-11.1h2.82l3.91,11.1h-2.48ZM43.43,33.85l-.79-2.68c0-.15-.15-.45-.15-.64,0-.15-.15-.45-.3-.79-.15-.35-.15-.45-.15-.79,0,.15-.15.45-.15.79-.15.3-.15.64-.3.94-.15.3-.15.45-.15.64l-.79,2.53h2.77Z"/>
  <path id="path10" class="cls-2" d="M55.91,38.56h-8.27v-1.59l5.3-7.68h-5.15v-1.88h7.98v1.59l-5.3,7.68h5.5v1.88h-.05Z"/>
  <path id="path11" class="cls-2" d="M63.89,38.56h-6.39v-11.1h6.39v1.88h-4.06v2.53h3.77v1.88h-3.77v2.82h4.06v1.98Z"/>
  <path id="path12" class="cls-2" d="M70.78,38.56l-2.68-8.77h0v8.77h-2.03v-11.1h3.12l2.68,8.42h0l2.82-8.42h3.12v11.1h-2.18v-8.72h0l-2.68,8.77h-2.18v-.05Z"/>
  <path id="path13" class="cls-2" d="M91.14,35.38c0,.64-.15,1.24-.45,1.73s-.79.94-1.39,1.09c-.64.3-1.39.45-2.18.45h-1.09c-.3,0-.79-.15-1.09-.15s-.64-.15-.94-.3v-2.18c.45.15,1.09.45,1.59.64.64.15,1.09.3,1.73.3.3,0,.64,0,.94-.15.15-.15.45-.3.45-.45.15-.15.15-.3.15-.64,0-.3-.15-.45-.3-.79-.15-.15-.45-.3-.79-.64-.3-.15-.64-.3-1.09-.64-.3-.15-.45-.3-.79-.45s-.64-.3-.94-.64c-.3-.35-.45-.64-.64-.94-.15-.3-.3-.79-.3-1.24,0-.64.15-1.24.45-1.73.3-.45.79-.79,1.24-1.09.64-.3,1.24-.3,2.03-.3.64,0,1.09,0,1.73.15.45.15,1.09.3,1.59.64l-.64,1.73c-.45-.15-.94-.3-1.39-.45-.45-.15-.79-.15-1.24-.15-.3,0-.45,0-.79.15-.15.15-.3.15-.45.45-.15.15-.15.3-.15.64,0,.3,0,.45.15.64.15.15.3.3.64.45.35.15.64.3,1.09.64.64.3,1.09.64,1.39.79.3.15.79.64.94,1.09.55.25.55.74.55,1.34h0Z"/>
  <path id="path14" class="cls-2" d="M99.86,38.56l-.79-2.68h-4.06l-.79,2.68h-2.53l3.91-11.1h2.82l3.96,11.1h-2.53ZM98.47,33.85l-.79-2.68c0-.15-.15-.45-.15-.64-.15-.3-.15-.45-.3-.79-.15-.35-.15-.45-.15-.79,0,.15-.15.45-.15.79-.15.3-.15.64-.3.94-.15.3-.15.45-.15.64l-.79,2.53h2.77Z"/>
  <path id="path15" class="cls-2" d="M112.69,27.41v7.18c0,.79-.15,1.39-.45,2.03-.3.64-.79,1.09-1.59,1.39-.64.3-1.59.45-2.53.45-1.39,0-2.53-.3-3.27-1.09-.79-.79-1.09-1.73-1.09-2.97v-7.18h2.18v6.74c0,.94.15,1.59.64,1.88.3.3.94.64,1.73.64.45,0,.94-.15,1.24-.3.3-.15.64-.45.79-.79s.15-.79.15-1.39v-6.74h2.18v.15Z"/>
  <path id="path16" class="cls-2" d="M124.59,32.91c0,1.24-.3,2.33-.79,3.12-.45.79-1.09,1.39-2.03,1.88-.94.3-2.03.64-3.27.64h-3.12v-11.1h3.42c1.09,0,2.18.15,2.97.64.79.45,1.59,1.09,2.03,1.88.5.74.79,1.68.79,2.92h0ZM122.11,32.91c0-.79-.15-1.59-.3-2.03-.3-.45-.64-.94-1.09-1.24s-1.09-.3-1.73-.3h-1.24v7.18h.94c1.09,0,2.03-.3,2.53-.94.54-.5.89-1.44.89-2.68Z"/>
  <path id="path17" class="cls-2" d="M126.77,38.56v-11.1h2.33v11.1h-2.33Z"/>
  <path id="path18" class="cls-2" d="M140.39,29.14c-.45,0-.79.15-1.24.3s-.64.45-.94.79c-.15.3-.45.79-.45,1.24-.15.45-.15.94-.15,1.59,0,.79.15,1.39.3,2.03.15.64.45.94.94,1.24.45.3.94.45,1.59.45.45,0,.94,0,1.39-.15.45-.15.94-.3,1.39-.45v2.03c-.45.15-.94.3-1.39.45-.45.15-.94.15-1.59.15-1.09,0-2.03-.3-2.82-.79-.79-.45-1.24-1.09-1.59-2.03-.3-.94-.45-1.88-.45-2.97,0-.79.15-1.59.3-2.33.15-.64.64-1.24.94-1.88.3-.64.94-.94,1.59-1.24s1.39-.45,2.18-.45c.64,0,1.09,0,1.73.15s1.09.3,1.59.64l-.79,1.88c-.45-.15-.79-.3-1.24-.45-.45-.15-.79-.2-1.29-.2h0Z"/>
  <path id="path19" class="cls-2" d="M145.54,38.56v-11.1h2.33v9.22h4.56v1.88h-6.89Z"/>
  <path id="path20" class="cls-2" d="M163.23,27.41v7.18c0,.79-.15,1.39-.45,2.03-.3.64-.79,1.09-1.59,1.39-.64.3-1.59.45-2.53.45-1.39,0-2.53-.3-3.27-1.09-.79-.79-1.09-1.73-1.09-2.97v-7.18h2.33v6.74c0,.94.15,1.59.64,1.88.3.3.94.64,1.73.64.45,0,.94-.15,1.24-.3.3-.15.64-.45.79-.79s.15-.79.15-1.39v-6.74h2.03v.15Z"/>
  <path id="path21" class="cls-2" d="M165.91,27.41h3.42c1.39,0,2.68.15,3.27.64.79.45,1.09,1.09,1.09,2.18,0,.45,0,.79-.15,1.09-.15.3-.3.64-.64.79-.3.15-.64.3-.94.45h0c.3,0,.64.15.94.45.3.15.45.45.79.79.3.3.3.79.3,1.39,0,.64-.15,1.24-.45,1.73-.3.45-.79.79-1.39,1.09-.64.3-1.39.3-2.18.3h-4.06v-10.9ZM168.24,31.82h1.39c.64,0,1.09-.15,1.39-.3.3-.15.45-.45.45-.94s-.15-.79-.45-.94c-.3-.15-.79-.3-1.39-.3h-1.24v2.53h-.15v-.05ZM168.24,33.7v2.97h1.59c.79,0,1.24-.15,1.39-.45.3-.3.45-.64.45-1.09,0-.3,0-.45-.15-.79s-.3-.3-.64-.45-.64-.15-1.24-.15h-1.39v-.05Z"/>
  <path id="path22" class="cls-1" d="M12.91,19.13h-1.78c-1.14,0-2.18-.15-3.02-.45-.89-.3-1.68-.84-2.48-1.64-.74-.79-1.14-1.93-1.14-3.37,0-.79.15-1.59.45-2.33s.79-1.39,1.49-1.98l2.13,1.73c-.94.94-1.39,1.78-1.39,2.53,0,1.59,1.44,2.43,4.31,2.43,2.73,0,4.36-.15,4.81-.45.5-.3.79-.59.79-.79,0-.35-.3-.59-.84-.64h-3.27l-1.29-3.52,2.68-2.58c.99-.89,1.98-1.34,2.97-1.34,1.19,0,2.38.35,3.52,1.04l-.89,2.63c-.64-.3-1.44-.5-2.33-.5-.79,0-1.68.5-2.58,1.49.94.05,1.73.15,2.28.3.99.15,1.73.5,2.28,1.04s.79,1.24.79,1.98c0,.25-.05.45-.1.74-.3,1.19-1.09,2.08-2.33,2.73-1.19.64-2.87.94-5.05.94h0ZM11.27,23c-.4,0-.74-.15-1.04-.45-.3-.3-.4-.64-.4-1.04s.15-.74.4-1.04c.3-.3.59-.45,1.04-.45.4,0,.74.15,1.04.45.3.3.4.64.4,1.04s-.15.74-.4,1.04c-.3.3-.64.45-1.04.45ZM14.59,23c-.4,0-.74-.15-1.04-.45-.3-.3-.4-.64-.4-1.04s.15-.74.45-1.04.64-.45,1.04-.45.74.15,1.04.45c.3.3.4.64.4,1.04s-.15.74-.4,1.04c-.35.3-.69.45-1.09.45Z"/>
  <path id="path23" class="cls-1" d="M27.18,16.76h-5.1v-3.02h5.05c.35,0,.64-.05.84-.15.2-.1.35-.2.35-.4,0-.94-.15-1.68-.4-2.18s-.59-.84-.89-1.04c-.35-.2-.64-.3-.89-.3-.59,0-1.09,0-1.49.05s-.74.1-.99.15c-.05,0-.2.05-.35.1v-3.12c.35-.1.74-.15,1.19-.2.5-.05.99-.1,1.49-.1.94,0,1.83.25,2.63.79.79.5,1.49,1.29,1.98,2.38.5,1.04.74,2.43.74,4.06,0,.79-.2,1.44-.59,1.83-.4.45-.89.74-1.54.94-.64.15-1.29.2-2.03.2h0Z"/>
  <path id="path24" class="cls-1" d="M41.65,13.54c.1.05.2.1.35.15.25.05.5.1.74.1h1.24l.05,3.07h-1.34s-.15-.05-.3-.05c-.25-.05-.55-.15-.84-.3-.1-.05-.05,0,.05.1l-.05,1.24c0,1.34-.55,2.28-1.68,2.87s-2.23.89-3.27.89c-1.44,0-2.43-.25-3.07-.79l.25-2.03c.69.1,1.59.15,2.63.15.25,0,.5,0,.74-.05s.55-.15.89-.4c.35-.25.55-.5.59-.74.05-.15.05-.55.05-1.24-.25.25-.94.4-2.08.4-1.39,0-2.33-.5-2.92-1.44-.59-.94-.89-1.98-.89-3.12,0-1.54.45-2.87,1.34-3.86.89-1.04,2.08-1.54,3.62-1.54.74,0,1.49.05,2.23.2.74.15,1.34.3,1.73.4l-.05,6ZM37.19,13.88c.45,0,.74-.1.94-.35.2-.2.35-.55.4-.94.05-.4.1-.89.1-1.44l.05-1.59s-.1-.05-.25-.05c-.15-.05-.3-.05-.45-.05-.5,0-.84.1-1.14.3-.25.2-.45.5-.55.84s-.15.69-.15,1.09c0,.64.05,1.14.2,1.54s.4.59.74.64h.1Z"/>
  <path id="path25" class="cls-1" d="M56.06,16.76h-12.54l.05-3.02h2.48s-.35-.59-.94-1.68c-.3-.5-.45-.94-.45-1.34,0-.59.25-1.09.79-1.54l2.43-1.78c.79-.5,1.44-.79,1.98-.79s1.19.25,1.98.79l2.33,1.73c.64.45.94.99.94,1.59,0,.4-.25.99-.69,1.78s-.69,1.19-.74,1.24h2.28l.1,3.02ZM49.82,13.63c.1,0,.25-.05.45-.1.2-.05.3-.25.4-.5.1-.3.45-1.04,1.04-2.28-.84-.69-1.44-1.09-1.83-1.14-.4.05-.99.45-1.83,1.14.59,1.24.94,2.03,1.04,2.33.15.4.35.55.74.55h0Z"/>
  <path id="path26" class="cls-1" d="M70.68,13.63c.25.05.5.1.74.1h1.24l.05,3.07h-1.34s-.15-.05-.3-.05c-.25-.05-.55-.15-.89-.35-.35-.2-.69-.45-1.04-.84l.1.1s-.2.2-.35.35c-.69.59-1.44.89-2.28.89-.25,0-.5-.05-.74-.1-.55-.1-1.04-.25-1.44-.45s-.69-.45-.89-.69c-.25.4-.64.64-1.14.84s-1.09.3-1.78.3c-1.09,0-1.88-.25-2.28-.74-.15.15-.3.25-.55.4-.35.2-.59.3-.79.3h-.05c-.15,0-.3.05-.35.05h-1.34l.05-3.07h1.24c.25,0,.5-.05.74-.1l.1-.05v-5.65h3.02v4.61c0,.35.05.59.2.84s.45.35.89.35c.35,0,.59-.2.79-.64.2-.45.3-.94.3-1.49v-4.46h2.97l-.05,5.4c0,.35.1.59.3.84s.45.35.84.35c.45,0,.79-.2.99-.64.2-.4.35-.99.4-1.68.05-.69.1-1.39.1-2.08,0-.94-.05-1.68-.15-2.33,0-.1-.05-.3-.1-.5h2.92c.05.35.1.74.15,1.19.05.5.1.99.1,1.49,0,1.64-.2,2.97-.55,4.11l-.1.2c.05.1.1.1.25.15h0Z"/>
  <path id="path27" class="cls-1" d="M74.35,16.76h-2.33v-3.02h1.44c.35,0,.55-.15.59-.4V2.04l3.07.59v11.99c-.2,1.44-1.09,2.13-2.77,2.13Z"/>
  <path id="path28" class="cls-1" d="M82.03,16.76h-3.07V2.64l3.07-.59v14.72Z"/>
  <path id="path29" class="cls-1" d="M91.24,15.72s-.05.05-.1.1c-.3.3-.5.59-.59.94s-.15.69-.15,1.04v4.95h-3.27v-4.91c0-.99.15-1.88.5-2.53.35-.69.79-1.24,1.39-1.73.3-.2.55-.4.84-.55,0-.1-.05-.3-.05-.55l-.1-2.18v-2.97c.35-.15.89-.25,1.68-.4s1.54-.2,2.23-.2c1.54,0,2.73.5,3.62,1.54.89,1.04,1.34,2.33,1.34,3.91,0,1.14-.3,2.13-.89,3.12-.59.94-1.54,1.44-2.87,1.49h-.25c-.45,0-.94-.05-1.44-.2-.84-.2-1.44-.5-1.88-.89h0ZM94.31,13.88c.35,0,.59-.25.74-.64s.2-.89.2-1.54c0-.4-.05-.74-.15-1.09s-.3-.59-.54-.84c-.25-.2-.64-.3-1.14-.3-.15,0-.3,0-.45.05s-.25.05-.25.05l.05,1.59c0,.55.05.99.1,1.44.05.4.2.74.4.94s.5.35.94.35h.1Z"/>
  <path id="path30" class="cls-1" d="M104.22,16.41v.15c0,1.54-.35,2.68-1.09,3.42s-1.83,1.24-3.27,1.49l-.69-1.83c.64-.35,1.09-.69,1.39-.99s.45-.64.54-.94c.1-.35.15-.69.15-1.04V7.54h3.02v5.95c.15.1.3.15.5.2.25.05.5.1.74.1h1.24l.05,3.07h-1.34s-.15-.05-.3-.05c-.3-.1-.59-.2-.94-.4q-.1-.05,0,0h0ZM102.64,5.66c-.4,0-.74-.15-1.04-.45-.3-.3-.4-.64-.4-1.04s.15-.74.4-1.04c.3-.3.59-.4,1.04-.4.4,0,.74.15,1.04.4.3.3.4.64.4,1.04s-.15.74-.4,1.04c-.3.3-.64.45-1.04.45Z"/>
  <path id="path31" class="cls-1" d="M116.81,15.62l-.25.4c-.3.5-.74.74-1.34.74h-9.61v-3.02h8.72c.69-1.19,1.04-1.78,1.04-1.83s-.05-.1-.1-.15c-.5-.3-1.04-.64-1.64-.94-.99-.45-1.93-.64-2.87-.64-.74,0-1.44.25-2.08.74l-1.49-2.23c.89-.79,1.88-1.39,2.87-1.73.4-.15.84-.25,1.29-.25s1.04.15,1.78.4c.79.3,2.68,1.19,5.6,2.73.25.3.4.74.4,1.19,0,.25-.05.59-.1.94l-.94,1.64s.15.05.25.1c.25.05.5.1.74.1h1.24l.05,3.07h-1.34s-.15-.05-.3-.05c-.25-.05-.54-.15-.89-.35s-.69-.45-.99-.84q-.1-.1-.05,0h0Z"/>
  <path id="path32" class="cls-1" d="M121.86,16.76h-2.33v-3.02h1.44c.35,0,.54-.15.59-.4V2.04l3.07.59v11.99c-.2,1.44-1.09,2.13-2.77,2.13h0Z"/>
  <path id="path33" class="cls-1" d="M129.59,16.76h-3.07V2.64l3.07-.59v14.72Z"/>
  <path id="path34" class="cls-1" d="M143.26,19.13h-1.78c-1.14,0-2.18-.15-3.02-.45-.89-.3-1.68-.84-2.48-1.64-.74-.79-1.14-1.93-1.14-3.37,0-.79.15-1.59.45-2.33.3-.74.79-1.39,1.49-1.98l2.13,1.73c-.94.94-1.39,1.78-1.39,2.53,0,1.59,1.44,2.43,4.31,2.43,2.73,0,4.36-.15,4.81-.45.54-.3.79-.59.79-.79,0-.35-.3-.59-.84-.64h-3.27l-1.29-3.52,2.68-2.58c.99-.89,1.98-1.34,2.97-1.34,1.19,0,2.38.35,3.52,1.04l-.89,2.63c-.64-.3-1.44-.5-2.33-.5-.79,0-1.68.5-2.58,1.49.94.05,1.73.15,2.28.3.99.15,1.73.5,2.28,1.04s.79,1.24.79,1.98c0,.25-.05.45-.1.74-.3,1.19-1.09,2.08-2.33,2.73-1.19.64-2.87.94-5.05.94ZM141.63,23c-.4,0-.74-.15-1.04-.45-.3-.3-.4-.64-.4-1.04s.15-.74.4-1.04c.3-.3.59-.45,1.04-.45.4,0,.74.15,1.04.45.3.3.4.64.4,1.04s-.15.74-.4,1.04c-.3.3-.64.45-1.04.45ZM145,23c-.4,0-.74-.15-1.04-.45-.3-.3-.4-.64-.4-1.04s.15-.74.45-1.04c.3-.3.64-.45,1.04-.45s.74.15,1.04.45c.3.3.4.64.4,1.04s-.15.74-.4,1.04c-.35.3-.69.45-1.09.45Z"/>
  <path id="path35" class="cls-1" d="M157.58,16.76h-5.15v-3.02h5.05c.35,0,.64-.05.84-.15s.35-.2.35-.4c0-.94-.15-1.68-.4-2.18s-.59-.84-.89-1.04c-.35-.2-.64-.3-.89-.3-.59,0-1.09,0-1.49.05s-.74.1-.99.15c-.05,0-.15.05-.35.1v-3.12c.35-.1.74-.15,1.19-.2.5-.05.99-.1,1.49-.1.94,0,1.83.25,2.63.79.79.5,1.49,1.29,1.98,2.38.5,1.04.74,2.43.74,4.06,0,.79-.2,1.44-.59,1.83-.4.45-.89.74-1.54.94-.59.15-1.29.2-1.98.2h0Z"/>
  <path id="path36" class="cls-1" d="M168.33,16.76h-2.33c-1.68,0-2.63-.74-2.73-2.28V2.64l3.07-.59v11.3c.05.25.25.4.59.4h1.44v3.02h-.05Z"/>
  <path id="path37" class="cls-1" d="M169.62,16.76h-1.83v-3.02h1.24c.1,0,.25,0,.4-.05.2,0,.4-.1.59-.2.4-.2.64-.5.74-.94s.15-.84.15-1.34c-.05-1.59-.1-2.82-.25-3.72h3.17c.05.35.1.74.15,1.24s.05.99.05,1.49c0,1.39-.2,2.58-.59,3.57s-.94,1.73-1.59,2.23c-.59.5-1.34.74-2.23.74h0ZM172.2,6.45c-.4,0-.74-.15-1.04-.45-.3-.3-.4-.64-.4-.99,0-.4.15-.74.4-1.04.3-.3.64-.4,1.04-.4s.74.15.99.4c.3.3.45.64.45,1.04s-.15.74-.45.99c-.25.3-.59.45-.99.45Z"/>
</svg>