<?xml version="1.0" encoding="UTF-8"?><svg id="Calque_2" xmlns="http://www.w3.org/2000/svg" viewBox="0 0 1389.09 1956"><defs><style>.cls-1{fill:#043298;}.cls-2{fill:#ecad0c;}.cls-3{fill:#fdfdfd;}.cls-4{fill:#68ff35;}.cls-5{fill:#c00205;}</style></defs><g id="_Слой_1"><path class="cls-4" d="m310.36,523.29c-9.53,17.65-32.48,30.13-59.22,30.13-35.34,0-63.94-21.69-63.94-48.47s28.6-48.47,63.94-48.47c26.66,0,49.52,12.36,59.1,29.93l-26.38,5.86c-6.06-9.01-18.42-15.19-32.72-15.19-20.32,0-36.8,12.48-36.8,27.87s16.48,27.87,36.8,27.87c14.38,0,26.82-6.26,32.88-15.39l26.34,5.86Z"/><path class="cls-4" d="m1066.12,592.45v32.48c-12,0-23.63,4.12-32.96,11.71l-38.09,31.02c-8.52,6.95-18.14,12.32-28.36,15.92-10.22,3.64-21.04,5.53-32.07,5.53v-35.55c16.68.16,32.88-5.45,45.93-15.83l34.13-27.27c7.31-5.82,15.47-10.34,24.16-13.37,8.68-3.07,17.89-4.64,27.27-4.64Z"/><path class="cls-4" d="m1189.88,502.57v4.93c0,11.11-9.01,20.08-20.12,20.08h-42.01v-45.12h42.01c11.11,0,20.12,9.01,20.12,20.12Z"/><path class="cls-1" d="m1132.57,219.25c-16-29.73-35.67-52.79-56.23-70.65-45.73-39.83-105.06-60.51-165.73-60.51h-149.78c.89-4.52,1.33-9.21,1.33-14.02,0-40.92-33.16-74.08-74.08-74.08s-74.08,33.16-74.08,74.08c0,4.81.44,9.49,1.33,14.02h-116.78c-40.84,0-81.51,7.47-119.2,23.27-96.34,40.31-121.02,108.25-121.02,108.25-153.58,12-216.63,95.49-242.36,167.67C.06,431.97-3.65,480.07,3.45,526.97l93.67,619.31,58.73,388.3c4.16,27.31,7.47,54.73,10.95,82.12,8.72,68.43,34.9,116.05,64.51,148.97,3.39,3.76,6.91,7.39,10.54,10.83,35.34,33.93,81.76,54.09,130.63,57.84,5.57.44,11.15.65,16.76.65h70.2c14.3,21.61,29.16,39.5,43.67,54.29,19.79,20.2,38.98,34.58,55.26,44.67,22.66,14.02,48.79,21.45,75.37,22.01,1.13.04,2.22.04,3.35.04h109.3c6.02,0,12.04-.32,17.98-.89,18.22-1.94,36.03-6.79,52.51-14.95,31.51-15.67,58.21-39.26,78.12-60.59,24.68-26.46,38.86-49.4,38.86-49.4h89.39c.81-.04,1.58-.04,2.38-.12,58.77-2.14,100.9-28.8,130.63-61.64,51.02-56.35,65.68-130.75,65.68-130.75l64.95-431.2,98.68-655.1c38.49-338.29-253.02-332.11-253.02-332.11Zm224.14,326.26l-69.8,466.74-90.2,603.11c-5.66,37.81-19.15,74.2-40.43,105.87-2.38,3.6-4.89,7.15-7.51,10.62-1.41,1.86-2.87,3.72-4.32,5.57-29.61,37-72.42,60.47-118.8,67.29-9.33,1.41-18.82,2.1-28.4,2.1h-81.96s-7.31,12.12-20.28,28.8c-13.01,16.8-31.75,38.21-54.41,56.51-22.18,17.89-48.47,29.61-76.22,34.7-10.74,2.02-21.73,3.03-32.8,3.03h-77.51c-6.83,0-13.61-.4-20.32-1.21-27.67-3.19-54.25-13.01-77.27-28.92-17.65-12.2-36.68-28.8-53.36-50.94-8.72-11.51-16.8-24.56-23.71-39.22h-86.16c-6.95,0-13.9-.36-20.76-1.13-39.54-4.36-76.95-21.17-106.07-48.71-8.36-7.92-16.68-17.01-24.56-27.39-20.12-26.58-37.4-61.68-45.73-107.73l-99-651.99L30.44,533.47S-11.85,256.74,277.93,241.27c0,0,36.48-67.78,117.79-106.48,27.31-13.01,57.36-19.35,87.61-19.35h172.52c-8.72-6.83-15.27-16.36-18.3-27.35-1.25-4.44-1.9-9.17-1.9-14.02,0-28.96,23.47-52.43,52.43-52.43s52.43,23.47,52.43,52.43c0,4.85-.65,9.57-1.9,14.02-3.03,10.99-9.57,20.52-18.34,27.35h183.55c46.05,0,91.61,12.2,130.51,36.88,29.93,18.98,60.11,47.46,80.02,90,0,0,286.71-9.29,242.36,303.19Z"/><path class="cls-4" d="m310.36,523.29c-9.53,17.65-32.48,30.13-59.22,30.13-35.34,0-63.94-21.69-63.94-48.47s28.6-48.47,63.94-48.47c26.66,0,49.52,12.36,59.1,29.93l-26.38,5.86c-6.06-9.01-18.42-15.19-32.72-15.19-20.32,0-36.8,12.48-36.8,27.87s16.48,27.87,36.8,27.87c14.38,0,26.82-6.26,32.88-15.39l26.34,5.86Z"/><path class="cls-4" d="m1066.12,592.45v32.48c-12,0-23.63,4.12-32.96,11.71l-38.09,31.02c-8.52,6.95-18.14,12.32-28.36,15.92-10.22,3.64-21.04,5.53-32.07,5.53v-35.55c16.68.16,32.88-5.45,45.93-15.83l34.13-27.27c7.31-5.82,15.47-10.34,24.16-13.37,8.68-3.07,17.89-4.64,27.27-4.64Z"/><path class="cls-4" d="m1189.88,502.57v4.93c0,11.11-9.01,20.08-20.12,20.08h-42.01v-45.12h42.01c11.11,0,20.12,9.01,20.12,20.12Z"/><path class="cls-5" d="m860.11,339.42c0,2.34-.04,4.69-.16,7.03h-343.79c-.12-2.34-.16-4.69-.16-7.03,0-20.32,3.51-39.83,10.02-57.92,14.54-40.76,44.07-74.4,81.96-94.36h.04c23.91-12.6,51.14-19.75,80.06-19.75,32.15,0,62.25,8.85,87.98,24.2,34.05,20.28,60.51,52.03,74.04,89.92,6.5,18.1,10.02,37.61,10.02,57.92Z"/><path class="cls-5" d="m547.79,170.01c-35.99,28.32-62.85,67.09-75.74,111.49-5.53,19.03-8.48,39.1-8.48,59.82,0,1.7.04,3.43.08,5.13h-158.5c-.16-2.34-.2-4.69-.2-7.03,0-20.32,4.24-39.83,12.04-57.92,28.6-66.53,105.02-114.11,194.78-114.11,12.28,0,24.36.89,36.03,2.63Z"/><path class="cls-5" d="m1088.58,339.42c0,2.34-.04,4.69-.2,7.03h-169.05c.04-1.7.08-3.43.08-5.13,0-20.72-2.95-40.8-8.48-59.82-12.64-43.67-38.82-81.84-73.88-110.07,14.42-2.63,29.37-4.04,44.75-4.04,89.75,0,166.18,47.58,194.74,114.11,7.8,18.1,12.04,37.61,12.04,57.92Z"/><path class="cls-4" d="m310.36,523.29c-9.53,17.65-32.48,30.13-59.22,30.13-35.34,0-63.94-21.69-63.94-48.47s28.6-48.47,63.94-48.47c26.66,0,49.52,12.36,59.1,29.93l-26.38,5.86c-6.06-9.01-18.42-15.19-32.72-15.19-20.32,0-36.8,12.48-36.8,27.87s16.48,27.87,36.8,27.87c14.38,0,26.82-6.26,32.88-15.39l26.34,5.86Z"/><path class="cls-4" d="m1066.12,592.45v32.48c-12,0-23.63,4.12-32.96,11.71l-38.09,31.02c-8.52,6.95-18.14,12.32-28.36,15.92-10.22,3.64-21.04,5.53-32.07,5.53v-35.55c16.68.16,32.88-5.45,45.93-15.83l34.13-27.27c7.31-5.82,15.47-10.34,24.16-13.37,8.68-3.07,17.89-4.64,27.27-4.64Z"/><path class="cls-4" d="m1189.88,502.57v4.93c0,11.11-9.01,20.08-20.12,20.08h-42.01v-45.12h42.01c11.11,0,20.12,9.01,20.12,20.12Z"/><path class="cls-5" d="m310.36,523.29c-9.53,17.65-32.48,30.13-59.22,30.13-35.34,0-63.94-21.69-63.94-48.47s28.6-48.47,63.94-48.47c26.66,0,49.52,12.36,59.1,29.93l-26.38,5.86c-6.06-9.01-18.42-15.19-32.72-15.19-20.32,0-36.8,12.48-36.8,27.87s16.48,27.87,36.8,27.87c14.38,0,26.82-6.26,32.88-15.39l26.34,5.86Z"/><polygon class="cls-5" points="214.35 616.68 214.35 628.68 262.98 628.68 262.98 652.92 214.35 652.92 214.35 664.87 287.9 664.87 287.9 689.11 187.2 689.11 187.2 592.45 287.9 592.45 287.9 616.68 214.35 616.68"/><polygon class="cls-5" points="435.58 664.87 435.58 689.11 334.84 689.11 334.84 592.45 361.98 592.45 361.98 664.87 435.58 664.87"/><path class="cls-5" d="m542.62,592.45h-68.83v96.66h68.83c13.33,0,25.45-5.41,34.17-14.14,8.72-8.77,14.14-20.8,14.14-34.17,0-26.7-21.61-48.35-48.31-48.35Zm20.48,50.77c0,11.11-9.01,20.12-20.12,20.12h-42.01v-45.12h42.01c11.11,0,20.12,9.01,20.12,20.12v4.89Z"/><path class="cls-4" d="m1189.88,502.57v4.93c0,11.11-9.01,20.08-20.12,20.08h-42.01v-45.12h42.01c11.11,0,20.12,9.01,20.12,20.12Z"/><path class="cls-5" d="m1169.4,456.69h-68.83v96.7h68.83c13.37,0,25.41-5.41,34.17-14.18,8.72-8.73,14.14-20.84,14.14-34.17,0-26.7-21.61-48.35-48.31-48.35Zm20.48,50.81c0,11.11-9.01,20.08-20.12,20.08h-42.01v-45.12h42.01c11.11,0,20.12,9.01,20.12,20.12v4.93Z"/><path class="cls-3" d="m1189.88,502.57v4.93c0,11.11-9.01,20.08-20.12,20.08h-42.01v-45.12h42.01c11.11,0,20.12,9.01,20.12,20.12Z"/><polygon class="cls-5" points="899.05 592.45 899.05 689.11 873.16 689.11 871.91 687.86 813.7 629.69 813.7 689.11 786.56 689.11 786.56 592.45 813.34 592.45 813.7 592.81 871.91 651.02 871.91 592.45 899.05 592.45"/><polygon class="cls-5" points="664.85 616.68 664.85 628.68 713.49 628.68 713.49 652.92 664.85 652.92 664.85 664.87 738.41 664.87 738.41 689.11 637.71 689.11 637.71 592.45 738.41 592.45 738.41 616.68 664.85 616.68"/><polygon class="cls-5" points="1131.19 616.68 1131.19 628.68 1179.83 628.68 1179.83 652.92 1131.19 652.92 1131.19 664.87 1204.75 664.87 1204.75 689.11 1104.05 689.11 1104.05 592.45 1204.75 592.45 1204.75 616.68 1131.19 616.68"/><path class="cls-5" d="m1066.12,592.45v32.48c-12,0-23.63,4.12-32.96,11.71l-38.09,31.02c-8.52,6.95-18.14,12.32-28.36,15.92-10.22,3.64-21.04,5.53-32.07,5.53v-35.55c16.68.16,32.88-5.45,45.93-15.83l34.13-27.27c7.31-5.82,15.47-10.34,24.16-13.37,8.68-3.07,17.89-4.64,27.27-4.64Z"/><path class="cls-4" d="m895.42,1531.55c-.12.32-.24.69-.4,1.01v-1.49c.12.16.28.32.4.48Z"/><path class="cls-4" d="m895.42,1531.55c-.12.32-.24.69-.4,1.01v-1.49c.12.16.28.32.4.48Z"/><path class="cls-4" d="m895.42,1531.55c-.12.32-.24.69-.4,1.01v-1.49c.12.16.28.32.4.48Z"/><path class="cls-5" d="m241.85,754.18v809.6c-2.63-21.21-5.37-42.41-8.56-63.58l-112.09-746.02h120.65Z"/><path class="cls-2" d="m1114.35,242.32c-19.91-42.53-50.09-71.01-80.02-90-38.9-24.68-84.46-36.88-130.51-36.88h-183.55c8.77-6.83,15.31-16.36,18.34-27.35,1.25-4.44,1.9-9.17,1.9-14.02,0-28.96-23.51-52.43-52.43-52.43s-52.43,23.47-52.43,52.43c0,4.85.65,9.57,1.9,14.02,3.03,10.99,9.57,20.52,18.3,27.35h-172.52c-30.25,0-60.31,6.34-87.61,19.35-81.31,38.7-117.79,106.48-117.79,106.48C-11.85,256.74,30.44,533.47,30.44,533.47l66.69,439.15,99,651.99c8.32,46.05,25.61,81.15,45.73,107.73,7.88,10.38,16.2,19.47,24.56,27.39,29.12,27.55,66.53,44.35,106.07,48.71,6.87.77,13.81,1.13,20.76,1.13h86.16c6.91,14.66,14.99,27.71,23.71,39.22,16.68,22.14,35.71,38.74,53.36,50.94,23.02,15.91,49.6,25.73,77.27,28.92,6.71.81,13.49,1.21,20.32,1.21h77.51c11.07,0,22.05-1.01,32.8-3.03,27.75-5.09,54.05-16.8,76.22-34.7,22.66-18.3,41.4-39.71,54.41-56.51,12.97-16.68,20.28-28.8,20.28-28.8h81.96c9.57,0,19.07-.69,28.4-2.1,46.37-6.83,89.19-30.29,118.8-67.29,1.45-1.86,2.91-3.72,4.32-5.57,2.63-3.47,5.13-7.03,7.51-10.62,21.29-31.67,34.78-68.06,40.43-105.87l90.2-603.11,69.8-466.74c44.35-312.48-242.36-303.19-242.36-303.19Zm-232.54-74.93c89.75,0,166.18,47.58,194.74,114.11,7.8,18.1,12.04,37.61,12.04,57.92,0,2.34-.04,4.69-.2,7.03h-169.05c.04-1.7.08-3.43.08-5.13,0-20.72-2.95-40.8-8.48-59.82-12.64-43.67-38.82-81.84-73.88-110.07,14.42-2.63,29.37-4.04,44.75-4.04Zm-273.83,19.75h.04c23.91-12.6,51.14-19.75,80.06-19.75,32.15,0,62.25,8.85,87.98,24.2,34.05,20.28,60.51,52.03,74.04,89.92,6.5,18.1,10.02,37.61,10.02,57.92,0,2.34-.04,4.69-.16,7.03h-343.79c-.12-2.34-.16-4.69-.16-7.03,0-20.32,3.51-39.83,10.02-57.92,14.54-40.76,44.07-74.4,81.96-94.36Zm-290.99,94.36c28.6-66.53,105.02-114.11,194.78-114.11,12.28,0,24.36.89,36.03,2.63-35.99,28.32-62.85,67.09-75.74,111.49-5.53,19.03-8.48,39.1-8.48,59.82,0,1.7.04,3.43.08,5.13h-158.5c-.16-2.34-.2-4.69-.2-7.03,0-20.32,4.24-39.83,12.04-57.92Zm994.32,247.17l-26.54,178.78-2.34,15.79-4.61,30.94-121.54,819.01-6.91,46.53c-5.53,37.24-22.38,72.18-49.32,98.52-18.46,18.06-42.57,33.16-71.98,34.25h-129.95s-1.09,1.7-3.11,4.73c-8.81,13.13-35.26,50.98-66.16,80.3-18.1,17.17-40.43,28.88-64.47,34.13-9.61,2.14-19.51,3.23-29.53,3.23h-91.01c-3.39,0-6.79-.24-10.1-.69-12.97-1.7-25.37-6.66-35.99-14.54-23.51-17.41-60.47-50.53-90.16-103.04h-114.11c-7.07,0-14.1-.57-21-1.7-21.85-3.51-42.53-12.56-59.9-26.58-27.18-21.89-57.32-57.92-64.27-112.7-2.22-17.29-4.32-34.58-6.46-51.86-2.63-21.21-5.37-42.41-8.56-63.58l-112.09-746.02-4.65-30.94-2.38-15.79-17.57-116.98c-1.86-12.24-3.8-24.44-5.78-36.6-6.71-41.89-26.22-231.65,164.76-255.2,0,0-13.25,47.91-7.19,75.49,2.3,10.58,11.79,18.02,22.62,18.02h850.11c8.44,0,16.04-5.01,19.35-12.76,6.18-14.54,11.79-41.81-2.42-83.82,0,0,203.5,2.06,173.25,233.07Z"/><path class="cls-3" d="m1138.06,295.6c14.22,42.01,8.6,69.27,2.42,83.82-3.31,7.76-10.91,12.76-19.35,12.76H271.02c-10.83,0-20.32-7.43-22.62-18.02-6.06-27.59,7.19-75.49,7.19-75.49-190.98,23.55-171.47,213.32-164.76,255.2,1.98,12.16,3.92,24.36,5.78,36.6l17.57,116.98,2.38,15.79,4.65,30.94h1156.62l4.61-30.94,2.34-15.79,26.54-178.78c30.25-231.01-173.25-233.07-173.25-233.07Zm-850.16,321.09h-73.56v12h48.63v24.24h-48.63v11.96h73.56v24.24h-100.7v-96.66h100.7v24.24Zm-36.76-63.26c-35.34,0-63.94-21.69-63.94-48.47s28.6-48.47,63.94-48.47c26.66,0,49.52,12.36,59.1,29.93l-26.38,5.86c-6.06-9.01-18.42-15.19-32.72-15.19-20.32,0-36.8,12.48-36.8,27.87s16.48,27.87,36.8,27.87c14.38,0,26.82-6.26,32.88-15.39l26.34,5.86c-9.53,17.65-32.48,30.13-59.22,30.13Zm184.44,135.68h-100.74v-96.66h27.14v72.42h73.6v24.24Zm141.21-14.14c-8.73,8.73-20.84,14.14-34.17,14.14h-68.83v-96.66h68.83c26.7,0,48.31,21.65,48.31,48.35,0,13.37-5.41,25.41-14.14,34.17Zm161.61-58.29h-73.56v12h48.63v24.24h-48.63v11.96h73.56v24.24h-100.7v-96.66h100.7v24.24Zm-339.34-84.58c-7.07,0-12.85-5.74-12.85-12.85v-28.44c0-4.65,2.46-8.68,6.1-10.91,1.98-1.25,4.28-1.94,6.75-1.94h588.97c3.72,0,7.07,1.58,9.41,4.08,2.14,2.26,3.43,5.37,3.43,8.77v28.44c0,7.11-5.74,12.85-12.85,12.85H399.07Zm499.99,157.01h-25.89l-1.25-1.25-58.21-58.17v59.42h-27.14v-96.66h26.78l.36.36,58.21,58.21v-58.57h27.14v96.66Zm167.07-64.18c-12,0-23.63,4.12-32.96,11.71l-38.09,31.02c-8.52,6.95-18.14,12.32-28.36,15.92-10.22,3.64-21.04,5.53-32.07,5.53v-35.55c16.68.16,32.88-5.45,45.93-15.83l34.13-27.27c7.31-5.82,15.47-10.34,24.16-13.37,8.68-3.07,17.89-4.64,27.27-4.64v32.48Zm138.63-8.24h-73.56v12h48.63v24.24h-48.63v11.96h73.56v24.24h-100.7v-96.66h100.7v24.24Zm-1.17-77.47c-8.77,8.77-20.8,14.18-34.17,14.18h-68.83v-96.7h68.83c26.7,0,48.31,21.65,48.31,48.35,0,13.33-5.41,25.45-14.14,34.17Z"/><path class="cls-3" d="m563.1,638.33v4.89c0,11.11-9.01,20.12-20.12,20.12h-42.01v-45.12h42.01c11.11,0,20.12,9.01,20.12,20.12Z"/><path class="cls-2" d="m1000.88,490.82v28.44c0,7.11-5.74,12.85-12.85,12.85H399.07c-7.07,0-12.85-5.74-12.85-12.85v-28.44c0-4.65,2.46-8.68,6.1-10.91,1.98-1.25,4.28-1.94,6.75-1.94h588.97c3.72,0,7.07,1.58,9.41,4.08,2.14,2.26,3.43,5.37,3.43,8.77Z"/><path class="cls-1" d="m372.49,754.18v1000.74c-21.85-3.51-42.53-12.56-59.9-26.58-27.18-21.89-57.32-57.92-64.27-112.7-2.22-17.29-4.32-34.58-6.46-51.86v-809.6h130.63Z"/><path class="cls-5" d="m503.12,1338.79c-21.53,35.3-33.97,76.99-33.97,121.62s12.44,86.32,33.97,121.62v174.58h-109.63c-7.07,0-14.1-.57-21-1.7v-1000.74h130.63v584.61Z"/><path class="cls-1" d="m895.01,1350.75v-596.57h-130.63v486.13c-21.69-7.03-44.76-10.83-68.71-10.83-21.45,0-42.21,3.03-61.92,8.72v-484.03h-130.63v584.61c-21.53,35.3-33.97,76.99-33.97,121.62s12.44,86.32,33.97,121.62v174.58h4.48c29.69,52.51,66.65,85.63,90.16,103.04,10.62,7.88,23.02,12.85,35.99,14.54v-191.63c19.71,5.7,40.47,8.73,61.92,8.73,23.95,0,47.02-3.8,68.71-10.83v191.18c24.03-5.25,46.37-16.97,64.47-34.13,30.9-29.33,57.36-67.17,66.16-80.3v-187.14c17.33-32.64,27.14-70,27.14-109.67s-9.82-77.03-27.14-109.67Zm-252.66-97.23c17.37-4.6,35.59-7.07,54.37-7.07,23.67,0,46.41,3.88,67.66,11.07,53.28,17.93,97.06,56.51,121.83,106.19-44.35-15.51-86-22.74-121.83-25.41-72.95-5.49-122.03,7.76-122.03,7.76v-92.54Zm-78.28,39.63c17.57-14.14,37.4-25.53,58.93-33.49-3.15,25.53-5.13,71.21,10.74,118.19,9.29,27.63,24.8,55.7,49.85,80.34,0,0-14.7,48.71-49.85,74.08-4.04,2.95-8.32,5.57-12.93,7.76,0,0-89.51-86.32-56.75-246.88Zm-60.95,250.88c-11.63-26.26-18.14-55.3-18.14-85.84s6.46-59.58,18.14-85.84c9.9-22.38,23.59-42.74,40.23-60.19-9.05,52.35-10.83,145.86,59.14,238.2,0,0-19.55,25.21-73.11,37.61-10.42-13.45-19.27-28.19-26.26-43.95Zm130.63,116.33c-34.33-10.62-64.95-29.85-89.35-55.06,23.19-5.13,55.66-17.41,89.35-46.41,24.07-20.68,48.75-49.85,71.17-91.05,0,0,28.32-4.4,59.46-2.02,16.36,1.21,33.57,4.32,47.78,10.95,0,0-13.53,39.91-47.78,84.58-27.83,36.35-69.4,75.9-128.57,99.65-.69-.2-1.37-.4-2.06-.65Zm261.26-127.8c-22.26,59.34-70.36,106.03-130.63,126.31-21.25,7.19-43.99,11.07-67.66,11.07-9.17,0-18.18-.57-27.02-1.7,27.83-14.58,61.76-37.85,94.68-76.06,23.47-27.18,46.41-61.92,66.37-106.44,0,0,33.61,7.8,64.27,45.32.12.16.28.32.4.48-.12.32-.24.69-.4,1.01Zm0-30.01c-26.22-20.8-71.01-48.47-130.63-56.03-19.67-2.54-40.96-2.87-63.74,0,0,0-50.05-50.85-54.17-82.48,0,0,49.89-12.8,117.91-5.49,39.5,4.24,85.11,15.27,130.63,39.46,1.86,1.01,3.76,2.06,5.66,3.11,5.09,18.18,7.8,37.32,7.8,57.08,0,17.37-2.1,34.25-6.06,50.41-2.26-1.94-4.73-3.96-7.39-6.06Z"/><path class="cls-2" d="m602.49,1550.37s-19.55,25.21-73.11,37.61c-10.42-13.45-19.27-28.19-26.26-43.95-11.63-26.26-18.14-55.3-18.14-85.84s6.46-59.58,18.14-85.84c9.9-22.38,23.59-42.74,40.23-60.19-9.05,52.35-10.83,145.86,59.14,238.2Z"/><path class="cls-2" d="m683.6,1458.19s-14.7,48.71-49.85,74.08c-4.04,2.95-8.32,5.57-12.93,7.76,0,0-89.51-86.32-56.75-246.88,17.57-14.14,37.4-25.53,58.93-33.49-3.15,25.53-5.13,71.21,10.74,118.19,9.29,27.63,24.8,55.7,49.85,80.34Z"/><path class="cls-5" d="m764.38,754.18v486.13c-21.69-7.03-44.76-10.83-68.71-10.83-21.45,0-42.21,3.03-61.92,8.72v-484.03h130.63Z"/><path class="cls-2" d="m895.01,1531.06v1.49c-22.26,59.34-70.36,106.03-130.63,126.31-21.25,7.19-43.99,11.07-67.66,11.07-9.17,0-18.18-.57-27.02-1.7,27.83-14.58,61.76-37.85,94.68-76.06,23.47-27.18,46.41-61.92,66.37-106.44,0,0,33.61,7.8,64.27,45.32Z"/><path class="cls-5" d="m764.38,1680.48v191.18c-9.61,2.14-19.51,3.23-29.53,3.23h-91.01c-3.39,0-6.79-.24-10.1-.69v-191.63c19.71,5.7,40.47,8.73,61.92,8.73,23.95,0,47.02-3.8,68.71-10.83Z"/><path class="cls-2" d="m812.17,1476.78s-13.53,39.91-47.78,84.58c-27.83,36.35-69.4,75.9-128.57,99.65-.69-.2-1.37-.4-2.06-.65-34.33-10.62-64.95-29.85-89.35-55.06,23.19-5.13,55.66-17.41,89.35-46.41,24.07-20.68,48.75-49.85,71.17-91.05,0,0,28.32-4.4,59.46-2.02,16.36,1.21,33.57,4.32,47.78,10.95Z"/><path class="cls-2" d="m886.21,1363.71c-44.35-15.51-86-22.74-121.83-25.41-72.95-5.49-122.03,7.76-122.03,7.76v-92.54c17.37-4.6,35.59-7.07,54.37-7.07,23.67,0,46.41,3.88,67.66,11.07,53.28,17.93,97.06,56.51,121.83,106.19Z"/><path class="cls-4" d="m895.42,1531.55c-.12.32-.24.69-.4,1.01v-1.49c.12.16.28.32.4.48Z"/><path class="cls-2" d="m908.46,1458.19c0,17.37-2.1,34.25-6.06,50.41-2.26-1.94-4.73-3.96-7.39-6.06-26.22-20.8-71.01-48.47-130.63-56.03-19.67-2.54-40.96-2.87-63.74,0,0,0-50.05-50.85-54.17-82.48,0,0,49.89-12.8,117.91-5.49,39.5,4.24,85.11,15.27,130.63,39.46,1.86,1.01,3.76,2.06,5.66,3.11,5.09,18.18,7.8,37.32,7.8,57.08Z"/><path class="cls-5" d="m1025.64,754.18v998.32h-127.52s-1.09,1.7-3.11,4.73v-187.14c17.33-32.64,27.14-70,27.14-109.67s-9.82-77.03-27.14-109.67v-596.57h130.63Z"/><path class="cls-1" d="m1156.28,754.18v819.01l-6.91,46.53c-5.53,37.24-22.38,72.18-49.32,98.52-18.46,18.06-42.57,33.16-71.98,34.25h-2.42v-998.32h130.63Z"/><polygon class="cls-5" points="1277.82 754.18 1156.28 1573.19 1156.28 754.18 1277.82 754.18"/></g></svg>