<?xml version="1.0" encoding="UTF-8"?><svg id="uuid-5d2e19d4-48fe-4f60-a03e-26599f0ac536" xmlns="http://www.w3.org/2000/svg" xmlns:xlink="http://www.w3.org/1999/xlink" viewBox="0 0 74.6 115.02">
<title>AD Ceuta FC logo - Brandlogos.net</title><defs><clipPath id="uuid-28d61688-eac2-470f-a89d-bd3ed189e5d2"><path d="M63.62,75.43c-.07.01-1.12-.48-1.12-.48l-9.21-6.52v10.54s10.25-.01,10.22-.06.11-3.47.11-3.47Z" style="fill:none;"/></clipPath></defs><g id="uuid-e8d6a3b9-dc97-4078-a574-e749bcdd2b34"><path d="M10.5,89.29c0-17.07,0-34.15,0-51.22,17.49,0,34.98,0,52.47,0,0,16.96,0,33.92,0,50.88.02,5.54-1.78,11.07-5.07,15.52-2.45,3.35-5.73,6.09-9.46,7.89-4.76,2.32-10.22,3.08-15.46,2.38-5.32-.69-10.41-3.07-14.3-6.76-5.11-4.78-8.14-11.7-8.18-18.7Z" style="fill:#231f20; stroke:#231f20; stroke-miterlimit:10; stroke-width:.03px;"/><path d="M53.19,68.35c.02,6.47,0,13.05,0,19.52.01,2.13-.39,4.27-1.19,6.25-1.3,3.24-3.66,6.04-6.66,7.84-3.45,2.09-7.67,2.77-11.62,2.08-3.24-.55-6.3-2.11-8.62-4.44-2.93-2.9-4.7-6.94-4.81-11.06-.02-.96,0-1.92,0-2.88,0-13.52-.01-27.1,0-40.62M20.3,45.03c-.23-.18-.5-.38-.73-.53v-.04s-.13-.07-.17-.09c-.2-.15-.41-.29-.66-.35l.04-.16-.08.02c-.21-.18-.45-.37-.75-.36-.02-.23-.21-.34-.38-.45-.04-.02-.12-.07-.16-.09v-.02c-.32-.22-.64-.45-.97-.67-.04-.03-.11-.08-.15-.1v-.02c-.18-.12-.34-.27-.55-.34-.04-.04-.12-.12-.16-.15-.15-.12-.33-.21-.52-.27-.04-.06-.14-.17-.18-.23-.06-.05-.12-.1-.18-.15-.9-.59-1.76-1.24-2.65-1.86-.4-.26-.76-.59-1.19-.78-.01,14.67,0,29.34,0,44.01,0,2.41-.01,4.81.01,7.22.1,6.3,2.67,12.5,7.01,17.07,3.84,4.09,9.08,6.8,14.61,7.63,5.07.76,10.39.18,15.08-1.94,3.35-1.49,6.35-3.73,8.75-6.49,3.92-4.5,6.2-10.4,6.29-16.37.01-4.75,0-14.47,0-14.47,0,0-.25-.18-.43-.32-.76-.51-8.77-6.2-9.01-6.37l-32.88-23.32Z" style="fill:#da3620; stroke:#231f20; stroke-miterlimit:10; stroke-width:.03px;"/><path d="M11.68,38.43c16.98,12.05,33.97,24.09,50.94,36.15,0-12.05,0-24.1,0-36.15-16.98,0-33.96,0-50.94,0Z" style="fill:#fff; stroke:#231f20; stroke-miterlimit:10; stroke-width:.03px;"/><path d="M36.76,70.47c5.36,3.56,10.72,7.11,16.08,10.67,0-3.55,0-7.1,0-10.64-5.36-.01-10.72-.03-16.08-.03Z" style="fill:#fff; stroke:#231f20; stroke-miterlimit:10; stroke-width:.03px;"/><path d="M35.74,71.15c-5.02,3.35-10.03,6.72-15.05,10.06-.02,1.25,0,2.5,0,3.74.02,2.1-.12,4.22.33,6.29.75,3.6,2.78,6.92,5.66,9.21,2.83,2.27,6.46,3.46,10.09,3.44,0-1.12,0-2.25,0-3.37,2.67.02,5.32-.91,7.4-2.58,2.86-2.26,4.57-5.89,4.44-9.54-.06-3.67-1.97-7.24-4.97-9.34-1.99-1.43-4.43-2.19-6.87-2.19,0-2.11-.02-4.22.01-6.34-.38.14-.69.41-1.03.62Z" style="fill:#fff; stroke:#231f20; stroke-miterlimit:10; stroke-width:.03px;"/><path d="M20.35,41c.03-1.05.82-2.13,1.92-2.19,3,0,6.01,0,9.01,0,1.17.02,2.01,1.2,1.99,2.31,0,3.99-.01,7.97.01,11.96-.62-.44-1.23-.89-1.85-1.33,0-2.37,0-4.75,0-7.12-3.02,0-6.03,0-9.05,0-.01.3-.01.61-.01.91-.68-.49-1.36-.98-2.03-1.47,0-1.02-.01-2.03,0-3.05Z" style="fill:#231f20; stroke:#231f20; stroke-miterlimit:10; stroke-width:.03px;"/><path d="M22.37,42.66c3.02,0,6.05,0,9.07,0,0-.33,0-.68-.15-.98-.23-.51-.78-.84-1.34-.82-2.08,0-4.15,0-6.23,0-.9.02-1.47.96-1.35,1.79Z" style="fill:#fff; stroke:#231f20; stroke-miterlimit:10; stroke-width:.03px;"/><path d="M34.47,38.8h10.27c.46,0,.94-.05,1.36.15.83.36,1.31,1.28,1.32,2.16,0,7.38,0,14.75,0,22.13-4.31-3.11-8.63-6.21-12.94-9.31,0-5.04.01-10.08-.01-15.12Z" style="fill:#231f20; stroke:#231f20; stroke-miterlimit:10; stroke-width:.03px;"/><path d="M36.42,42.32c0,3.82,0,7.63,0,11.45,3.02,2.12,6.04,4.21,9.06,6.33,0-5.74,0-11.47,0-17.21-.01-.39.05-.8-.12-1.17-.21-.5-.73-.87-1.28-.86-1.89,0-3.79,0-5.68,0-.3,0-.6-.02-.89.04-.63.15-1.1.77-1.08,1.42Z" style="fill:#fff; stroke:#231f20; stroke-miterlimit:10; stroke-width:.03px;"/><path d="M48.63,41.12c-.01-1.11.82-2.3,2.01-2.32,3.01,0,6.01,0,9.02,0,1.1.07,1.87,1.15,1.91,2.2.02.85,0,1.71,0,2.56-.65,0-1.3,0-1.95,0-.05-.66.14-1.39-.21-2-.24-.42-.71-.71-1.2-.7-2.08,0-4.16,0-6.23,0-.78-.02-1.44.7-1.41,1.47,0,6.89-.01,13.79,0,20.68,1.1.86,2.28,1.62,3.41,2.45,1.88,1.33,3.76,2.66,5.64,3.99,0-1.02,0-2.04,0-3.06.65,0,1.3,0,1.95,0,0,2.33,0,4.67,0,7-4.31-3.11-8.64-6.2-12.94-9.32.01-7.65,0-15.31,0-22.96Z" style="fill:#231f20; stroke:#231f20; stroke-miterlimit:10; stroke-width:.03px;"/><path d="M35.24,77.35c2.48-.32,5.06.18,7.23,1.42,2.98,1.69,5.12,4.79,5.62,8.18.4,2.62-.12,5.37-1.48,7.64-1.63,2.77-4.49,4.78-7.65,5.38-2.71.54-5.61.04-8-1.36-2.8-1.62-4.83-4.48-5.45-7.66-.54-2.73-.05-5.66,1.37-8.07,1.75-3,4.92-5.11,8.36-5.54Z" style="fill:#231f20; stroke:#231f20; stroke-miterlimit:10; stroke-width:.03px;"/><path d="M27.14,82.93c.74-.04,1.48-.07,2.22-.11,1.07-1.34,2.51-2.37,4.11-2.98.27-.69.54-1.38.81-2.07-2.95.66-5.59,2.57-7.15,5.16Z" style="fill:#fff; stroke:#231f20; stroke-miterlimit:10; stroke-width:.03px;"/><path d="M39.23,77.78c.27.69.54,1.38.82,2.07,1.51.56,2.88,1.51,3.92,2.75.09.09.17.25.33.22.69.04,1.38.06,2.07.1-1.55-2.59-4.19-4.49-7.14-5.14Z" style="fill:#fff; stroke:#231f20; stroke-miterlimit:10; stroke-width:.03px;"/><path d="M39.92,80.08c-.98.49-1.98.95-2.97,1.44,0,1.22-.01,2.44,0,3.67.98.81,2.06,1.51,3.07,2.3,1.19-.4,2.36-.82,3.55-1.23.14-1.07.26-2.15.41-3.22-1.05-1.33-2.47-2.37-4.06-2.94Z" style="fill:#fff; stroke:#231f20; stroke-miterlimit:10; stroke-width:.03px;"/><path d="M29.54,82.98c.11,1.09.27,2.18.4,3.27,1.18.41,2.36.82,3.53,1.23,1.03-.76,2.06-1.51,3.09-2.27,0-1.23,0-2.46,0-3.7-1-.48-1.99-.95-2.99-1.44-1.58.57-2.97,1.61-4.04,2.9Z" style="fill:#fff; stroke:#231f20; stroke-miterlimit:10; stroke-width:.03px;"/><path d="M29.78,86.57c-.73.97-1.47,1.94-2.2,2.91.13,1.54.65,3.04,1.5,4.33,1.12.19,2.24.37,3.36.58.73-.99,1.43-2,2.15-2.99-.4-1.18-.79-2.37-1.19-3.56-1.21-.42-2.42-.85-3.63-1.27Z" style="fill:#fff; stroke:#231f20; stroke-miterlimit:10; stroke-width:.03px;"/><path d="M40.09,87.85c-.39,1.18-.78,2.36-1.18,3.54.71,1,1.43,1.99,2.14,2.99,1.11-.2,2.23-.36,3.34-.58.9-1.26,1.37-2.79,1.53-4.33-.76-.97-1.53-1.94-2.29-2.91-1.18.43-2.36.85-3.54,1.28Z" style="fill:#fff; stroke:#231f20; stroke-miterlimit:10; stroke-width:.03px;"/><path d="M47.96,88.18c-.59.46-1.19.91-1.78,1.36-.13,1.57-.7,3.08-1.52,4.41.17.71.4,1.4.59,2.1,1.87-2.15,2.85-5.03,2.71-7.88Z" style="fill:#fff; stroke:#231f20; stroke-miterlimit:10; stroke-width:.03px;"/><path d="M25.55,88.18c-.14,2.84.84,5.73,2.72,7.87.19-.71.4-1.41.6-2.11-.87-1.31-1.4-2.84-1.54-4.4-.59-.45-1.19-.91-1.78-1.36Z" style="fill:#fff; stroke:#231f20; stroke-miterlimit:10; stroke-width:.03px;"/><path d="M32.69,94.67c.61.99,1.21,1.99,1.82,2.98,1.47.34,3.07.41,4.52-.04.62-.97,1.2-1.96,1.8-2.93-.73-1.03-1.44-2.06-2.17-3.09-1.27,0-2.54,0-3.81,0-.72,1.03-1.44,2.06-2.17,3.09Z" style="fill:#fff; stroke:#231f20; stroke-miterlimit:10; stroke-width:.03px;"/><path d="M32.39,99.05c2.75,1.18,5.98,1.18,8.73,0-.69-.38-1.37-.78-2.06-1.16-1.51.37-3.11.38-4.61,0-.69.38-1.37.78-2.07,1.16Z" style="fill:#fff; stroke:#231f20; stroke-miterlimit:10; stroke-width:.03px;"/><path d="M22.33,27.58c.35-.24.79-.16,1.17-.05.74.2,1.5.34,2.23.58-.33.39-.78.63-1.17.94-.39.27-.75.6-1.17.83-.31.16-.67.08-.99,0-.75-.2-1.52-.36-2.27-.58.14-.2.33-.36.54-.49.57-.39,1.1-.83,1.67-1.22Z" style="fill:#fff; stroke:#231f20; stroke-miterlimit:10; stroke-width:.03px;"/><path d="M50.23,27.69c.57-.1,1.18-.44,1.74-.16.53.32,1,.73,1.5,1.08.27.22.62.37.78.69-.84.23-1.69.43-2.54.64-.38.11-.77-.05-1.07-.29-.66-.5-1.34-.97-1.98-1.48.47-.3,1.05-.31,1.57-.48Z" style="fill:#fff; stroke:#231f20; stroke-miterlimit:10; stroke-width:.03px;"/><path d="M35.11,26.38c1.24-.07,2.49,0,3.74-.03.59-.04,1.24.28,1.43.87.18.48-.05,1.02-.47,1.3-.33.25-.77.27-1.17.27-1.08-.01-2.16,0-3.24,0-.67.01-1.38-.53-1.33-1.24-.01-.58.5-1.05,1.04-1.15Z" style="fill:#fff; stroke:#231f20; stroke-miterlimit:10; stroke-width:.03px;"/><path d="M12.24,32.93c-1.04-.45-1.25-1.9-.57-2.75.21.91.39,1.83.57,2.75Z" style="fill:#fff; stroke:#231f20; stroke-miterlimit:10; stroke-width:.03px;"/><path d="M62.8,30.18c.68.84.48,2.3-.57,2.74.18-.92.37-1.83.57-2.74Z" style="fill:#fff; stroke:#231f20; stroke-miterlimit:10; stroke-width:.03px;"/><path d="M14.71,65.18c0,.22-.01.43-.02.65.05.04.15.11.2.15-.04.88.05,1.76-.04,2.64-.08,0-.24.02-.33.03,0-.23-.01-.46-.03-.68-.19,0-.38,0-.56.01,0-.46,0-.92,0-1.38.05-.04.14-.11.19-.14,0-.19,0-.39-.02-.58-.15-.09-.41-.1-.52.07-.1.22-.2-.04-.26-.11-.14,0-.27-.01-.41-.01-.02.06-.07.18-.09.24-.07-.08-.15-.16-.22-.24-.15,0-.3,0-.45,0,0,.22,0,.43,0,.65.04.03.12.09.16.12.04.46,0,.93,0,1.39-.17,0-.37.02-.54.01-.02.51,0,.99.01,1.5.18,0,.36,0,.54,0,.05.97-.15,1.93-.27,2.89-.01.15-.1.22-.27.23,0,.18,0,.36,0,.55,3.05,0,5.65,0,7.8,0,0-.18,0-.37,0-.55-.06-.01-.19-.04-.26-.06-.12-1.01-.35-2.02-.29-3.04.1,0,.28,0,.54-.01,0-.5.01-1.01,0-1.51-.18,0-.36,0-.54,0,0-.46,0-.92,0-1.38.05-.04.14-.11.19-.14,0-.21,0-.42,0-.62-.14.01-.31-.04-.44.03-.09.02-.19.28-.27.08-.1-.16-.31-.1-.46-.12-.06.29-.24.18-.35.01-.15,0-.3,0-.45,0,0,.21,0,.43,0,.64.04.03.12.1.15.13.05.45,0,.91.01,1.37-.19,0-.39,0-.58,0,0,.22,0,.43-.01.65-.09,0-.27,0-.36,0,0-.83,0-1.65,0-2.48-.01-.14.05-.25.18-.32,0-.21,0-.42,0-.63-.15,0-.3-.02-.45-.03-.05.06-.14.19-.18.26-.04-.06-.12-.19-.16-.25-.12,0-.25,0-.37,0-.04.06-.11.17-.14.23-.07-.07-.15-.15-.22-.22-.14,0-.29,0-.43,0Z" style="fill:#231f20;"/><path d="M16.47,42.29c.33.21.64.45.97.67v.02c0,.3,0,.61,0,.91-.2,0-.39.02-.59.03,0,.21,0,.43-.01.64h-.36c-.01-.76.02-1.51-.01-2.27Z" style="fill:#da3620; stroke:#231f20; stroke-miterlimit:10; stroke-width:.03px;"/><path d="M36.05,2.16c.26-.64.75-1.14,1.24-1.61.59.58,1.24,1.22,1.36,2.07.02.11.08.21.17.29.65-.34,1.43-.43,2.12-.17.03.32.08.65.02.96-.06.29-.35.48-.33.79.35.06.73.12.99.39-.98.5-2.02,1.07-2.54,2.09-.25-.17-.52-.3-.78-.47.16-.68.47-1.32.65-1.99-.24.13-.35.38-.48.61-.22.41-.39.85-.54,1.29-.14-.01-.29-.03-.43-.04-.06-1.33-.09-2.66-.11-3.99-.02-.15.04-.37-.18-.4-.03,1.46-.07,2.93-.13,4.39-.14.01-.29.03-.43.04-.24-.68-.5-1.36-.96-1.93-.04.12-.03.24.02.35.21.56.43,1.12.57,1.7-.28.11-.54.26-.78.43-.51-1.01-1.55-1.61-2.54-2.08.25-.29.64-.34.99-.41.01-.3-.27-.49-.33-.77-.07-.33-.02-.66.01-.99.7-.25,1.47-.17,2.12.17.22-.19.17-.5.28-.75Z" style="fill:#fff; stroke:#231f20; stroke-miterlimit:10; stroke-width:.03px;"/><path d="M32.08,6.31c.46-.14.97-.21,1.42,0,.59.27,1.11.67,1.61,1.08-.23.32-.42.66-.54,1.03-.29-.13-.58-.29-.88-.4.17.32.53.46.82.65-.02.19-.03.37-.05.56-1.04.07-2.09.05-3.13.13-.03.03-.1.1-.13.13,1.1.05,2.19.1,3.29.13.08.35.21.7.37,1.02-.27.2-.7.26-.85.59.35-.08.7-.21,1.04-.33.08.1.17.19.26.29-.91.79-1.97,1.62-3.25,1.54.06-.41.2-.8.27-1.21l-.07-.09c-.53-.2-1.08-.35-1.55-.67-.57-.33-.86-.95-1.33-1.4.46-.39.72-.98,1.23-1.31.49-.35,1.07-.52,1.63-.72.19-.31-.12-.69-.16-1.03Z" style="fill:#fff; stroke:#231f20; stroke-miterlimit:10; stroke-width:.03px;"/><path d="M41.09,6.3c.44-.2.94-.12,1.4,0-.01.34-.36.74-.15,1.05.54.19,1.1.36,1.57.69.55.33.82.93,1.29,1.35-.47.43-.75,1.05-1.32,1.38-.48.32-1.03.48-1.56.68l-.07.1c.08.41.21.8.27,1.21-1.28.08-2.34-.75-3.25-1.54.09-.1.17-.19.26-.29.34.13.69.26,1.05.32-.2-.3-.58-.38-.87-.58.16-.32.29-.66.37-1.02,1.1-.03,2.19-.09,3.29-.13-.07-.11-.17-.16-.3-.16-.99-.05-1.98-.06-2.97-.11-.01-.19-.03-.37-.04-.56.3-.18.63-.34.83-.64-.31.09-.6.26-.89.39-.12-.37-.31-.72-.54-1.04.5-.42,1.02-.81,1.62-1.08Z" style="fill:#fff; stroke:#231f20; stroke-miterlimit:10; stroke-width:.03px;"/><path d="M36.65,6.76c1.35-.39,2.88.58,3.09,1.97.27,1.27-.63,2.62-1.89,2.89-.9.22-1.91-.12-2.5-.84-.6-.7-.74-1.73-.38-2.57.3-.7.93-1.26,1.67-1.45Z" style="fill:#fff; stroke:#231f20; stroke-miterlimit:10; stroke-width:.03px;"/><path d="M36.91,7.25c-.76.14-1.4.77-1.55,1.53-.27,1.09.59,2.27,1.7,2.37,1.13.17,2.24-.83,2.2-1.97.03-1.19-1.19-2.2-2.35-1.92Z" style="fill:#fff; stroke:#231f20; stroke-miterlimit:10; stroke-width:.03px;"/><path d="M.41,7.19c.98-.21,1.86.44,2.58,1.01.31.2.38.69.76.77.33-.51.88-.86,1.5-.87.32.48.62,1.06.44,1.65.32.17.73.05,1.03.3-.57.58-1.11,1.22-1.36,2-.13.42-.19.93.12,1.28.67-.54,1.03-1.37,1.57-2.02.24-.28.61-.37.95-.47.08.35.11.71.21,1.06.1.15.32.06.47.08.64-.02,1.32.07,1.85.44.29.2.59.39.9.55-.12.38-.16.78-.22,1.18-.15.73-.69,1.29-1.19,1.8.25.37.53.73.76,1.11-.38.15-.78.27-1.19.2-.74-.11-1.49-.25-2.24-.29-.23.05-.21.33-.01.42.83.53,1.61,1.15,2.25,1.91-.98.33-2.15.49-3.07-.07-.5-.25-.96-.59-1.32-1.02.31.18.62.41.99.45-.17-.27-.43-.45-.66-.67-.44-.41-.83-.88-1.18-1.38.75.17,1.53.19,2.3.12-.13-.17-.34-.16-.52-.21-.54-.09-1.06-.27-1.59-.41.97-.5,1.96-.97,2.95-1.46.15-.08.32-.16.4-.32-1.09.3-2.13.79-3.2,1.17.36-.35.68-.76.89-1.23.07-.11.07-.24.02-.37-.38.71-1.04,1.19-1.7,1.61-.45-1.11-.65-2.3-.8-3.48-.04-.15,0-.37-.2-.42-.07.89,0,1.78.12,2.65-.32-.56-.62-1.15-.74-1.79-.26-1.25-.29-2.57-.86-3.74-.25-.58-.66-1.06-1.03-1.57Z" style="fill:#fff; stroke:#231f20; stroke-miterlimit:10; stroke-width:.03px;"/><path d="M73.02,7.29c.35-.18.76-.15,1.14-.1-.29.42-.64.81-.87,1.27-.7,1.24-.74,2.7-1.01,4.06-.12.63-.42,1.21-.73,1.76.12-.87.18-1.76.12-2.64-.04.03-.11.1-.15.13-.19,1.27-.35,2.57-.85,3.76-.66-.42-1.31-.9-1.7-1.6-.11.15,0,.3.06.44.21.43.51.81.86,1.14-1.07-.39-2.12-.87-3.21-1.18.07.17.25.24.4.32.98.48,1.97.96,2.95,1.46-.53.14-1.04.31-1.58.4-.18.05-.41.03-.53.21.76.07,1.54.04,2.29-.12-.4.58-.87,1.12-1.41,1.58-.16.13-.31.28-.42.46.37-.05.68-.27.99-.46-.5.61-1.2,1.02-1.93,1.3-.82.2-1.68.08-2.47-.2.57-.67,1.24-1.26,1.98-1.73.18-.11.34-.24.48-.4-.06-.05-.17-.15-.22-.2-.75.04-1.49.18-2.23.29-.42.07-.83-.04-1.21-.21.24-.38.51-.73.76-1.1-.49-.51-1.02-1.05-1.18-1.76-.07-.41-.11-.82-.23-1.21.6-.27,1.08-.79,1.75-.9.47-.13.97-.05,1.45-.11.14-.35.15-.75.24-1.11.37.1.76.21,1,.53.46.62.84,1.3,1.37,1.86.22.17.37-.19.36-.38.07-1.13-.73-2.05-1.45-2.81.31-.23.71-.12,1.03-.29-.19-.59.11-1.17.44-1.65.51.03,1,.24,1.31.65.09.17.36.32.45.06.43-.73,1.19-1.17,1.93-1.53Z" style="fill:#fff; stroke:#231f20; stroke-miterlimit:10; stroke-width:.03px;"/><path d="M34.38,14.26c.04-1.05.56-2,1.21-2.8.2.11.4.23.61.34-.18.38-.4.74-.6,1.11.48-.09.7-.63.99-.97.46.08.93.08,1.4,0,.28.38.53.81.97,1.02-.13-.42-.4-.77-.57-1.17.2-.11.4-.22.6-.33.66.8,1.17,1.75,1.22,2.8-.97-.06-1.92-.45-2.64-1.11-.11-.09-.28-.29-.42-.11-.75.71-1.73,1.17-2.77,1.23Z" style="fill:#fff; stroke:#231f20; stroke-miterlimit:10; stroke-width:.03px;"/><path d="M36.28,14.17c.35-.2.7-.43,1.01-.69.34.28.71.54,1.11.74.32,1.55,1.18,3.01,2.47,3.95,1.71,1.3,4.01,1.79,6.11,1.34,1.29-.27,2.5-.94,3.37-1.94.53-.59.9-1.3,1.19-2.03.52-.21.98-.56,1.29-1.03.11.57.44,1.06.88,1.43,0,1.7.75,3.39,2.08,4.46,2.69,2.23,7.04,1.98,9.46-.54.85.2,1.77.28,2.6-.03-.87,1.33-2.07,2.46-3.49,3.18-2.14,1.12-4.73,1.38-7.04.63-2.23-.7-4.1-2.43-4.97-4.6-.05-.18-.24-.49-.44-.26-.82.92-1.82,1.69-2.95,2.2-3.02,1.38-6.76.84-9.34-1.22-.9-.71-1.66-1.61-2.24-2.6-.29,0-.38.31-.53.5-1.91,2.97-5.67,4.57-9.14,3.96-1.84-.3-3.57-1.22-4.83-2.59-.13-.12-.23-.28-.4-.34-.18.07-.22.27-.3.43-.67,1.61-1.87,2.99-3.39,3.85-2.89,1.66-6.68,1.4-9.42-.45-1.06-.7-1.95-1.64-2.65-2.69.83.32,1.75.23,2.6.03,1.13,1.15,2.67,1.88,4.28,2.03,2.09.22,4.32-.47,5.76-2.04.99-1.05,1.49-2.5,1.51-3.94.43-.37.77-.86.88-1.42.3.41.69.76,1.16.96.19.07.21.3.3.45.55,1.34,1.58,2.5,2.91,3.11,3.11,1.49,7.26.42,9.13-2.52.38-.6.67-1.27.82-1.97.04-.12.04-.29.19-.34Z" style="fill:#fff; stroke:#231f20; stroke-miterlimit:10; stroke-width:.03px;"/><path d="M2.43,14.46c.15.07.24.2.31.34.59,1.13,1.21,2.26,1.8,3.39l-.18.04c-.51-.79-.89-1.66-1.35-2.48-.19-.43-.53-.81-.58-1.3Z" style="fill:#fff; stroke:#231f20; stroke-miterlimit:10; stroke-width:.03px;"/><path d="M71.76,14.94c.1-.18.19-.38.38-.48-.03.4-.29.73-.46,1.08-.5.92-.96,1.86-1.49,2.77-.03-.04-.09-.13-.12-.18.55-1.07,1.13-2.12,1.69-3.19Z" style="fill:#fff; stroke:#231f20; stroke-miterlimit:10; stroke-width:.03px;"/><path d="M32.79,22.4c6.37-.32,12.78.03,19.07,1.08,3.59.61,7.16,1.41,10.61,2.58.36.13.77.23,1,.57.41.61-.05,1.59-.8,1.61-.5-.02-.94-.29-1.41-.42-5.05-1.68-10.32-2.67-15.61-3.21-6.88-.7-13.85-.48-20.69.49-4.32.62-8.63,1.52-12.7,3.1-.78.29-1.51-.63-1.24-1.36.14-.45.61-.62,1.02-.75,4.22-1.43,8.6-2.34,13.01-2.96,2.57-.35,5.16-.6,7.76-.73Z" style="fill:#fff; stroke:#231f20; stroke-miterlimit:10; stroke-width:.03px;"/><path d="M25.48,25.45c6.01-.81,12.1-1.07,18.14-.59,5.04.38,10.05,1.2,14.92,2.57,1.16.33,2.32.69,3.45,1.11-.42,1.8-.76,3.61-1.18,5.41-2-.78-4.08-1.31-6.16-1.78-5.73-1.25-11.61-1.76-17.48-1.75-6.98.01-14.02.7-20.75,2.63-.94.28-1.88.59-2.79.94-.35-1.81-.75-3.61-1.15-5.41,4.17-1.62,8.58-2.5,12.99-3.11Z" style="fill:#fff; stroke:#231f20; stroke-miterlimit:10; stroke-width:.03px;"/><path d="M34.99,25.47c-1.07.06-1.92,1.11-1.84,2.16,0,1.02.87,1.99,1.91,2.01,1.45,0,2.91.01,4.36,0,1.21-.08,2.07-1.4,1.77-2.55-.17-.89-.99-1.62-1.9-1.63-1.43,0-2.86-.02-4.29,0Z" style="fill:#fff; stroke:#231f20; stroke-miterlimit:10; stroke-width:.03px;"/><path d="M29.54,25.58c-.72.18-1.32.77-1.51,1.49-.25.84.13,1.82.86,2.29.66.45,1.58.47,2.25.04.47-.28.81-.76.94-1.28.21-.77-.09-1.63-.71-2.13-.5-.42-1.2-.56-1.84-.41Z" style="fill:#fff; stroke:#231f20; stroke-miterlimit:10; stroke-width:.03px;"/><path d="M43.79,25.59c-.76.19-1.38.85-1.52,1.62-.17.78.17,1.64.82,2.1.7.53,1.72.54,2.43.03.7-.48,1.06-1.41.84-2.23-.25-1.1-1.48-1.83-2.57-1.52Z" style="fill:#fff; stroke:#231f20; stroke-miterlimit:10; stroke-width:.03px;"/><path d="M22.54,26.72c-.27.05-.53.18-.75.34-.85.63-1.71,1.26-2.56,1.89-.17.13-.4.31-.35.56.06.27.37.34.6.4,1.01.24,2.02.5,3.04.75.53.14,1.12.01,1.55-.33.85-.63,1.7-1.26,2.56-1.88.18-.14.41-.31.35-.57-.03-.23-.28-.31-.47-.36-1.03-.26-2.07-.51-3.1-.77-.28-.07-.57-.09-.85-.03Z" style="fill:#fff; stroke:#231f20; stroke-miterlimit:10; stroke-width:.03px;"/><path d="M51.14,26.72c-1.07.26-2.13.53-3.19.79-.21.05-.48.13-.53.38-.04.24.16.41.33.54.75.55,1.5,1.1,2.25,1.66.48.41,1.09.75,1.75.61,1.05-.24,2.1-.52,3.15-.77.23-.06.54-.11.62-.38.08-.23-.14-.42-.3-.55-.88-.64-1.75-1.29-2.62-1.93-.41-.31-.95-.45-1.45-.34Z" style="fill:#fff; stroke:#231f20; stroke-miterlimit:10; stroke-width:.03px;"/><path d="M15.19,28.25c-.89.25-1.55,1.14-1.5,2.06,0,1.07.95,2.04,2.02,2.04.96.06,1.89-.66,2.1-1.59.19-.73-.06-1.55-.62-2.05-.52-.5-1.31-.66-2-.47Z" style="fill:#fff; stroke:#231f20; stroke-miterlimit:10; stroke-width:.03px;"/><path d="M58.02,28.25c-.89.25-1.56,1.14-1.51,2.07,0,1.04.89,1.98,1.92,2.03.91.1,1.83-.5,2.13-1.35.29-.78.08-1.71-.54-2.27-.52-.5-1.31-.67-2-.48Z" style="fill:#fff; stroke:#231f20; stroke-miterlimit:10; stroke-width:.03px;"/><path d="M34.67,25.82c.23-.07.48-.07.72-.07,1.3.01,2.6,0,3.9,0,.92,0,1.66.88,1.66,1.77.04.92-.72,1.83-1.66,1.84-1.38.01-2.75,0-4.12,0-.67.02-1.3-.41-1.57-1.02-.47-.94.04-2.23,1.07-2.53Z" style="fill:#fff; stroke:#231f20; stroke-miterlimit:10; stroke-width:.03px;"/><path d="M34.99,26.25c-.73.17-1.3.98-1.02,1.72.2.59.82.96,1.43.95,1.15.01,2.29,0,3.44,0,.49.01.99-.15,1.32-.53.37-.41.43-1.07.11-1.53-.32-.51-.95-.73-1.54-.68-1.25.04-2.51-.07-3.75.06Z" style="fill:#fff; stroke:#231f20; stroke-miterlimit:10; stroke-width:.03px;"/><path d="M29.43,25.92c1.05-.43,2.36.38,2.42,1.52.13.99-.69,1.94-1.68,1.99-.95.08-1.88-.71-1.92-1.67-.08-.79.43-1.57,1.18-1.84Z" style="fill:#fff; stroke:#231f20; stroke-miterlimit:10; stroke-width:.03px;"/><path d="M29.79,26.17c-.69.11-1.24.78-1.2,1.48-.01.69.55,1.32,1.23,1.42.85.16,1.73-.56,1.71-1.43.06-.9-.86-1.67-1.74-1.48Z" style="fill:#fff; stroke:#231f20; stroke-miterlimit:10; stroke-width:.03px;"/><path d="M43.68,25.92c.98-.41,2.21.24,2.41,1.28.24.91-.37,1.93-1.28,2.16-.95.29-2.04-.36-2.24-1.33-.22-.85.29-1.81,1.12-2.11Z" style="fill:#fff; stroke:#231f20; stroke-miterlimit:10; stroke-width:.03px;"/><path d="M44.13,26.16c-.81.08-1.43.93-1.26,1.73.13.81,1.03,1.4,1.83,1.16.74-.18,1.25-.99,1.07-1.73-.13-.74-.9-1.27-1.64-1.16Z" style="fill:#fff; stroke:#231f20; stroke-miterlimit:10; stroke-width:.03px;"/><path d="M22.13,27.18c.7-.45,1.52-.04,2.25.11.79.23,1.62.32,2.37.65-.88.74-1.85,1.37-2.76,2.08-.39.33-.93.5-1.43.36-1.13-.3-2.29-.53-3.41-.87-.02-.18.16-.26.27-.35.91-.65,1.79-1.33,2.7-1.97Z" style="fill:#fff; stroke:#231f20; stroke-miterlimit:10; stroke-width:.03px;"/><path d="M22.41,27.35c-.75.45-1.42,1.03-2.14,1.53-.19.11-.42.42-.14.57.55.2,1.13.29,1.7.45.56.13,1.2.41,1.74.06.68-.47,1.33-.97,2-1.46.12-.1.31-.21.26-.4-.03-.19-.27-.21-.42-.27-.71-.17-1.42-.35-2.14-.53-.28-.08-.59-.07-.86.04Z" style="fill:#fff; stroke:#231f20; stroke-miterlimit:10; stroke-width:.03px;"/><path d="M51.04,27.03c.45-.12.95-.06,1.33.22.9.66,1.8,1.32,2.69,1.98.13.06.28.32.02.33-1.09.29-2.2.55-3.29.83-.5.13-1.02-.05-1.41-.37-.9-.7-1.88-1.32-2.74-2.07.18-.09.37-.17.57-.21.95-.23,1.89-.46,2.83-.7Z" style="fill:#fff; stroke:#231f20; stroke-miterlimit:10; stroke-width:.03px;"/><path d="M51,27.34c-.66.17-1.32.33-1.98.49-.18.05-.41.08-.48.29-.02.2.19.31.32.43.63.45,1.24.92,1.86,1.37.33.25.77.27,1.15.16.7-.18,1.4-.35,2.1-.52.17-.04.42-.11.41-.34-.05-.18-.22-.27-.35-.38-.61-.43-1.2-.89-1.8-1.32-.35-.27-.83-.29-1.24-.16Z" style="fill:#fff; stroke:#231f20; stroke-miterlimit:10; stroke-width:.03px;"/><path d="M15.32,28.51c.9-.26,1.94.32,2.19,1.22.32.94-.3,2.05-1.26,2.28-.95.29-2.04-.37-2.24-1.34-.24-.92.38-1.94,1.3-2.16Z" style="fill:#fff; stroke:#231f20; stroke-miterlimit:10; stroke-width:.03px;"/><path d="M15.53,28.81c-.64.1-1.16.66-1.21,1.3-.11.81.57,1.6,1.39,1.62.79.06,1.53-.62,1.55-1.41.06-.9-.84-1.7-1.73-1.52Z" style="fill:#fff; stroke:#231f20; stroke-miterlimit:10; stroke-width:.03px;"/><path d="M58.15,28.51c.9-.26,1.93.32,2.18,1.22.32.93-.29,2.03-1.23,2.27-.95.31-2.06-.35-2.26-1.33-.24-.92.38-1.95,1.31-2.16Z" style="fill:#fff; stroke:#231f20; stroke-miterlimit:10; stroke-width:.03px;"/><path d="M58.26,28.83c-.66.15-1.16.8-1.13,1.48,0,.79.73,1.47,1.52,1.42.87,0,1.59-.89,1.4-1.74-.13-.8-1-1.38-1.79-1.16Z" style="fill:#fff; stroke:#231f20; stroke-miterlimit:10; stroke-width:.03px;"/><path d="M11.99,29.3c.04-.05.13-.15.18-.2.32,1.44.64,2.88.91,4.32-.32-.02-.29-.34-.36-.57-.23-1.19-.54-2.36-.74-3.55Z" style="fill:#fff; stroke:#231f20; stroke-miterlimit:10; stroke-width:.03px;"/><path d="M62.3,29.11s.14.15.19.2c-.14.9-.38,1.79-.56,2.69-.12.46-.16.93-.33,1.37-.05,0-.16.02-.22.03.3-1.43.6-2.86.92-4.29Z" style="fill:#fff; stroke:#231f20; stroke-miterlimit:10; stroke-width:.03px;"/><path d="M32.12,30.96c5.89-.31,11.81-.11,17.65.74,3.64.55,7.26,1.3,10.72,2.56.39.16.88.27,1.08.69.37.71-.33,1.74-1.15,1.48-1.37-.52-2.8-.85-4.22-1.19-5.18-1.23-10.47-2.07-15.79-2.28-2.9-.15-5.8-.07-8.7.07-5.93.34-11.92,1.19-17.48,3.38-.73.31-1.48-.47-1.33-1.19.06-.52.58-.75,1.01-.89,3.58-1.34,7.35-2.12,11.13-2.67,2.35-.33,4.71-.56,7.07-.68Z" style="fill:#fff; stroke:#231f20; stroke-miterlimit:10; stroke-width:.03px;"/><path d="M14.83,41.66c.03-.16.05-.32.08-.48.05.06.14.17.18.23.19.06.37.14.52.27-.26-.01-.52-.01-.78-.01Z" style="fill:#e8b70b; stroke:#231f20; stroke-miterlimit:10; stroke-width:.03px;"/><path d="M15.03,41.83c.24,0,.49-.01.73-.01.21.07.37.22.55.34v.02c-.01.64,0,1.28,0,1.92,0,.18-.02.36-.1.52-.03-.25-.04-.49-.05-.74-.33,0-.67,0-1,0,0,.22,0,.44-.01.65h-.12c0-.91,0-1.81,0-2.72Z" style="fill:#e8b70b;"/><path d="M15.37,42.91c.21,0,.43-.01.64-.02-.05-.3.13-.83-.29-.92-.5,0-.31.62-.34.94Z" style="fill:#231f20; stroke:#231f20; stroke-miterlimit:10; stroke-width:.03px;"/><path d="M12.3,41.87c.22.26.65.37.85.02.03.05.09.16.13.21.13,0,.27,0,.4,0,.03-.05.1-.16.13-.21.19,0,.08.3.14.42-.55,0-1.11,0-1.66,0,0-.15.01-.3.02-.44Z" style="fill:#fff; stroke:#231f20; stroke-miterlimit:10; stroke-width:.03px;"/><path d="M12.48,42.47c.43,0,.85,0,1.27,0,0,.47,0,.94,0,1.41-.07.01-.21.04-.28.05,0,.21,0,.42,0,.63-.21,0-.43,0-.64,0,0-.22,0-.44,0-.66-.09,0-.26,0-.35,0,0-.48,0-.95,0-1.43Z" style="fill:#fff; stroke:#231f20; stroke-miterlimit:10; stroke-width:.03px;"/><path d="M12.82,42.79c-.03.25-.02.51-.02.76.21,0,.42,0,.63,0-.01-.26.03-.53-.05-.78-.11-.23-.46-.2-.57.03Z" style="fill:#fff; stroke:#231f20; stroke-miterlimit:10; stroke-width:.03px;"/><path d="M17.58,43.06c.17.11.36.22.38.45.3,0,.53.18.75.36-.05.01-.14.04-.19.06-.01.21-.01.41-.01.62-.21,0-.42,0-.63,0-.04-.26.1-.68-.28-.71,0-.26,0-.52,0-.77Z" style="fill:#e8b70b;"/><path d="M11.93,44.06c.25,0,.5,0,.74,0,0,.21,0,.43-.01.64.33.02.66.02.98,0,0-.22,0-.43,0-.65.23,0,.46,0,.7,0,0,.22,0,.43,0,.65.33,0,.66,0,.99-.02,0-.21-.01-.42-.02-.63.23,0,.47,0,.7,0,0,.22,0,.43,0,.65.33,0,.66,0,.99-.02,0-.21-.01-.42-.02-.63.23,0,.47,0,.7,0,0,.21,0,.43,0,.65.32,0,.65,0,.97,0,.02-.23.02-.47.08-.7.25.05.46.19.66.35,0,.3,0,.6,0,.9-2.49,0-4.99,0-7.48,0,0-.4,0-.79,0-1.19Z" style="fill:#e8b70b;"/><path d="M12.48,45.44c2.13,0,4.26,0,6.39,0-.06,1.03.18,2.04.3,3.06-.93,0-1.86,0-2.8,0-.02-.52.05-1.05-.04-1.56-.2-.55-1.07-.58-1.29-.03-.13.52-.03,1.06-.06,1.59-.93,0-1.86,0-2.79,0,.11-1.02.36-2.03.29-3.06Z" style="fill:#fff; stroke:#231f20; stroke-miterlimit:10; stroke-width:.03px;"/><path d="M13.18,45.93c-.06.28-.03.58-.03.87.25,0,.5,0,.74,0,0-.3.02-.6-.03-.89-.11-.3-.58-.28-.68.02Z" style="fill:#fff; stroke:#231f20; stroke-miterlimit:10; stroke-width:.03px;"/><path d="M17.49,45.9c-.04.3-.02.6-.02.9.24,0,.48,0,.73,0,0-.3.03-.6-.04-.9-.11-.28-.53-.27-.67,0Z" style="fill:#fff; stroke:#231f20; stroke-miterlimit:10; stroke-width:.03px;"/><path d="M11.93,48.67c2.49,0,4.97-.01,7.46.01.01.06.03.18.04.24-2.5,0-5,0-7.5,0v-.24Z" style="fill:#fff; stroke:#231f20; stroke-miterlimit:10; stroke-width:.03px;"/><path d="M15.04,65.9c.43,0,.85,0,1.28,0-.02.85.03,1.71-.02,2.55l-.07.13c.06.07.12.14.18.21.2,0,.4,0,.61-.01,0-.22,0-.43.01-.65.23,0,.46,0,.69,0,0,.21,0,.43,0,.65.33,0,.65,0,.98,0,0-.22,0-.43.01-.65.24,0,.48,0,.72,0,0,.39,0,.79.01,1.18-2.5.03-4.99,0-7.49.01,0-.4,0-.8,0-1.19.25,0,.49,0,.74,0,0,.22,0,.43.01.65.31,0,.63,0,.94,0,.02-.22.03-.45.03-.67.23,0,.46,0,.69.01,0,.22,0,.43.01.65.32,0,.64,0,.96,0,0-.22,0-.43,0-.65.23,0,.46,0,.69,0,.05.23-.11.57.15.7,0-.3,0-.59-.01-.89-.33.01-.66.01-.99.01,0,.24-.01.47-.03.71-.15-.14-.09-.35-.1-.53,0-.75,0-1.5,0-2.25Z" style="fill:#fff; stroke:#231f20; stroke-miterlimit:10; stroke-width:.03px;"/><path d="M15.37,66.97c.21,0,.42,0,.62,0,0-.33.13-.99-.39-.94-.37.15-.19.63-.23.94Z" style="fill:#fff; stroke:#231f20; stroke-miterlimit:10; stroke-width:.03px;"/><path d="M12.48,66.54c.43,0,.85,0,1.27,0,0,.47,0,.93,0,1.4-.42-.03-.24.44-.28.69-.21,0-.43,0-.64,0,0-.22,0-.44-.02-.66-.08,0-.25,0-.34,0,0-.48,0-.95,0-1.43Z" style="fill:#fff; stroke:#231f20; stroke-miterlimit:10; stroke-width:.03px;"/><path d="M12.81,67.61c.21,0,.43-.01.64-.02-.05-.31.13-.83-.29-.92-.5,0-.32.62-.35.94Z" style="fill:#fff; stroke:#231f20; stroke-miterlimit:10; stroke-width:.03px;"/><path d="M17.6,66.54c.42,0,.85,0,1.27,0v1.42c-.08,0-.25.01-.34.02,0,.21,0,.43-.01.65-.22,0-.43,0-.65,0,0-.21,0-.42,0-.63-.07-.01-.21-.03-.28-.04,0-.47,0-.94,0-1.42Z" style="fill:#fff; stroke:#231f20; stroke-miterlimit:10; stroke-width:.03px;"/><path d="M17.92,67.6c.21,0,.42,0,.63,0-.04-.31.14-.85-.29-.93-.49,0-.31.62-.34.94Z" style="fill:#fff; stroke:#231f20; stroke-miterlimit:10; stroke-width:.03px;"/><path d="M12.48,69.49c2.13,0,4.26,0,6.39,0-.06,1.04.18,2.05.29,3.07-.93,0-1.86,0-2.79,0-.02-.5.04-1.01-.03-1.51-.15-.59-1.06-.65-1.29-.1-.14.52-.04,1.07-.07,1.61-.93,0-1.86,0-2.79,0,.12-1.02.36-2.04.29-3.08Z" style="fill:#fff; stroke:#231f20; stroke-miterlimit:10; stroke-width:.03px;"/><path d="M13.16,70.87c.24,0,.49,0,.73,0-.03-.38.18-1.11-.41-1.11-.5.11-.29.74-.32,1.11Z" style="fill:#fff; stroke:#231f20; stroke-miterlimit:10; stroke-width:.03px;"/><path d="M17.47,70.86c.24,0,.48,0,.72,0-.04-.37.18-1.05-.38-1.11-.54.09-.3.74-.35,1.11Z" style="fill:#fff; stroke:#231f20; stroke-miterlimit:10; stroke-width:.03px;"/><path d="M11.93,72.72c2.5,0,5,0,7.5,0,0,.06-.02.18-.03.24-2.49.04-4.97,0-7.46.02,0-.06,0-.19-.01-.26Z" style="fill:#fff; stroke:#231f20; stroke-miterlimit:10; stroke-width:.03px;"/><path d="M35.54,2.35c.28-.95.99-1.72,1.75-2.33.75.62,1.46,1.38,1.74,2.33.71-.24,1.53-.27,2.2.09.23.55.22,1.19-.01,1.74.4.13.9.48.81.96-.69.37-1.43.69-1.99,1.26.6-.37,1.28-.77,2.02-.62.29.08.69.09.86.38-.02.3-.12.59-.2.87.78.27,1.6.61,2.11,1.28.26.38.58.71.94.98.1.17-.13.26-.22.36-.46.32-.68.87-1.12,1.21-.5.41-1.1.66-1.71.86.09.43.29.9.15,1.34-.96.25-1.96-.14-2.75-.68.31.7.61,1.49.43,2.26-.57.02-1.13-.06-1.67-.23.37,1.53,1.35,2.89,2.69,3.72,1.69,1.07,3.84,1.4,5.77.84,1.67-.46,3.08-1.74,3.72-3.35-.74.06-1.52-.17-2.04-.72-.8-.79-.93-2.16-.27-3.08.58-.88,1.75-1.26,2.75-.95-.25-.54-.35-1.15-.19-1.72.21-.9.99-1.63,1.91-1.79,1.01-.21,2.11.32,2.59,1.24.54.95.3,2.23-.5,2.96.87.04,1.7.55,2.08,1.34.49.92.27,2.14-.49,2.86-.72.71-1.86.85-2.77.44.09,1.47.75,2.92,1.9,3.85,2.47,2.08,6.48,1.91,8.79-.34-.12-.09-.48-.16-.35-.38.48-.73,1.18-1.29,1.86-1.83-.79.07-1.61.37-2.4.08-.22-.1-.53-.15-.62-.4.12-.45.43-.8.69-1.17-.39-.42-.76-.88-.96-1.42-.19-.5-.12-1.06-.35-1.55-.1-.13-.12-.37.09-.39.62-.17,1.06-.7,1.67-.88.5-.17,1.03-.2,1.56-.19.06-.36.14-.73.21-1.09.68-.11,1.41.21,1.79.79.29.42.56.86.89,1.25-.16-.98-.9-1.7-1.54-2.4.09-.46.62-.65,1.03-.71,0-.64.32-1.22.7-1.71.66-.07,1.32.17,1.77.66.48-.64,1.18-1.08,1.9-1.42.43-.21.95-.28,1.41-.16.27.07.37.35.4.6-.55.57-.99,1.24-1.26,1.98-.57,1.52-.36,3.25-1.19,4.68.33.14.5.46.4.81.86.83.61,2.31-.25,3.04-.42.38-1.02.55-1.58.42-.21.39-.69.4-.99.11-.29.34-.63.64-1.01.88-.17.1-.26.27-.35.43-.97,1.68-2.49,3.03-4.26,3.83-1.65.75-3.52,1.03-5.31.79-1.82-.23-3.56-1.05-4.88-2.32-.81-.79-1.44-1.74-1.89-2.77-1.48,1.59-3.55,2.61-5.71,2.81-3.5.38-7.14-1.34-9.01-4.33-.99,1.55-2.44,2.8-4.13,3.54-2.24,1-4.87,1.13-7.17.27-1.3-.48-2.48-1.28-3.43-2.29-.79,1.86-2.25,3.44-4.09,4.3-3.27,1.58-7.41.97-10.17-1.36-.92-.76-1.66-1.71-2.25-2.74-.4-.34-.86-.62-1.19-1.05-.16.09-.31.24-.5.22-.22,0-.35-.19-.49-.33-1.38.34-2.58-1.17-2.35-2.47.05-.38.26-.71.51-.99-.09-.35.07-.68.41-.81-.67-1.14-.67-2.5-.93-3.76-.2-1.01-.65-1.96-1.35-2.72-.3-.24-.08-.71.25-.79.48-.12,1.02-.05,1.46.19.69.34,1.37.77,1.84,1.39.46-.48,1.11-.72,1.77-.66.38.49.7,1.07.71,1.71.42.05.85.24,1.05.64-.03.16-.17.25-.27.37-.58.58-1.12,1.26-1.27,2.08.35-.41.62-.87.93-1.31.39-.53,1.09-.82,1.74-.72.08.36.15.72.21,1.08.58,0,1.17.03,1.71.25.51.19.89.62,1.42.79.15.02.37.15.24.33-.29.56-.19,1.22-.45,1.79-.21.49-.55.9-.9,1.28.26.37.59.73.69,1.18-.1.24-.41.3-.63.39-.76.28-1.54-.01-2.3-.07l.02-.19c-.03.08-.14.24,0,.29.68.42,1.25,1.01,1.73,1.64.21.23-.15.37-.31.45,1.01.95,2.33,1.58,3.71,1.74,2.04.27,4.27-.4,5.65-1.97.8-.88,1.23-2.06,1.32-3.24-.65.27-1.4.32-2.05.03-1.06-.43-1.71-1.65-1.47-2.77.19-1.07,1.15-1.91,2.22-2-.53-.56-.81-1.35-.69-2.11.11-.8.64-1.54,1.37-1.88.9-.45,2.05-.27,2.78.42.78.71,1,1.92.56,2.87.78-.2,1.66-.02,2.27.52.81.67,1.09,1.88.67,2.85-.4,1.01-1.49,1.62-2.56,1.53.29.66.69,1.27,1.17,1.81,1.01,1.04,2.44,1.63,3.87,1.73,2.13.16,4.36-.65,5.77-2.27.64-.72,1.07-1.61,1.31-2.54-.54.18-1.1.26-1.67.23-.18-.78.12-1.58.45-2.28-.76.53-1.69.88-2.63.73-.25,0-.18-.31-.18-.47.03-.31.11-.61.19-.92-.58-.2-1.15-.43-1.63-.8-.5-.36-.73-.97-1.24-1.32-.12-.07-.31-.26-.11-.37.6-.38.86-1.09,1.45-1.48.47-.33,1-.55,1.54-.73-.07-.31-.26-.64-.16-.95.39-.28.92-.34,1.39-.31.56.05,1.02.39,1.49.66-.57-.58-1.32-.91-2.02-1.29-.09-.48.4-.83.81-.96-.24-.54-.24-1.19-.01-1.73.67-.37,1.49-.33,2.2-.1Z" style="fill:#231f20; stroke:#231f20; stroke-miterlimit:10; stroke-width:.03px;"/><path d="M36.05,2.16c-.11.25-.06.56-.28.75-.65-.34-1.43-.43-2.12-.17-.03.33-.09.66-.01.99.06.28.34.47.33.77-.35.07-.74.11-.99.41.99.47,2.02,1.07,2.54,2.08.24-.17.51-.32.78-.43-.14-.58-.36-1.14-.57-1.7-.05-.11-.06-.23-.02-.35.45.57.71,1.26.96,1.93.14-.02.28-.03.43-.04.05-1.46.09-2.93.13-4.39.21.03.16.24.18.4.02,1.33.06,2.66.11,3.99.14.01.28.03.43.04.15-.44.32-.88.54-1.29.12-.23.23-.49.48-.61-.18.68-.49,1.31-.65,1.99.25.17.53.3.78.47.51-1.02,1.56-1.6,2.54-2.09-.26-.27-.64-.33-.99-.39-.02-.31.27-.51.33-.79.06-.32.01-.65-.02-.96-.69-.26-1.47-.17-2.12.17-.09-.08-.15-.17-.17-.29-.12-.85-.77-1.49-1.36-2.07-.49.47-.98.97-1.24,1.61Z" style="fill:#e8b70b; stroke:#231f20; stroke-miterlimit:10; stroke-width:.03px;"/><path d="M32.08,6.31c.04.34.36.72.16,1.03-.56.2-1.14.37-1.63.72-.52.33-.77.92-1.23,1.31.46.45.75,1.07,1.33,1.4.47.32,1.03.47,1.55.67l.07.09c-.07.41-.21.8-.27,1.21,1.28.08,2.34-.75,3.25-1.54-.09-.1-.17-.2-.26-.29-.34.12-.69.24-1.04.33.15-.33.57-.39.85-.59-.17-.32-.29-.67-.37-1.02-1.1-.03-2.19-.08-3.29-.13.03-.03.1-.1.13-.13,1.04-.09,2.09-.07,3.13-.13.02-.19.03-.37.05-.56-.29-.19-.65-.33-.82-.65.3.11.59.27.88.4.12-.37.31-.72.54-1.03-.5-.41-1.02-.81-1.61-1.08-.45-.21-.96-.13-1.42,0Z" style="fill:#e8b70b; stroke:#231f20; stroke-miterlimit:10; stroke-width:.03px;"/><path d="M41.09,6.3c-.59.27-1.12.67-1.62,1.08.23.32.42.66.54,1.04.29-.13.58-.3.89-.39-.2.3-.53.46-.83.64.01.19.03.37.04.56.99.05,1.98.07,2.97.11.13,0,.23.05.3.16-1.1.05-2.19.1-3.29.13-.08.35-.21.69-.37,1.02.29.2.66.28.87.58-.36-.06-.71-.19-1.05-.32-.09.1-.18.19-.26.29.91.79,1.97,1.62,3.25,1.54-.06-.41-.19-.81-.27-1.21l.07-.1c.53-.2,1.08-.35,1.56-.68.57-.32.85-.95,1.32-1.38-.47-.42-.74-1.02-1.29-1.35-.48-.33-1.04-.5-1.57-.69-.2-.31.14-.7.15-1.05-.46-.11-.96-.2-1.4,0Z" style="fill:#e8b70b; stroke:#231f20; stroke-miterlimit:10; stroke-width:.03px;"/><path d="M36.65,6.76c-.74.19-1.38.74-1.67,1.45-.36.84-.22,1.88.38,2.57.59.72,1.6,1.06,2.5.84,1.27-.27,2.16-1.62,1.89-2.89-.21-1.39-1.74-2.36-3.09-1.97Z" style="fill:#e8b70b; stroke:#231f20; stroke-miterlimit:10; stroke-width:.03px;"/><path d="M.41,7.19c.37.51.78.99,1.03,1.57.57,1.17.6,2.49.86,3.74.12.64.42,1.23.74,1.79-.12-.88-.19-1.77-.12-2.65.19.05.16.27.2.42.15,1.18.35,2.37.8,3.48.66-.42,1.32-.9,1.7-1.61.05.12.05.25-.02.37-.21.47-.53.87-.89,1.23,1.07-.38,2.11-.87,3.2-1.17-.08.16-.25.24-.4.32-.98.48-1.97.95-2.95,1.46.53.14,1.05.32,1.59.41.18.04.4.04.52.21-.77.07-1.55.05-2.3-.12.35.5.74.96,1.18,1.38.23.21.49.4.66.67-.37-.04-.68-.26-.99-.45.36.43.81.77,1.32,1.02.92.57,2.09.41,3.07.07-.64-.76-1.41-1.38-2.25-1.91-.2-.09-.22-.36.01-.42.75.04,1.49.18,2.24.29.41.07.82-.05,1.19-.2-.23-.39-.51-.74-.76-1.11.5-.52,1.04-1.07,1.19-1.8.06-.39.1-.79.22-1.18-.31-.16-.61-.35-.9-.55-.54-.37-1.22-.46-1.85-.44-.15-.02-.37.07-.47-.08-.1-.34-.13-.71-.21-1.06-.34.09-.71.19-.95.47-.54.66-.9,1.48-1.57,2.02-.31-.35-.25-.87-.12-1.28.25-.78.8-1.42,1.36-2-.3-.24-.71-.12-1.03-.3.19-.59-.11-1.17-.44-1.65-.62.01-1.17.36-1.5.87-.39-.08-.45-.57-.76-.77-.72-.58-1.6-1.23-2.58-1.01Z" style="fill:#e8b70b; stroke:#231f20; stroke-miterlimit:10; stroke-width:.03px;"/><path d="M73.02,7.29c-.74.36-1.5.8-1.93,1.53-.09.26-.36.1-.45-.06-.31-.42-.81-.62-1.31-.65-.33.48-.63,1.06-.44,1.65-.32.17-.73.06-1.03.29.72.77,1.53,1.69,1.45,2.81,0,.18-.14.55-.36.38-.53-.56-.91-1.24-1.37-1.86-.24-.32-.64-.43-1-.53-.09.37-.1.76-.24,1.11-.48.06-.98-.02-1.45.11-.67.11-1.15.63-1.75.9.12.39.16.81.23,1.21.16.71.69,1.26,1.18,1.76-.25.37-.52.72-.76,1.1.37.18.79.28,1.21.21.74-.11,1.48-.25,2.23-.29.05.05.17.15.22.2-.14.16-.3.29-.48.4-.74.47-1.41,1.06-1.98,1.73.78.28,1.65.4,2.47.2.73-.28,1.42-.7,1.93-1.3-.31.18-.62.41-.99.46.11-.18.26-.32.42-.46.54-.46,1.01-1,1.41-1.58-.75.16-1.53.19-2.29.12.12-.18.34-.16.53-.21.54-.09,1.05-.26,1.58-.4-.97-.5-1.96-.97-2.95-1.46-.15-.08-.33-.15-.4-.32,1.1.31,2.14.79,3.21,1.18-.35-.33-.65-.71-.86-1.14-.06-.14-.17-.29-.06-.44.38.7,1.04,1.18,1.7,1.6.5-1.19.66-2.49.85-3.76.04-.03.11-.1.15-.13.05.88,0,1.77-.12,2.64.32-.55.61-1.13.73-1.76.27-1.37.31-2.82,1.01-4.06.23-.46.58-.85.87-1.27-.38-.05-.79-.08-1.14.1Z" style="fill:#e8b70b; stroke:#231f20; stroke-miterlimit:10; stroke-width:.03px;"/><path d="M20.51,7.76c-.87.18-1.56.98-1.59,1.87-.06.78.41,1.56,1.11,1.9.7.36,1.6.25,2.2-.27.63-.52.88-1.43.6-2.19-.31-.94-1.37-1.54-2.33-1.31Z" style="fill:#fff; stroke:#231f20; stroke-miterlimit:10; stroke-width:.03px;"/><path d="M53.14,7.81c-.86.21-1.52,1.04-1.51,1.93-.03.92.66,1.78,1.55,1.98.78.2,1.64-.13,2.1-.79.47-.64.5-1.57.07-2.24-.45-.73-1.39-1.11-2.21-.88Z" style="fill:#fff; stroke:#231f20; stroke-miterlimit:10; stroke-width:.03px;"/><path d="M23.32,11.23c-.74.19-1.34.84-1.47,1.6-.16.82.27,1.71,1,2.1.71.41,1.66.32,2.28-.21.66-.54.9-1.51.57-2.3-.36-.92-1.44-1.46-2.39-1.19Z" style="fill:#fff; stroke:#231f20; stroke-miterlimit:10; stroke-width:.03px;"/><path d="M50.25,11.26c-.86.21-1.54,1.03-1.52,1.93-.04.97.74,1.88,1.7,2.01.83.15,1.7-.3,2.09-1.04.32-.59.32-1.35-.02-1.93-.42-.78-1.39-1.2-2.25-.97Z" style="fill:#fff; stroke:#231f20; stroke-miterlimit:10; stroke-width:.03px;"/><path d="M34.38,14.26c1.04-.05,2.02-.52,2.77-1.23.14-.17.3.02.42.11.72.66,1.66,1.06,2.64,1.11-.05-1.05-.57-2-1.22-2.8-.2.11-.4.23-.6.33.17.4.44.75.57,1.17-.44-.22-.69-.65-.97-1.02-.46.08-.93.08-1.4,0-.29.35-.51.88-.99.97.2-.37.42-.73.6-1.11-.2-.11-.41-.22-.61-.34-.65.8-1.17,1.75-1.21,2.8Z" style="fill:#e8b70b; stroke:#231f20; stroke-miterlimit:10; stroke-width:.03px;"/><path d="M18.86,12.02c-.9.22-1.57,1.12-1.5,2.05.03.96.83,1.81,1.78,1.9.82.11,1.68-.36,2.03-1.11.36-.7.24-1.61-.27-2.2-.49-.58-1.31-.84-2.04-.64Z" style="fill:#fff; stroke:#231f20; stroke-miterlimit:10; stroke-width:.03px;"/><path d="M54.71,12.04c-.78.19-1.41.88-1.51,1.68-.11.76.27,1.57.92,1.97.68.44,1.64.41,2.28-.09.66-.48.96-1.38.73-2.16-.27-1.02-1.42-1.69-2.43-1.41Z" style="fill:#fff; stroke:#231f20; stroke-miterlimit:10; stroke-width:.03px;"/><path d="M52.91,12.09c.09.2.16.41.22.62.13-.18.27-.35.42-.51-.21-.02-.43-.06-.64-.11Z" style="fill:#fff; stroke:#231f20; stroke-miterlimit:10; stroke-width:.03px;"/><path d="M21.15,12.24c.09.11.18.23.27.35.04-.14.09-.27.14-.41-.14.02-.28.04-.41.06Z" style="fill:#fff; stroke:#231f20; stroke-miterlimit:10; stroke-width:.03px;"/><path d="M36.28,14.17c-.15.05-.15.22-.19.34-.16.7-.44,1.37-.82,1.97-1.87,2.93-6.02,4.01-9.13,2.52-1.33-.61-2.36-1.76-2.91-3.11-.09-.16-.11-.39-.3-.45-.47-.2-.86-.55-1.16-.96-.11.57-.45,1.06-.88,1.42-.02,1.44-.52,2.89-1.51,3.94-1.44,1.57-3.67,2.26-5.76,2.04-1.61-.15-3.15-.88-4.28-2.03-.85.2-1.77.29-2.6-.03.7,1.06,1.59,2,2.65,2.69,2.74,1.84,6.53,2.1,9.42.45,1.52-.86,2.72-2.24,3.39-3.85.08-.16.12-.36.3-.43.17.06.28.22.4.34,1.26,1.37,2.99,2.29,4.83,2.59,3.47.61,7.23-.99,9.14-3.96.14-.2.24-.5.53-.5.58.99,1.33,1.89,2.24,2.6,2.58,2.06,6.32,2.6,9.34,1.22,1.13-.5,2.12-1.28,2.95-2.2.19-.24.38.08.44.26.86,2.17,2.73,3.91,4.97,4.6,2.31.75,4.9.49,7.04-.63,1.42-.73,2.61-1.85,3.49-3.18-.83.31-1.75.23-2.6.03-2.42,2.52-6.77,2.78-9.46.54-1.33-1.07-2.08-2.76-2.08-4.46-.44-.37-.77-.86-.88-1.43-.32.46-.77.82-1.29,1.03-.28.73-.66,1.44-1.19,2.03-.87,1-2.08,1.67-3.37,1.94-2.1.45-4.39-.04-6.11-1.34-1.29-.95-2.15-2.4-2.47-3.95-.4-.19-.77-.45-1.11-.74-.31.26-.66.49-1.01.69Z" style="fill:#e8b70b; stroke:#231f20; stroke-miterlimit:10; stroke-width:.03px;"/><path d="M2.43,14.46c.05.49.38.87.58,1.3.46.82.84,1.69,1.35,2.48l.18-.04c-.59-1.13-1.21-2.26-1.8-3.39-.07-.14-.16-.27-.31-.34Z" style="fill:#e8b70b; stroke:#231f20; stroke-miterlimit:10; stroke-width:.03px;"/><path d="M71.76,14.94c-.55,1.07-1.14,2.12-1.69,3.19.03.04.09.13.12.18.53-.9.99-1.85,1.49-2.77.17-.35.43-.67.46-1.08-.2.09-.29.3-.38.48Z" style="fill:#e8b70b; stroke:#231f20; stroke-miterlimit:10; stroke-width:.03px;"/><path d="M36.93,7.25c1.17-.26,2.38.76,2.33,1.95.03,1.14-1.1,2.12-2.23,1.94-1.11-.11-1.95-1.3-1.67-2.39.16-.76.81-1.38,1.57-1.51Z" style="fill:#fff; stroke:#231f20; stroke-miterlimit:10; stroke-width:.03px;"/><path d="M24.37,22.8c7.33-1.07,14.8-1.22,22.17-.46,4.89.52,9.75,1.39,14.47,2.81.78.25,1.57.46,2.32.8.78.4.91,1.52.36,2.17-.31.43-.85.58-1.36.53.17.11.38.18.49.37.12.2.06.44.05.66.67.58.92,1.56.63,2.39-.2.66-.76,1.18-1.43,1.32-.14.32-.47.5-.81.39-.01.07-.04.22-.05.3.56.25.96.84.86,1.47-.06.83-.92,1.54-1.75,1.29-1.41-.54-2.89-.88-4.35-1.23-4.96-1.18-10.02-1.98-15.12-2.22-3.12-.16-6.25-.1-9.37.06-5.49.34-11.02,1.11-16.21,3.01-.54.18-1.07.53-1.66.39-.88-.18-1.39-1.27-1-2.06.12-.29.37-.49.63-.65-.02-.12-.04-.24-.06-.35-.34.11-.66-.08-.79-.39-1.2-.23-1.82-1.64-1.43-2.74.11-.38.36-.7.64-.97,0-.21-.07-.45.04-.65.1-.21.33-.27.52-.36-.31-.03-.65-.04-.92-.23-.69-.43-.93-1.47-.42-2.12.35-.47.95-.57,1.47-.76,3.93-1.3,7.99-2.15,12.08-2.76Z" style="fill:#231f20; stroke:#231f20; stroke-miterlimit:10; stroke-width:.03px;"/><path d="M32.79,22.4c-2.6.12-5.18.37-7.76.73-4.41.63-8.79,1.54-13.01,2.96-.4.13-.88.3-1.02.75-.27.72.46,1.64,1.24,1.36,4.08-1.58,8.38-2.48,12.7-3.1,6.85-.97,13.81-1.19,20.69-.49,5.29.54,10.56,1.53,15.61,3.21.47.13.91.41,1.41.42.75-.02,1.21-1,.8-1.61-.22-.34-.64-.44-1-.57-3.45-1.17-7.02-1.97-10.61-2.58-6.29-1.05-12.7-1.4-19.07-1.08Z" style="fill:#e8b70b; stroke:#231f20; stroke-miterlimit:10; stroke-width:.03px;"/><path d="M25.48,25.45c-4.41.62-8.83,1.49-12.99,3.11.4,1.8.79,3.6,1.15,5.41.92-.36,1.85-.67,2.79-.94,6.73-1.93,13.76-2.61,20.75-2.63,5.86,0,11.74.5,17.48,1.75,2.09.47,4.17,1.01,6.16,1.78.42-1.8.76-3.61,1.18-5.41-1.13-.43-2.29-.78-3.45-1.11-4.87-1.36-9.88-2.18-14.92-2.57-6.05-.48-12.14-.22-18.14.59Z" style="fill:#e8b70b; stroke:#231f20; stroke-miterlimit:10; stroke-width:.03px;"/><path d="M11.99,29.3c.2,1.19.5,2.36.74,3.55.06.23.04.56.36.57-.28-1.45-.59-2.89-.91-4.32-.04.05-.13.15-.18.2Z" style="fill:#e8b70b; stroke:#231f20; stroke-miterlimit:10; stroke-width:.03px;"/><path d="M62.3,29.11c-.32,1.43-.61,2.86-.92,4.29.05,0,.16-.02.22-.03.17-.44.21-.92.33-1.37.18-.9.41-1.79.56-2.69-.05-.05-.14-.15-.19-.2Z" style="fill:#fff; stroke:#231f20; stroke-miterlimit:10; stroke-width:.03px;"/><path d="M32.12,30.96c-2.37.12-4.73.35-7.07.68-3.78.55-7.55,1.33-11.13,2.67-.43.15-.95.38-1.01.89-.15.72.6,1.5,1.33,1.19,5.56-2.19,11.54-3.04,17.48-3.38,2.9-.14,5.8-.21,8.7-.07,5.32.22,10.61,1.05,15.79,2.28,1.42.34,2.85.68,4.22,1.19.82.26,1.52-.77,1.15-1.48-.2-.42-.69-.53-1.08-.69-3.46-1.26-7.09-2.02-10.72-2.56-5.84-.85-11.76-1.04-17.65-.74Z" style="fill:#e8b70b; stroke:#231f20; stroke-miterlimit:10; stroke-width:.03px;"/><path d="M34.99,25.47c1.43-.02,2.86,0,4.29,0,.92.01,1.73.74,1.9,1.63.3,1.15-.56,2.47-1.77,2.55-1.45.02-2.91,0-4.36,0-1.04-.02-1.91-.99-1.91-2.01-.07-1.05.77-2.1,1.84-2.16Z" style="fill:#231f20; stroke:#231f20; stroke-miterlimit:10; stroke-width:.03px;"/><path d="M34.66,25.81c-1.03.3-1.54,1.59-1.07,2.53.27.61.9,1.04,1.57,1.02,1.38,0,2.75,0,4.12,0,.94,0,1.7-.92,1.66-1.84,0-.89-.74-1.77-1.66-1.77-1.3,0-2.6,0-3.9,0-.24,0-.49,0-.72.07Z" style="fill:#e8b70b; stroke:#231f20; stroke-miterlimit:10; stroke-width:.03px;"/><path d="M29.54,25.58c.63-.16,1.34-.01,1.84.41.62.5.92,1.36.71,2.13-.13.53-.47,1-.94,1.28-.68.42-1.59.41-2.25-.04-.74-.48-1.11-1.45-.86-2.29.19-.72.79-1.31,1.51-1.49Z" style="fill:#231f20; stroke:#231f20; stroke-miterlimit:10; stroke-width:.03px;"/><path d="M29.42,25.91c-.74.26-1.26,1.05-1.18,1.84.04.96.97,1.76,1.92,1.67.98-.05,1.81-1,1.68-1.99-.06-1.14-1.37-1.95-2.42-1.52Z" style="fill:#e8b70b; stroke:#231f20; stroke-miterlimit:10; stroke-width:.03px;"/><path d="M43.79,25.59c1.09-.32,2.32.42,2.57,1.52.22.82-.13,1.75-.84,2.23-.71.51-1.74.5-2.43-.03-.65-.47-.99-1.32-.82-2.1.14-.77.76-1.42,1.52-1.62Z" style="fill:#231f20; stroke:#231f20; stroke-miterlimit:10; stroke-width:.03px;"/><path d="M43.67,25.91c-.83.3-1.34,1.25-1.12,2.11.21.97,1.29,1.62,2.24,1.33.91-.23,1.52-1.24,1.28-2.16-.21-1.04-1.43-1.69-2.41-1.28Z" style="fill:#e8b70b; stroke:#231f20; stroke-miterlimit:10; stroke-width:.03px;"/><path d="M29.79,26.17c.88-.19,1.8.58,1.74,1.48.02.86-.86,1.59-1.71,1.43-.68-.11-1.24-.73-1.23-1.42-.04-.7.51-1.37,1.2-1.48Z" style="fill:#fff;"/><path d="M44.1,26.16c.74-.12,1.5.42,1.64,1.16.18.74-.33,1.55-1.07,1.73-.8.24-1.69-.35-1.83-1.16-.17-.8.45-1.64,1.26-1.73Z" style="fill:#fff;"/><path d="M34.99,26.25c1.24-.12,2.5-.02,3.75-.06.58-.05,1.21.17,1.54.68.31.46.26,1.12-.11,1.53-.32.38-.83.54-1.32.53-1.15,0-2.29,0-3.44,0-.61,0-1.23-.36-1.43-.95-.28-.74.28-1.55,1.02-1.72Z" style="fill:#da3620;"/><path d="M22.54,26.72c.28-.06.57-.04.85.03,1.03.26,2.07.51,3.1.77.19.05.45.14.47.36.06.26-.17.43-.35.57-.86.63-1.71,1.25-2.56,1.88-.43.34-1.02.47-1.55.33-1.01-.25-2.02-.51-3.04-.75-.23-.06-.54-.13-.6-.4-.05-.25.18-.43.35-.56.86-.63,1.71-1.26,2.56-1.89.22-.17.48-.29.75-.34Z" style="fill:#231f20; stroke:#231f20; stroke-miterlimit:10; stroke-width:.03px;"/><path d="M22.12,27.17c-.91.64-1.8,1.32-2.7,1.97-.11.1-.29.18-.27.35,1.12.34,2.28.57,3.41.87.5.14,1.04-.03,1.43-.36.91-.7,1.88-1.33,2.76-2.08-.75-.33-1.58-.42-2.37-.65-.73-.15-1.55-.56-2.25-.11Z" style="fill:#e8b70b; stroke:#231f20; stroke-miterlimit:10; stroke-width:.03px;"/><path d="M51.14,26.72c.5-.11,1.04.03,1.45.34.87.64,1.75,1.29,2.62,1.93.16.13.38.32.3.55-.08.27-.39.31-.62.38-1.05.25-2.1.53-3.15.77-.65.14-1.27-.2-1.75-.61-.75-.56-1.5-1.1-2.25-1.66-.17-.13-.37-.3-.33-.54.05-.25.32-.32.53-.38,1.07-.26,2.13-.53,3.19-.79Z" style="fill:#231f20; stroke:#231f20; stroke-miterlimit:10; stroke-width:.03px;"/><path d="M51.04,27.03c-.94.24-1.89.47-2.83.7-.2.04-.39.12-.57.21.87.75,1.84,1.37,2.74,2.07.38.32.91.51,1.41.37,1.1-.28,2.2-.53,3.29-.83.26-.01.11-.27-.02-.33-.89-.67-1.8-1.32-2.69-1.98-.38-.28-.88-.34-1.33-.22Z" style="fill:#e8b70b; stroke:#231f20; stroke-miterlimit:10; stroke-width:.03px;"/><path d="M22.41,27.35c.27-.11.58-.12.86-.04.71.17,1.42.35,2.14.53.15.05.39.07.42.27.05.19-.14.3-.26.4-.67.48-1.32.99-2,1.46-.54.34-1.18.07-1.74-.06-.56-.16-1.15-.24-1.7-.45-.28-.15-.05-.46.14-.57.72-.5,1.39-1.08,2.14-1.53Z" style="fill:#13317b;"/><path d="M51,27.34c.41-.13.88-.1,1.24.16.6.44,1.2.89,1.8,1.32.13.11.3.21.35.38.01.23-.23.3-.41.34-.7.17-1.4.35-2.1.52-.38.11-.83.08-1.15-.16-.63-.45-1.24-.92-1.86-1.37-.13-.11-.34-.23-.32-.43.06-.2.3-.24.48-.29.66-.16,1.32-.32,1.98-.49Z" style="fill:#13317b;"/><path d="M15.19,28.25c.69-.2,1.48-.03,2,.47.56.5.81,1.32.62,2.05-.21.93-1.14,1.65-2.1,1.59-1.07,0-2.03-.96-2.02-2.04-.05-.93.61-1.81,1.5-2.06Z" style="fill:#231f20; stroke:#231f20; stroke-miterlimit:10; stroke-width:.03px;"/><path d="M15.31,28.5c-.92.22-1.54,1.24-1.3,2.16.2.97,1.29,1.63,2.24,1.34.96-.23,1.58-1.34,1.26-2.28-.26-.9-1.29-1.49-2.19-1.22Z" style="fill:#e8b70b; stroke:#231f20; stroke-miterlimit:10; stroke-width:.03px;"/><path d="M58.02,28.25c.69-.19,1.48-.02,2,.48.62.56.84,1.49.54,2.27-.31.86-1.22,1.45-2.13,1.35-1.04-.05-1.93-.99-1.92-2.03-.05-.93.62-1.82,1.51-2.07Z" style="fill:#231f20; stroke:#231f20; stroke-miterlimit:10; stroke-width:.03px;"/><path d="M58.15,28.51c-.93.22-1.55,1.24-1.31,2.16.2.98,1.31,1.64,2.26,1.33.95-.24,1.55-1.34,1.23-2.27-.26-.9-1.28-1.48-2.18-1.22Z" style="fill:#e8b70b; stroke:#231f20; stroke-miterlimit:10; stroke-width:.03px;"/><path d="M15.53,28.81c.89-.18,1.78.62,1.73,1.52-.03.79-.76,1.47-1.55,1.41-.82-.02-1.5-.81-1.39-1.62.05-.64.58-1.2,1.21-1.3Z" style="fill:#fff;"/><path d="M58.23,28.83c.79-.22,1.66.36,1.79,1.16.19.85-.53,1.74-1.4,1.74-.79.05-1.52-.64-1.52-1.42-.04-.68.46-1.33,1.13-1.48Z" style="fill:#fff;"/><path d="M14.72,41.03c.06.05.12.1.18.15-.03.16.01.32-.01.48.26,0,.46,0,.72.01.04.04.12.12.16.15-.24,0-.49,0-.73.01,0,.91,0,1.81,0,2.72h.12c0-.22,0-.44.01-.65.33,0,.67,0,1,0,0,.25.02.4.05.65-.01-.1.1-.03.1-.43,0-.64-.01-1.28,0-1.92.04.03.11.08.15.1.03.76,0,1.51.01,2.27h.36c0-.21,0-.43.01-.64.2-.01.39-.02.59-.03,0-.3,0-.61,0-.91.04.02.12.07.16.09.01.26,0,.52,0,.77.38.03.25.45.28.71.21,0,.42,0,.63,0,0-.21,0-.41.01-.62.05-.01.14-.04.19-.06l.08-.02-.04.16c-.05.23-.06.47-.08.7-.32.01-.65.01-.97,0,0-.22,0-.43,0-.65-.23,0-.47,0-.7,0,0,.21.01.42.02.63-.33.02-.66.03-.99.02,0-.22,0-.44,0-.65-.23,0-.47,0-.7,0,0,.21.01.42.02.63-.33.02-.66.03-.99.02,0-.22,0-.44,0-.65-.23,0-.47,0-.7,0,0,.21,0,.43,0,.65-.33.01-.66.01-.98,0,0-.21,0-.43.01-.64-.25,0-.5,0-.74,0,0,.4,0,.79,0,1.19,2.49,0,4.99,0,7.48,0,0-.3,0-.6,0-.9.04.02.13.07.17.09v.96c-.18,0-.37.01-.55.02-.05,1.01.17,1.99.29,2.99.09.04.18.09.27.13,0,.17,0,.34-.01.52-2.56.01-5.16,0-7.78,0,0-.18-.02-.36-.03-.54.07-.02.19-.07.26-.09.12-1,.34-2,.3-3.02-.18,0-.36,0-.54,0-.01-.51-.01-1.01,0-1.52.18,0,.36-.01.54-.01,0-.44,0-.89-.01-1.33-.24-.22-.16-.55-.18-.83.21.04.43.07.64.11.24-.08.52-.15.71.08.17-.17.4-.17.63-.18v.64s-.14.11-.19.14c0,.46,0,.91,0,1.37.19,0,.39,0,.58,0,0,.22,0,.44.01.65.12,0,.24,0,.36,0,0-.87,0-1.75,0-2.62-.05-.04-.14-.13-.19-.18.01-.24.03-.49.04-.73Z" style="fill:#231f20;"/><path d="M12.29,41.85c0,.15-.01.29-.02.44.32,0,.88,0,1.66,0-.06-.12.05-.42-.14-.42-.03.05-.1.16-.13.21-.14,0-.27,0-.4,0-.03-.05-.09-.16-.13-.21-.2.35-.63.24-.85-.02Z" style="fill:#e8b70b;"/><path d="M12.48,42.47c0,.48,0,.95,0,1.43.09,0,.26,0,.35,0,0,.22,0,.44,0,.66.21,0,.43,0,.64,0,0-.21,0-.42,0-.63.07-.01.21-.04.28-.05,0-.47,0-.94,0-1.41-.43,0-.85,0-1.27,0Z" style="fill:#e8b70b; stroke:#231f20; stroke-miterlimit:10; stroke-width:.03px;"/><path d="M12.48,45.44c.07,1.03-.18,2.04-.29,3.06.93,0,1.86,0,2.79,0,.03-.53-.07-1.07.06-1.59.14-.36.94-.94,1.29.03.1.51.02,1.04.04,1.56.93,0,1.86,0,2.8,0-.12-1.02-.36-2.03-.3-3.06-2.13,0-4.26,0-6.39,0Z" style="fill:#e8b70b;"/><path d="M11.93,48.67v.24c2.5,0,5,0,7.5,0-.01-.06-.03-.18-.04-.24-2.49-.02-4.97,0-7.46-.01Z" style="fill:#e8b70b;"/><path d="M12.83,42.79c.1-.22.46-.25.57-.02.08.25.03.52.03.79-.21,0-.42,0-.63,0,0-.25,0-.51.03-.76Z" style="fill:#231f20;"/><path d="M13.19,45.93c.1-.3.57-.32.68-.02.05.29.03.59.03.89-.57,0-.84,0-.74,0,0-.29-.03-.58.03-.87Z" style="fill:#231f20; stroke:#231f20; stroke-miterlimit:10; stroke-width:.03px;"/><path d="M17.5,45.93c.1-.3.57-.32.68-.02.05.29.03.59.03.89-.57,0-.84,0-.74,0,0-.29-.03-.58.03-.87Z" style="fill:#231f20; stroke:#231f20; stroke-miterlimit:10; stroke-width:.03px;"/><path d="M17.41,66.36c.55-.01,1.1,0,1.64,0,0-.11,0-.32,0-.43-.1.08-.2.15-.3.23-.19,0-.36-.04-.49-.17-.15.15-.35.16-.55.17-.06-.07-.19-.2-.25-.26-.02.15-.03.31-.04.47Z" style="fill:#e8b70b; stroke:#231f20; stroke-miterlimit:10; stroke-width:.03px;"/><path d="M16.02,68.14c-.23,0-.46,0-.69,0,0,.21,0,.43,0,.65-.32,0-.64,0-.96,0,0-.22,0-.44-.01-.65-.23,0-.46,0-.69-.01,0,.22-.02.44-.03.67-.31,0-.63,0-.94,0,0-.22,0-.44-.01-.65-.25,0-.49,0-.74,0,0,.4,0,.79,0,1.19,2.5-.01,5,.01,7.49-.01-.01-.39-.01-.79-.01-1.18-.24,0-.48,0-.72,0,0,.21,0,.43-.01.65-.33,0-.65,0-.98,0,0-.22,0-.43,0-.65-.23,0-.46,0-.69,0,0,.22,0,.43-.01.65-.2,0-.4,0-.61.01-.06-.07-.01-.14-.07-.21v-.14c.07-.85-.03-1.69-.01-2.55-.43,0-.85,0-1.28,0,0,.75,0,1.5,0,2.25.01.18-.04.39.1.53.02-.24.03-.47.03-.71.33,0,.66,0,.99-.01" style="fill:#e8b70b; stroke:#231f20; stroke-miterlimit:10; stroke-width:.03px;"/><path d="M16.02,68.14c-.23,0-.46,0-.69,0,0,.21,0,.43,0,.65-.32,0-.64,0-.96,0,0-.22,0-.44-.01-.65-.23,0-.46,0-.69-.01,0,.22-.02.44-.03.67-.31,0-.63,0-.94,0,0-.22,0-.44-.01-.65-.25,0-.49,0-.74,0,0,.4,0,.79,0,1.19,2.5-.01,5,.01,7.49-.01-.01-.39-.01-.79-.01-1.18-.24,0-.48,0-.72,0,0,.21,0,.43-.01.65-.33,0-.65,0-.98,0,0-.22,0-.43,0-.65-.23,0-.46,0-.69,0,0,.22.01.44,0,.65-.2,0-.42,0-.62,0-.06-.07-.01-.14-.07-.21v-.14c.07-.85-.03-1.69-.01-2.55-.43,0-.85,0-1.28,0,0,.75,0,1.5,0,2.25.01.18-.04.39.1.53.02-.24.03-.47.03-.71.33,0,.66,0,.99-.01" style="fill:#e8b70b; stroke:#231f20; stroke-miterlimit:10; stroke-width:.03px;"/><path d="M16.02,68.14c-.24,0-.47,0-.69,0,0,.21,0,.43,0,.65-.32,0-.64,0-.96,0,0-.22,0-.44-.01-.65-.23,0-.46,0-.69-.01,0,.22-.02.44-.03.67-.31,0-.63,0-.94,0,0-.22,0-.44-.01-.65-.25,0-.49,0-.74,0,0,.4,0,.79,0,1.19,2.5-.01,5,.01,7.49-.01-.01-.39-.01-.79-.01-1.18-.24,0-.48,0-.72,0,0,.21,0,.43-.01.65-.33,0-.65,0-.98,0,0-.22,0-.43,0-.65-.23,0-.46,0-.69,0,0,.22,0,.43-.01.65-.2,0-.5,0-.68,0v-.34c.03-.85-.03-1.69-.01-2.54-.43,0-.85,0-1.28,0,0,.75,0,1.5,0,2.25.01.18-.04.39.1.53.02-.24.03-.47.03-.71.33,0,.66,0,.99-.01v.63h.21s0,.2,0,.2h-.35v-.65Z" style="fill:#e8b70b; stroke:#231f20; stroke-miterlimit:10; stroke-width:.03px;"/><path d="M12.48,66.54c0,.48,0,.95,0,1.43.08,0,.25,0,.34,0,.01.22.02.44.02.66.21,0,.43,0,.64,0,.04-.25-.14-.72.28-.69,0-.47,0-.93,0-1.4-.43,0-.85,0-1.27,0Z" style="fill:#e8b70b; stroke:#231f20; stroke-miterlimit:10; stroke-width:.03px;"/><path d="M17.6,66.54c0,.47.02.96.01,1.43.07.01.19,0,.26.01,0,.21,0,.43,0,.64.22,0,.43,0,.65,0,0-.22,0-.43.01-.65.08,0,.25,0,.34,0v-1.44c-.42,0-.85,0-1.27,0Z" style="fill:#e8b70b; stroke:#231f20; stroke-miterlimit:10; stroke-width:.03px;"/><path d="M12.48,69.49c.06,1.04-.17,2.05-.29,3.08.93,0,1.87,0,2.79,0,.03-.54-.08-1.09.07-1.61.24-.56,1.14-.49,1.29.1.07.5.01,1.01.03,1.51.93,0,1.86,0,2.79,0-.11-1.02-.36-2.04-.3-3.07-2.13,0-4.26,0-6.39,0Z" style="fill:#e8b70b;"/><path d="M11.93,72.73c0,.06,0,.19.01.26,2.49-.02,4.98.02,7.46-.02,0-.06.02-.18.03-.24-2.5,0-5,0-7.5,0Z" style="fill:#e8b70b;"/><path d="M15.37,66.97c.04-.31-.14-.79.23-.94.52-.05.39.61.39.94-.21,0-.42,0-.62,0Z" style="fill:#231f20;"/><path d="M12.81,67.61c.03-.32-.15-.94.35-.94.42.09.24.62.29.92-.21.01-.43.01-.64.02Z" style="fill:#231f20;"/><path d="M17.92,67.6c.03-.32-.15-.93.34-.94.43.09.25.63.29.93-.21,0-.42,0-.63,0Z" style="fill:#231f20;"/><path d="M13.16,70.87c.03-.37-.18-.99.32-1.11.59,0,.38.73.41,1.11-.24,0-.49,0-.73,0Z" style="fill:#231f20;"/><path d="M17.47,70.86c.05-.37-.19-1.03.35-1.11.55.06.34.74.38,1.11-.24,0-.48,0-.72,0Z" style="fill:#231f20;"/><path d="M39.19,81.52c1.23-.61,2.9-.32,3.73.81-.14.11-.28.23-.43.34-.34-.4-.78-.73-1.29-.85-.91-.24-1.95.09-2.52.85-.44.59-.54,1.39-.33,2.08.28.92,1.21,1.57,2.16,1.56.76.05,1.48-.31,1.98-.87.14.11.28.21.43.32-1.09,1.39-3.49,1.46-4.61.07-.56-.67-.74-1.6-.57-2.44.16-.81.72-1.5,1.45-1.87Z" style="fill:#231f20; stroke:#231f20; stroke-miterlimit:10; stroke-width:.03px;"/><path d="M32.14,81.34c.89,0,1.79,0,2.68,0,0,.17,0,.35,0,.53-.72,0-1.43,0-2.15,0,0,.55,0,1.11,0,1.67.71,0,1.43,0,2.14,0,0,.18,0,.35,0,.53-.72,0-1.43,0-2.15,0,0,.87,0,1.75,0,2.62-.18,0-.37,0-.55,0,.02-1.78,0-3.56.01-5.34Z" style="fill:#231f20; stroke:#231f20; stroke-miterlimit:10; stroke-width:.03px;"/><path d="M14.85,65.74c.55-.01,1.1,0,1.64,0,0-.11,0-.32,0-.43-.1.08-.2.15-.3.23-.19,0-.36-.04-.49-.17-.15.15-.35.16-.55.17-.06-.07-.19-.2-.25-.26-.02.15-.03.31-.04.47Z" style="fill:#e8b70b; stroke:#231f20; stroke-miterlimit:10; stroke-width:.03px;"/><path d="M12.3,66.36c.55-.01,1.1,0,1.64,0,0-.11,0-.32,0-.43-.1.08-.2.15-.3.23-.19,0-.36-.04-.49-.17-.15.15-.35.16-.55.17-.06-.07-.19-.2-.25-.26-.02.15-.03.31-.04.47Z" style="fill:#e8b70b; stroke:#231f20; stroke-miterlimit:10; stroke-width:.03px;"/><path d="M2.07,15.61c-.51,1.07.42,2.54,1.63,2.42-.47-.89-.93-1.78-1.41-2.67-.13,0-.17.15-.22.24Z" style="fill:#fff; stroke:#231f20; stroke-width:.03px;"/><path d="M72.32,15.32c-.47.9-.96,1.8-1.42,2.71,1.34.15,2.33-1.71,1.42-2.71Z" style="fill:#fff; stroke:#231f20; stroke-width:.03px;"/><polygon points="36.76 70.47 36.76 56.66 46.7 63.7 36.76 70.47" style="fill:#fff;"/><polyline points="20.68 59.84 20.68 70.49 36.76 70.49" style="fill:#fff; stroke:#231f20; stroke-miterlimit:10; stroke-width:.03px;"/><path d="M12.24,32.96c-.18-.92-.37-1.83-.57-2.75-.68.85-.47,2.3.57,2.75Z" style="fill:#da3620;"/><path d="M62.8,30.21c-.2.91-.38,1.83-.57,2.74,1.05-.44,1.25-1.9.57-2.74Z" style="fill:#da3620;"/><path d="M16.11,67.96s.05,0,.05,0v.63s.21,0,.22,0,0,.2,0,.2h-.35s0-.68,0-.69c0,0,.09-.14.09-.14Z" style="fill:#231f20;"/><path d="M35.8,105.43c0,.22-.01.43-.02.65.05.04.15.11.2.15-.04.88.05,1.76-.04,2.64-.08,0-.24.02-.33.03,0-.23-.01-.46-.03-.68-.19,0-.38,0-.56.01,0-.46,0-.92,0-1.38.05-.04.14-.11.19-.14,0-.19,0-.39-.02-.58-.15-.09-.41-.1-.52.07-.1.22-.2-.04-.26-.11-.14,0-.27-.01-.41-.01-.02.06-.07.18-.09.24-.07-.08-.15-.16-.22-.24-.15,0-.3,0-.45,0,0,.22,0,.43,0,.65.04.03.12.09.16.12.04.46,0,.93,0,1.39-.17,0-.37.02-.54.01-.02.51,0,.99.01,1.5.18,0,.36,0,.54,0,.05.97-.15,1.93-.27,2.89-.01.15-.1.22-.27.23,0,.18,0,.36,0,.55,3.05,0,5.65,0,7.8,0,0-.18,0-.37,0-.55-.06-.01-.19-.04-.26-.06-.12-1.01-.35-2.02-.29-3.04.1,0,.28,0,.54-.01,0-.5.01-1.01,0-1.51-.18,0-.36,0-.54,0,0-.46,0-.92,0-1.38.05-.04.14-.11.19-.14,0-.21,0-.42,0-.62-.14.01-.31-.04-.44.03-.09.02-.19.28-.27.08-.1-.16-.31-.1-.46-.12-.06.29-.24.18-.35.01-.15,0-.3,0-.45,0,0,.21,0,.43,0,.64.04.03.12.1.15.13.05.45,0,.91.01,1.37-.19,0-.39,0-.58,0,0,.22,0,.43-.01.65-.09,0-.27,0-.36,0,0-.83,0-1.65,0-2.48-.01-.14.05-.25.18-.32,0-.21,0-.42,0-.63-.15,0-.3-.02-.45-.03-.05.06-.14.19-.18.26-.04-.06-.12-.19-.16-.25-.12,0-.25,0-.37,0-.04.06-.11.17-.14.23-.07-.07-.15-.15-.22-.22-.14,0-.29,0-.43,0Z" style="fill:#231f20;"/><path d="M36.12,106.15c.43,0,.85,0,1.28,0-.02.85.03,1.71-.02,2.55l-.07.13c.06.07.12.14.18.21.2,0,.4,0,.61-.01,0-.22,0-.43.01-.65.23,0,.46,0,.69,0,0,.21,0,.43,0,.65.33,0,.65,0,.98,0,0-.22,0-.43.01-.65.24,0,.48,0,.72,0,0,.39,0,.79.01,1.18-2.5.03-4.99,0-7.49.01,0-.4,0-.8,0-1.19.25,0,.49,0,.74,0,0,.22,0,.43.01.65.31,0,.63,0,.94,0,.02-.22.03-.45.03-.67.23,0,.46,0,.69.01,0,.22,0,.43.01.65.32,0,.64,0,.96,0,0-.22,0-.43,0-.65.23,0,.46,0,.69,0,.05.23-.11.57.15.7,0-.3,0-.59-.01-.89-.33.01-.66.01-.99.01,0,.24-.01.47-.03.71-.15-.14-.09-.35-.1-.53,0-.75,0-1.5,0-2.25Z" style="fill:#fff; stroke:#231f20; stroke-miterlimit:10; stroke-width:.03px;"/><path d="M36.45,107.22c.21,0,.42,0,.62,0,0-.33.13-.99-.39-.94-.37.15-.19.63-.23.94Z" style="fill:#fff; stroke:#231f20; stroke-miterlimit:10; stroke-width:.03px;"/><path d="M33.57,106.79c.43,0,.85,0,1.27,0,0,.47,0,.93,0,1.4-.42-.03-.24.44-.28.69-.21,0-.43,0-.64,0,0-.22,0-.44-.02-.66-.08,0-.25,0-.34,0,0-.48,0-.95,0-1.43Z" style="fill:#fff; stroke:#231f20; stroke-miterlimit:10; stroke-width:.03px;"/><path d="M33.89,107.86c.21,0,.43-.01.64-.02-.05-.31.13-.83-.29-.92-.5,0-.32.62-.35.94Z" style="fill:#fff; stroke:#231f20; stroke-miterlimit:10; stroke-width:.03px;"/><path d="M38.69,106.79c.42,0,.85,0,1.27,0v1.42c-.08,0-.25.01-.34.02,0,.21,0,.43-.01.65-.22,0-.43,0-.65,0,0-.21,0-.42,0-.63-.07-.01-.21-.03-.28-.04,0-.47,0-.94,0-1.42Z" style="fill:#fff; stroke:#231f20; stroke-miterlimit:10; stroke-width:.03px;"/><path d="M39.01,107.86c.21,0,.42,0,.63,0-.04-.31.14-.85-.29-.93-.49,0-.31.62-.34.94Z" style="fill:#fff; stroke:#231f20; stroke-miterlimit:10; stroke-width:.03px;"/><path d="M33.57,109.74c2.13,0,4.26,0,6.39,0-.06,1.04.18,2.05.29,3.07-.93,0-1.86,0-2.79,0-.02-.5.04-1.01-.03-1.51-.15-.59-1.06-.65-1.29-.1-.14.52-.04,1.07-.07,1.61-.93,0-1.86,0-2.79,0,.12-1.02.36-2.04.29-3.08Z" style="fill:#fff; stroke:#231f20; stroke-miterlimit:10; stroke-width:.03px;"/><path d="M34.25,111.12c.24,0,.49,0,.73,0-.03-.38.18-1.11-.41-1.11-.5.11-.29.74-.32,1.11Z" style="fill:#fff; stroke:#231f20; stroke-miterlimit:10; stroke-width:.03px;"/><path d="M38.56,111.12c.24,0,.48,0,.72,0-.04-.37.18-1.05-.38-1.11-.54.09-.3.74-.35,1.11Z" style="fill:#fff; stroke:#231f20; stroke-miterlimit:10; stroke-width:.03px;"/><path d="M33.02,112.97c2.5,0,5,0,7.5,0,0,.06-.02.18-.03.24-2.49.04-4.97,0-7.46.02,0-.06,0-.19-.01-.26Z" style="fill:#fff; stroke:#231f20; stroke-miterlimit:10; stroke-width:.03px;"/><path d="M38.5,106.61c.55-.01,1.1,0,1.64,0,0-.11,0-.32,0-.43-.1.08-.2.15-.3.23-.19,0-.36-.04-.49-.17-.15.15-.35.16-.55.17-.06-.07-.19-.2-.25-.26-.02.15-.03.31-.04.47Z" style="fill:#e8b70b; stroke:#231f20; stroke-miterlimit:10; stroke-width:.03px;"/><path d="M37.11,108.39c-.23,0-.46,0-.69,0,0,.21,0,.43,0,.65-.32,0-.64,0-.96,0,0-.22,0-.44-.01-.65-.23,0-.46,0-.69-.01,0,.22-.02.44-.03.67-.31,0-.63,0-.94,0,0-.22,0-.44-.01-.65-.25,0-.49,0-.74,0,0,.4,0,.79,0,1.19,2.5-.01,5,.01,7.49-.01-.01-.39-.01-.79-.01-1.18-.24,0-.48,0-.72,0,0,.21,0,.43-.01.65-.33,0-.65,0-.98,0,0-.22,0-.43,0-.65-.23,0-.46,0-.69,0,0,.22,0,.43-.01.65-.2,0-.4,0-.61.01-.06-.07-.01-.14-.07-.21v-.14c.07-.85-.03-1.69-.01-2.55-.43,0-.85,0-1.28,0,0,.75,0,1.5,0,2.25.01.18-.04.39.1.53.02-.24.03-.47.03-.71.33,0,.66,0,.99-.01" style="fill:#e8b70b; stroke:#231f20; stroke-miterlimit:10; stroke-width:.03px;"/><path d="M37.11,108.39c-.23,0-.46,0-.69,0,0,.21,0,.43,0,.65-.32,0-.64,0-.96,0,0-.22,0-.44-.01-.65-.23,0-.46,0-.69-.01,0,.22-.02.44-.03.67-.31,0-.63,0-.94,0,0-.22,0-.44-.01-.65-.25,0-.49,0-.74,0,0,.4,0,.79,0,1.19,2.5-.01,5,.01,7.49-.01-.01-.39-.01-.79-.01-1.18-.24,0-.48,0-.72,0,0,.21,0,.43-.01.65-.33,0-.65,0-.98,0,0-.22,0-.43,0-.65-.23,0-.46,0-.69,0,0,.22.01.44,0,.65-.2,0-.42,0-.62,0-.06-.07-.01-.14-.07-.21v-.14c.07-.85-.03-1.69-.01-2.55-.43,0-.85,0-1.28,0,0,.75,0,1.5,0,2.25.01.18-.04.39.1.53.02-.24.03-.47.03-.71.33,0,.66,0,.99-.01" style="fill:#e8b70b; stroke:#231f20; stroke-miterlimit:10; stroke-width:.03px;"/><path d="M37.11,108.39c-.24,0-.47,0-.69,0,0,.21,0,.43,0,.65-.32,0-.64,0-.96,0,0-.22,0-.44-.01-.65-.23,0-.46,0-.69-.01,0,.22-.02.44-.03.67-.31,0-.63,0-.94,0,0-.22,0-.44-.01-.65-.25,0-.49,0-.74,0,0,.4,0,.79,0,1.19,2.5-.01,5,.01,7.49-.01-.01-.39-.01-.79-.01-1.18-.24,0-.48,0-.72,0,0,.21,0,.43-.01.65-.33,0-.65,0-.98,0,0-.22,0-.43,0-.65-.23,0-.46,0-.69,0,0,.22,0,.43-.01.65-.2,0-.5,0-.68,0v-.34c.03-.85-.03-1.69-.01-2.54-.43,0-.85,0-1.28,0,0,.75,0,1.5,0,2.25.01.18-.04.39.1.53.02-.24.03-.47.03-.71.33,0,.66,0,.99-.01v.63h.21s0,.2,0,.2h-.35v-.65Z" style="fill:#e8b70b; stroke:#231f20; stroke-miterlimit:10; stroke-width:.03px;"/><path d="M33.57,106.79c0,.48,0,.95,0,1.43.08,0,.25,0,.34,0,.01.22.02.44.02.66.21,0,.43,0,.64,0,.04-.25-.14-.72.28-.69,0-.47,0-.93,0-1.4-.43,0-.85,0-1.27,0Z" style="fill:#e8b70b; stroke:#231f20; stroke-miterlimit:10; stroke-width:.03px;"/><path d="M38.69,106.79c0,.47.02.96.01,1.43.07.01.19,0,.26.01,0,.21,0,.43,0,.64.22,0,.43,0,.65,0,0-.22,0-.43.01-.65.08,0,.25,0,.34,0v-1.44c-.42,0-.85,0-1.27,0Z" style="fill:#e8b70b; stroke:#231f20; stroke-miterlimit:10; stroke-width:.03px;"/><path d="M33.57,109.74c.06,1.04-.17,2.05-.29,3.08.93,0,1.87,0,2.79,0,.03-.54-.08-1.09.07-1.61.24-.56,1.14-.49,1.29.1.07.5.01,1.01.03,1.51.93,0,1.86,0,2.79,0-.11-1.02-.36-2.04-.3-3.07-2.13,0-4.26,0-6.39,0Z" style="fill:#e8b70b;"/><path d="M33.02,112.98c0,.06,0,.19.01.26,2.49-.02,4.98.02,7.46-.02,0-.06.02-.18.03-.24-2.5,0-5,0-7.5,0Z" style="fill:#e8b70b;"/><path d="M36.45,107.22c.04-.31-.14-.79.23-.94.52-.05.39.61.39.94-.21,0-.42,0-.62,0Z" style="fill:#231f20;"/><path d="M33.89,107.86c.03-.32-.15-.94.35-.94.42.09.24.62.29.92-.21.01-.43.01-.64.02Z" style="fill:#231f20;"/><path d="M39.01,107.86c.03-.32-.15-.93.34-.94.43.09.25.63.29.93-.21,0-.42,0-.63,0Z" style="fill:#231f20;"/><path d="M34.25,111.12c.03-.37-.18-.99.32-1.11.59,0,.38.73.41,1.11-.24,0-.49,0-.73,0Z" style="fill:#231f20;"/><path d="M38.56,111.12c.05-.37-.19-1.03.35-1.11.55.06.34.74.38,1.11-.24,0-.48,0-.72,0Z" style="fill:#231f20;"/><path d="M35.94,105.99c.55-.01,1.1,0,1.64,0,0-.11,0-.32,0-.43-.1.08-.2.15-.3.23-.19,0-.36-.04-.49-.17-.15.15-.35.16-.55.17-.06-.07-.19-.2-.25-.26-.02.15-.03.31-.04.47Z" style="fill:#e8b70b; stroke:#231f20; stroke-miterlimit:10; stroke-width:.03px;"/><path d="M33.38,106.61c.55-.01,1.1,0,1.64,0,0-.11,0-.32,0-.43-.1.08-.2.15-.3.23-.19,0-.36-.04-.49-.17-.15.15-.35.16-.55.17-.06-.07-.19-.2-.25-.26-.02.15-.03.31-.04.47Z" style="fill:#e8b70b; stroke:#231f20; stroke-miterlimit:10; stroke-width:.03px;"/><path d="M37.2,108.21s.05,0,.05,0v.63s.21,0,.22,0,0,.2,0,.2h-.35s0-.68,0-.69.09-.14.09-.14Z" style="fill:#231f20;"/><path d="M14.56,92.1c.08.2.16.4.23.61.06.02.18.05.24.06.3.82.72,1.61.98,2.45-.07.04-.22.11-.29.15-.09-.21-.19-.42-.29-.62-.17.08-.34.15-.52.23-.18-.43-.36-.85-.54-1.28.03-.05.09-.16.12-.21-.08-.18-.15-.36-.24-.53-.17-.02-.42.07-.45.26,0,.24-.2.04-.28,0-.13.05-.26.1-.38.15,0,.06,0,.19,0,.26-.1-.05-.2-.09-.3-.13-.14.06-.28.12-.42.18.08.2.17.4.26.6.05.01.15.03.19.04.22.41.36.85.54,1.28-.16.06-.34.16-.5.22.18.48.39.91.59,1.38.17-.07.33-.14.5-.21.43.87.6,1.84.86,2.77.05.14,0,.25-.16.31.07.17.14.33.22.5,2.81-1.18,5.21-2.18,7.19-3.02-.07-.17-.14-.34-.21-.51-.06.01-.19.03-.26.05-.5-.89-1.11-1.72-1.45-2.69.09-.04.26-.12.5-.22-.19-.47-.38-.94-.59-1.39-.17.07-.33.13-.5.2-.18-.42-.36-.85-.53-1.27.03-.05.09-.16.12-.21-.08-.19-.17-.38-.25-.57-.13.07-.3.08-.39.2-.08.06-.06.33-.22.18-.16-.11-.32.03-.47.06.06.29-.15.26-.32.15-.14.06-.28.11-.41.17.08.2.17.39.26.59.05.01.14.05.19.06.22.4.36.84.54,1.26-.18.07-.35.15-.53.23.08.2.16.4.24.6-.08.03-.25.1-.33.14-.32-.76-.65-1.52-.96-2.29-.06-.13-.05-.25.04-.36-.08-.2-.16-.39-.24-.58-.14.05-.28.1-.42.15-.02.08-.05.23-.07.31-.06-.04-.18-.13-.24-.17-.11.05-.23.1-.34.15-.01.07-.03.2-.04.26-.1-.04-.19-.08-.29-.12-.13.05-.27.11-.4.17Z" style="fill:#231f20;"/><path d="M15.14,92.64c.39-.17.78-.33,1.18-.49.31.79.69,1.56.96,2.37l-.02.15c.08.04.16.08.25.12.19-.08.37-.16.56-.25-.08-.2-.16-.4-.24-.6.21-.09.43-.17.64-.26.08.2.17.39.25.59.3-.12.6-.25.9-.38-.08-.2-.16-.4-.24-.6.22-.09.44-.18.66-.28.15.36.3.73.47,1.08-2.29.99-4.6,1.93-6.9,2.91-.15-.37-.31-.73-.46-1.1.23-.1.45-.19.68-.29.09.2.17.4.26.6.29-.12.58-.25.87-.36-.07-.21-.15-.42-.23-.63.21-.08.42-.17.64-.25.09.2.17.4.26.6.3-.13.59-.25.89-.38-.08-.2-.16-.4-.24-.6.21-.09.42-.18.64-.27.13.19.12.57.41.59-.12-.27-.22-.55-.35-.81-.3.14-.6.27-.91.4.08.22.17.44.24.67-.19-.07-.22-.29-.3-.45-.28-.69-.58-1.38-.86-2.07Z" style="fill:#fff; stroke:#231f20; stroke-miterlimit:10; stroke-width:.03px;"/><path d="M15.86,93.5c.19-.08.38-.16.57-.24-.13-.3-.26-.96-.72-.71-.28.28.07.66.15.95Z" style="fill:#fff; stroke:#231f20; stroke-miterlimit:10; stroke-width:.03px;"/><path d="M13.03,94.22c.39-.17.78-.33,1.17-.49.18.43.36.86.54,1.29-.4.13-.05.49.01.74-.2.08-.39.16-.59.25-.09-.2-.18-.41-.28-.6-.08.03-.23.1-.31.14-.18-.44-.37-.88-.55-1.32Z" style="fill:#fff; stroke:#231f20; stroke-miterlimit:10; stroke-width:.03px;"/><path d="M13.75,95.08c.19-.09.39-.17.58-.27-.16-.26-.2-.81-.62-.74-.46.2-.05.69.04,1Z" style="fill:#fff; stroke:#231f20; stroke-miterlimit:10; stroke-width:.03px;"/><path d="M17.75,92.24c.39-.16.78-.33,1.17-.49l.55,1.31c-.08.04-.23.11-.31.15.08.2.16.4.24.6-.2.08-.4.16-.6.25-.08-.19-.16-.39-.24-.58-.07.02-.21.05-.27.07-.18-.44-.36-.87-.54-1.31Z" style="fill:#fff; stroke:#231f20; stroke-miterlimit:10; stroke-width:.03px;"/><path d="M18.46,93.1c.19-.08.39-.17.58-.25-.16-.27-.2-.83-.62-.75-.45.2-.05.69.05,1Z" style="fill:#fff; stroke:#231f20; stroke-miterlimit:10; stroke-width:.03px;"/><path d="M14.17,96.94c1.96-.82,3.93-1.65,5.89-2.47.34.98.96,1.82,1.46,2.72-.86.36-1.72.72-2.57,1.08-.21-.46-.36-.95-.61-1.38-.36-.48-1.23-.19-1.23.41.07.54.38,1.01.56,1.51-.86.36-1.72.72-2.58,1.08-.29-.99-.46-2.02-.92-2.95Z" style="fill:#fff; stroke:#231f20; stroke-miterlimit:10; stroke-width:.03px;"/><path d="M15.33,97.95c.22-.1.45-.19.67-.29-.17-.34-.26-1.09-.81-.86-.42.3.02.8.13,1.15Z" style="fill:#fff; stroke:#231f20; stroke-miterlimit:10; stroke-width:.03px;"/><path d="M19.31,96.28c.22-.09.44-.19.67-.28-.18-.33-.25-1.04-.78-.88-.46.29,0,.8.11,1.16Z" style="fill:#fff; stroke:#231f20; stroke-miterlimit:10; stroke-width:.03px;"/><path d="M14.91,100.14c2.3-.97,4.61-1.93,6.92-2.9.02.06.05.18.07.24-2.28,1-4.59,1.92-6.87,2.9-.03-.06-.08-.17-.11-.23Z" style="fill:#fff; stroke:#231f20; stroke-miterlimit:10; stroke-width:.03px;"/><path d="M17.51,92.15c.5-.22,1.01-.43,1.51-.64-.04-.1-.13-.29-.17-.39-.07.11-.13.22-.19.33-.17.07-.35.1-.52.03-.08.2-.26.29-.44.37-.08-.04-.25-.11-.33-.14.04.15.09.3.15.44Z" style="fill:#e8b70b; stroke:#231f20; stroke-miterlimit:10; stroke-width:.03px;"/><path d="M16.92,94.33c-.21.09-.43.18-.64.27.08.2.16.4.24.6-.29.13-.59.25-.89.38-.09-.2-.17-.4-.26-.6-.21.09-.42.17-.64.25.08.21.15.42.23.63-.29.12-.58.24-.87.36-.09-.2-.18-.4-.26-.6-.23.09-.46.19-.68.29.15.37.31.73.46,1.1,2.3-.98,4.61-1.92,6.9-2.91-.16-.36-.32-.72-.47-1.08-.22.09-.44.18-.66.28.08.2.16.4.24.6-.3.13-.6.26-.9.38-.09-.2-.17-.4-.25-.59-.21.09-.43.17-.64.26.08.2.16.4.24.6-.19.08-.37.16-.56.25-.08-.04-.06-.12-.15-.17l-.04-.13c-.27-.81-.69-1.55-1.01-2.34-.39.16-.79.33-1.18.49.29.69.58,1.38.86,2.07.08.16.11.38.3.45-.07-.23-.16-.45-.24-.67.3-.13.61-.26.91-.4" style="fill:#e8b70b; stroke:#231f20; stroke-miterlimit:10; stroke-width:.03px;"/><path d="M16.91,94.33c-.21.09-.43.18-.64.27.08.2.16.4.24.6-.29.13-.59.25-.89.38-.09-.2-.17-.4-.26-.6-.21.09-.42.17-.64.25.08.21.15.42.23.63-.29.12-.58.24-.87.36-.09-.2-.18-.4-.26-.6-.23.09-.46.19-.68.29.15.37.31.73.46,1.1,2.3-.98,4.61-1.92,6.9-2.91-.16-.36-.32-.72-.47-1.08-.22.09-.44.18-.66.28.08.2.16.4.24.6-.3.13-.6.26-.9.38-.09-.2-.17-.4-.25-.59-.21.09-.43.17-.64.26.08.2.18.4.26.6-.19.08-.39.17-.57.25-.08-.04-.06-.12-.15-.17l-.04-.13c-.27-.81-.69-1.55-1.01-2.34-.39.16-.79.33-1.18.49.29.69.58,1.38.86,2.07.08.16.11.38.3.45-.07-.23-.16-.45-.24-.67.3-.13.61-.26.91-.4" style="fill:#e8b70b; stroke:#231f20; stroke-miterlimit:10; stroke-width:.03px;"/><path d="M16.92,94.33c-.22.09-.44.18-.64.27.08.2.16.4.24.6-.29.13-.59.25-.89.38-.09-.2-.17-.4-.26-.6-.21.09-.42.17-.64.25.08.21.15.42.23.63-.29.12-.58.24-.87.36-.09-.2-.18-.4-.26-.6-.23.09-.46.19-.68.29.15.37.31.73.46,1.1,2.3-.98,4.61-1.92,6.9-2.91-.16-.36-.32-.72-.47-1.08-.22.09-.44.18-.66.28.08.2.16.4.24.6-.3.13-.6.26-.9.38-.09-.2-.17-.4-.25-.59-.21.09-.43.17-.64.26.08.2.16.4.24.6-.19.08-.46.2-.62.26l-.13-.31c-.3-.8-.68-1.55-.99-2.34-.39.16-.79.33-1.18.49.29.69.58,1.38.86,2.07.08.16.11.38.3.45-.07-.23-.16-.45-.24-.67.3-.13.61-.26.91-.4l.24.58.19-.08s.08.18.08.18l-.32.14-.25-.6Z" style="fill:#e8b70b; stroke:#231f20; stroke-miterlimit:10; stroke-width:.03px;"/><path d="M13.03,94.22c.19.44.37.88.55,1.32.08-.03.23-.1.31-.14.1.2.19.4.28.6.19-.08.39-.16.59-.25-.06-.25-.41-.61-.01-.74-.18-.43-.36-.86-.54-1.29-.39.16-.78.33-1.17.49Z" style="fill:#e8b70b; stroke:#231f20; stroke-miterlimit:10; stroke-width:.03px;"/><path d="M17.75,92.24c.18.44.39.88.57,1.32.07-.02.18-.07.25-.09.08.19.17.39.25.59.2-.08.4-.17.6-.25-.08-.2-.16-.4-.24-.6.08-.04.23-.1.31-.13l-.55-1.32c-.39.16-.78.33-1.17.49Z" style="fill:#e8b70b; stroke:#231f20; stroke-miterlimit:10; stroke-width:.03px;"/><path d="M14.17,96.94c.46.93.63,1.96.92,2.95.86-.36,1.72-.72,2.58-1.08-.18-.51-.49-.98-.56-1.51,0-.6.87-.89,1.23-.41.26.44.4.93.61,1.38.86-.36,1.71-.72,2.57-1.08-.5-.9-1.12-1.74-1.46-2.72-1.97.82-3.93,1.65-5.89,2.47Z" style="fill:#e8b70b;"/><path d="M14.91,100.14c.03.06.08.17.11.23,2.29-.98,4.6-1.91,6.87-2.9-.02-.06-.05-.18-.07-.24-2.31.97-4.61,1.93-6.92,2.91Z" style="fill:#e8b70b;"/><path d="M15.86,93.5c-.08-.3-.43-.67-.15-.95.46-.25.59.41.72.71-.19.08-.38.16-.57.24Z" style="fill:#231f20;"/><path d="M13.75,95.08c-.09-.31-.51-.81-.04-1,.42-.08.46.47.62.74-.19.09-.39.18-.58.27Z" style="fill:#231f20;"/><path d="M18.46,93.1c-.09-.31-.5-.8-.05-1,.43-.08.47.48.62.75-.19.08-.39.16-.58.25Z" style="fill:#231f20;"/><path d="M15.33,97.95c-.11-.35-.55-.85-.13-1.15.54-.23.63.53.81.86-.22.09-.45.19-.67.29Z" style="fill:#231f20;"/><path d="M19.31,96.28c-.1-.36-.57-.88-.11-1.16.53-.16.6.55.78.88-.22.09-.45.19-.67.28Z" style="fill:#231f20;"/><path d="M14.91,92.57c.5-.22,1.01-.43,1.51-.64-.04-.1-.13-.29-.17-.39-.07.11-.13.22-.19.33-.17.07-.35.1-.52.03-.08.2-.26.29-.44.37-.08-.04-.25-.11-.33-.14.04.15.09.3.15.44Z" style="fill:#e8b70b; stroke:#231f20; stroke-miterlimit:10; stroke-width:.03px;"/><path d="M12.79,94.13c.5-.22,1.01-.43,1.51-.64-.04-.1-.13-.29-.17-.39-.07.11-.13.22-.19.33-.17.07-.35.1-.52.03-.08.2-.26.29-.44.37-.08-.04-.25-.11-.33-.14.04.15.09.3.15.44Z" style="fill:#e8b70b; stroke:#231f20; stroke-miterlimit:10; stroke-width:.03px;"/><path d="M16.93,94.13s.05-.02.05-.02l.24.58s.19-.08.2-.08.07.18.07.18l-.32.14s-.27-.63-.27-.63.03-.16.03-.16Z" style="fill:#231f20;"/><path d="M35.79,105.43c0,.22-.01.43-.02.65.05.04.15.11.2.15-.04.88.05,1.76-.04,2.64-.08,0-.24.02-.33.03,0-.23-.01-.46-.03-.68-.19,0-.38,0-.56.01,0-.46,0-.92,0-1.38.05-.04.14-.11.19-.14,0-.19,0-.39-.02-.58-.15-.09-.41-.1-.52.07-.1.22-.2-.04-.26-.11-.14,0-.27-.01-.41-.01-.02.06-.07.18-.09.24-.07-.08-.15-.16-.22-.24-.15,0-.3,0-.45,0,0,.22,0,.43,0,.65.04.03.12.09.16.12.04.46,0,.93,0,1.39-.17,0-.37.02-.54.01-.02.51,0,.99.01,1.5.18,0,.36,0,.54,0,.05.97-.15,1.93-.27,2.89-.01.15-.1.22-.27.23,0,.18,0,.36,0,.55,3.05,0,5.65,0,7.8,0,0-.18,0-.37,0-.55-.06-.01-.19-.04-.26-.06-.12-1.01-.35-2.02-.29-3.04.1,0,.28,0,.54-.01,0-.5.01-1.01,0-1.51-.18,0-.36,0-.54,0,0-.46,0-.92,0-1.38.05-.04.14-.11.19-.14,0-.21,0-.42,0-.62-.14.01-.31-.04-.44.03-.09.02-.19.28-.27.08-.1-.16-.31-.1-.46-.12-.06.29-.24.18-.35.01-.15,0-.3,0-.45,0,0,.21,0,.43,0,.64.04.03.12.1.15.13.05.45,0,.91.01,1.37-.19,0-.39,0-.58,0,0,.22,0,.43-.01.65-.09,0-.27,0-.36,0,0-.83,0-1.65,0-2.48-.01-.14.05-.25.18-.32,0-.21,0-.42,0-.63-.15,0-.3-.02-.45-.03-.05.06-.14.19-.18.26-.04-.06-.12-.19-.16-.25-.12,0-.25,0-.37,0-.04.06-.11.17-.14.23-.07-.07-.15-.15-.22-.22-.14,0-.29,0-.43,0Z" style="fill:#231f20;"/><path d="M36.12,106.15c.43,0,.85,0,1.28,0-.02.85.03,1.71-.02,2.55l-.07.13c.06.07.12.14.18.21.2,0,.4,0,.61-.01,0-.22,0-.43.01-.65.23,0,.46,0,.69,0,0,.21,0,.43,0,.65.33,0,.65,0,.98,0,0-.22,0-.43.01-.65.24,0,.48,0,.72,0,0,.39,0,.79.01,1.18-2.5.03-4.99,0-7.49.01,0-.4,0-.8,0-1.19.25,0,.49,0,.74,0,0,.22,0,.43.01.65.31,0,.63,0,.94,0,.02-.22.03-.45.03-.67.23,0,.46,0,.69.01,0,.22,0,.43.01.65.32,0,.64,0,.96,0,0-.22,0-.43,0-.65.23,0,.46,0,.69,0,.05.23-.11.57.15.7,0-.3,0-.59-.01-.89-.33.01-.66.01-.99.01,0,.24-.01.47-.03.71-.15-.14-.09-.35-.1-.53,0-.75,0-1.5,0-2.25Z" style="fill:#fff; stroke:#231f20; stroke-miterlimit:10; stroke-width:.03px;"/><path d="M36.45,107.22c.21,0,.42,0,.62,0,0-.33.13-.99-.39-.94-.37.15-.19.63-.23.94Z" style="fill:#fff; stroke:#231f20; stroke-miterlimit:10; stroke-width:.03px;"/><path d="M33.56,106.79c.43,0,.85,0,1.27,0,0,.47,0,.93,0,1.4-.42-.03-.24.44-.28.69-.21,0-.43,0-.64,0,0-.22,0-.44-.02-.66-.08,0-.25,0-.34,0,0-.48,0-.95,0-1.43Z" style="fill:#fff; stroke:#231f20; stroke-miterlimit:10; stroke-width:.03px;"/><path d="M33.89,107.86c.21,0,.43-.01.64-.02-.05-.31.13-.83-.29-.92-.5,0-.32.62-.35.94Z" style="fill:#fff; stroke:#231f20; stroke-miterlimit:10; stroke-width:.03px;"/><path d="M38.68,106.79c.42,0,.85,0,1.27,0v1.42c-.08,0-.25.01-.34.02,0,.21,0,.43-.01.65-.22,0-.43,0-.65,0,0-.21,0-.42,0-.63-.07-.01-.21-.03-.28-.04,0-.47,0-.94,0-1.42Z" style="fill:#fff; stroke:#231f20; stroke-miterlimit:10; stroke-width:.03px;"/><path d="M39.01,107.86c.21,0,.42,0,.63,0-.04-.31.14-.85-.29-.93-.49,0-.31.62-.34.94Z" style="fill:#fff; stroke:#231f20; stroke-miterlimit:10; stroke-width:.03px;"/><path d="M33.56,109.74c2.13,0,4.26,0,6.39,0-.06,1.04.18,2.05.29,3.07-.93,0-1.86,0-2.79,0-.02-.5.04-1.01-.03-1.51-.15-.59-1.06-.65-1.29-.1-.14.52-.04,1.07-.07,1.61-.93,0-1.86,0-2.79,0,.12-1.02.36-2.04.29-3.08Z" style="fill:#fff; stroke:#231f20; stroke-miterlimit:10; stroke-width:.03px;"/><path d="M34.24,111.12c.24,0,.49,0,.73,0-.03-.38.18-1.11-.41-1.11-.5.11-.29.74-.32,1.11Z" style="fill:#fff; stroke:#231f20; stroke-miterlimit:10; stroke-width:.03px;"/><path d="M38.55,111.12c.24,0,.48,0,.72,0-.04-.37.18-1.05-.38-1.11-.54.09-.3.74-.35,1.11Z" style="fill:#fff; stroke:#231f20; stroke-miterlimit:10; stroke-width:.03px;"/><path d="M33.01,112.97c2.5,0,5,0,7.5,0,0,.06-.02.18-.03.24-2.49.04-4.97,0-7.46.02,0-.06,0-.19-.01-.26Z" style="fill:#fff; stroke:#231f20; stroke-miterlimit:10; stroke-width:.03px;"/><path d="M38.49,106.61c.55-.01,1.1,0,1.64,0,0-.11,0-.32,0-.43-.1.08-.2.15-.3.23-.19,0-.36-.04-.49-.17-.15.15-.35.16-.55.17-.06-.07-.19-.2-.25-.26-.02.15-.03.31-.04.47Z" style="fill:#e8b70b; stroke:#231f20; stroke-miterlimit:10; stroke-width:.03px;"/><path d="M37.11,108.39c-.23,0-.46,0-.69,0,0,.21,0,.43,0,.65-.32,0-.64,0-.96,0,0-.22,0-.44-.01-.65-.23,0-.46,0-.69-.01,0,.22-.02.44-.03.67-.31,0-.63,0-.94,0,0-.22,0-.44-.01-.65-.25,0-.49,0-.74,0,0,.4,0,.79,0,1.19,2.5-.01,5,.01,7.49-.01-.01-.39-.01-.79-.01-1.18-.24,0-.48,0-.72,0,0,.21,0,.43-.01.65-.33,0-.65,0-.98,0,0-.22,0-.43,0-.65-.23,0-.46,0-.69,0,0,.22,0,.43-.01.65-.2,0-.4,0-.61.01-.06-.07-.01-.14-.07-.21v-.14c.07-.85-.03-1.69-.01-2.55-.43,0-.85,0-1.28,0,0,.75,0,1.5,0,2.25.01.18-.04.39.1.53.02-.24.03-.47.03-.71.33,0,.66,0,.99-.01" style="fill:#e8b70b; stroke:#231f20; stroke-miterlimit:10; stroke-width:.03px;"/><path d="M37.1,108.39c-.23,0-.46,0-.69,0,0,.21,0,.43,0,.65-.32,0-.64,0-.96,0,0-.22,0-.44-.01-.65-.23,0-.46,0-.69-.01,0,.22-.02.44-.03.67-.31,0-.63,0-.94,0,0-.22,0-.44-.01-.65-.25,0-.49,0-.74,0,0,.4,0,.79,0,1.19,2.5-.01,5,.01,7.49-.01-.01-.39-.01-.79-.01-1.18-.24,0-.48,0-.72,0,0,.21,0,.43-.01.65-.33,0-.65,0-.98,0,0-.22,0-.43,0-.65-.23,0-.46,0-.69,0,0,.22.01.44,0,.65-.2,0-.42,0-.62,0-.06-.07-.01-.14-.07-.21v-.14c.07-.85-.03-1.69-.01-2.55-.43,0-.85,0-1.28,0,0,.75,0,1.5,0,2.25.01.18-.04.39.1.53.02-.24.03-.47.03-.71.33,0,.66,0,.99-.01" style="fill:#e8b70b; stroke:#231f20; stroke-miterlimit:10; stroke-width:.03px;"/><path d="M37.11,108.39c-.24,0-.47,0-.69,0,0,.21,0,.43,0,.65-.32,0-.64,0-.96,0,0-.22,0-.44-.01-.65-.23,0-.46,0-.69-.01,0,.22-.02.44-.03.67-.31,0-.63,0-.94,0,0-.22,0-.44-.01-.65-.25,0-.49,0-.74,0,0,.4,0,.79,0,1.19,2.5-.01,5,.01,7.49-.01-.01-.39-.01-.79-.01-1.18-.24,0-.48,0-.72,0,0,.21,0,.43-.01.65-.33,0-.65,0-.98,0,0-.22,0-.43,0-.65-.23,0-.46,0-.69,0,0,.22,0,.43-.01.65-.2,0-.5,0-.68,0v-.34c.03-.85-.03-1.69-.01-2.54-.43,0-.85,0-1.28,0,0,.75,0,1.5,0,2.25.01.18-.04.39.1.53.02-.24.03-.47.03-.71.33,0,.66,0,.99-.01v.63h.21s0,.2,0,.2h-.35v-.65Z" style="fill:#e8b70b; stroke:#231f20; stroke-miterlimit:10; stroke-width:.03px;"/><path d="M33.57,106.79c0,.48,0,.95,0,1.43.08,0,.25,0,.34,0,.01.22.02.44.02.66.21,0,.43,0,.64,0,.04-.25-.14-.72.28-.69,0-.47,0-.93,0-1.4-.43,0-.85,0-1.27,0Z" style="fill:#e8b70b; stroke:#231f20; stroke-miterlimit:10; stroke-width:.03px;"/><path d="M38.68,106.79c0,.47.02.96.01,1.43.07.01.19,0,.26.01,0,.21,0,.43,0,.64.22,0,.43,0,.65,0,0-.22,0-.43.01-.65.08,0,.25,0,.34,0v-1.44c-.42,0-.85,0-1.27,0Z" style="fill:#e8b70b; stroke:#231f20; stroke-miterlimit:10; stroke-width:.03px;"/><path d="M33.56,109.74c.06,1.04-.17,2.05-.29,3.08.93,0,1.87,0,2.79,0,.03-.54-.08-1.09.07-1.61.24-.56,1.14-.49,1.29.1.07.5.01,1.01.03,1.51.93,0,1.86,0,2.79,0-.11-1.02-.36-2.04-.3-3.07-2.13,0-4.26,0-6.39,0Z" style="fill:#e8b70b;"/><path d="M33.01,112.98c0,.06,0,.19.01.26,2.49-.02,4.98.02,7.46-.02,0-.06.02-.18.03-.24-2.5,0-5,0-7.5,0Z" style="fill:#e8b70b;"/><path d="M36.45,107.22c.04-.31-.14-.79.23-.94.52-.05.39.61.39.94-.21,0-.42,0-.62,0Z" style="fill:#231f20;"/><path d="M33.89,107.86c.03-.32-.15-.94.35-.94.42.09.24.62.29.92-.21.01-.43.01-.64.02Z" style="fill:#231f20;"/><path d="M39.01,107.86c.03-.32-.15-.93.34-.94.43.09.25.63.29.93-.21,0-.42,0-.63,0Z" style="fill:#231f20;"/><path d="M34.24,111.12c.03-.37-.18-.99.32-1.11.59,0,.38.73.41,1.11-.24,0-.49,0-.73,0Z" style="fill:#231f20;"/><path d="M38.55,111.12c.05-.37-.19-1.03.35-1.11.55.06.34.74.38,1.11-.24,0-.48,0-.72,0Z" style="fill:#231f20;"/><path d="M35.93,105.99c.55-.01,1.1,0,1.64,0,0-.11,0-.32,0-.43-.1.08-.2.15-.3.23-.19,0-.36-.04-.49-.17-.15.15-.35.16-.55.17-.06-.07-.19-.2-.25-.26-.02.15-.03.31-.04.47Z" style="fill:#e8b70b; stroke:#231f20; stroke-miterlimit:10; stroke-width:.03px;"/><path d="M33.38,106.61c.55-.01,1.1,0,1.64,0,0-.11,0-.32,0-.43-.1.08-.2.15-.3.23-.19,0-.36-.04-.49-.17-.15.15-.35.16-.55.17-.06-.07-.19-.2-.25-.26-.02.15-.03.31-.04.47Z" style="fill:#e8b70b; stroke:#231f20; stroke-miterlimit:10; stroke-width:.03px;"/><path d="M37.19,108.21s.05,0,.05,0v.63s.21,0,.22,0,0,.2,0,.2h-.35s0-.68,0-.69.09-.14.09-.14Z" style="fill:#231f20;"/><path d="M57.07,91.35c-.09.2-.18.39-.27.59.03.05.09.16.13.21-.37.8-.63,1.65-1.04,2.42-.08-.02-.23-.07-.31-.1.08-.21.16-.43.23-.64-.18-.07-.35-.14-.53-.21.17-.43.35-.85.52-1.28.06-.02.17-.05.23-.06.07-.18.15-.36.2-.55-.1-.14-.34-.25-.5-.13-.18.17-.16-.11-.2-.2-.13-.06-.25-.11-.38-.17-.04.05-.13.14-.18.19-.04-.1-.08-.2-.12-.3-.14-.06-.28-.11-.42-.17-.08.2-.16.4-.24.61.03.04.08.13.11.17-.13.44-.34.86-.52,1.29-.16-.07-.35-.12-.51-.19-.21.47-.37.92-.56,1.39.17.07.33.14.5.21-.32.92-.87,1.72-1.35,2.56-.07.13-.18.17-.33.11-.07.17-.14.34-.2.51,2.82,1.15,5.22,2.15,7.22,2.96.07-.17.14-.34.21-.5-.05-.04-.16-.11-.21-.15.28-.98.44-2,.88-2.93.09.04.26.1.51.2.2-.46.4-.93.57-1.4-.16-.07-.33-.14-.49-.21.17-.43.35-.85.52-1.27.06-.02.17-.05.23-.06.08-.19.15-.39.23-.58-.14-.04-.27-.15-.41-.14-.09-.02-.28.19-.28-.03-.03-.19-.25-.21-.38-.29-.16.24-.29.08-.33-.12-.14-.06-.27-.12-.41-.17-.08.2-.16.4-.24.6.02.04.07.13.09.18-.13.44-.34.85-.51,1.28-.18-.07-.36-.14-.54-.21-.09.2-.17.4-.26.6-.08-.03-.25-.1-.33-.13.32-.76.62-1.53.94-2.29.04-.14.14-.21.28-.23.08-.19.16-.39.25-.58-.14-.07-.27-.13-.41-.19-.07.04-.2.13-.27.17-.01-.07-.04-.22-.05-.29-.12-.05-.23-.09-.35-.14-.05.04-.16.12-.22.16-.04-.1-.08-.19-.12-.29-.13-.06-.27-.11-.4-.17Z" style="fill:#231f20;"/><path d="M57.1,92.15c.39.16.79.32,1.18.49-.34.78-.62,1.59-.99,2.35l-.12.09c.03.09.06.17.09.26.19.07.38.15.57.22.09-.2.17-.4.26-.6.21.09.42.18.63.27-.08.2-.16.4-.24.6.3.13.6.25.9.37.09-.2.17-.4.26-.59.22.09.44.18.66.27-.15.36-.3.73-.44,1.1-2.32-.92-4.62-1.9-6.93-2.83.15-.37.3-.74.45-1.1.23.09.46.19.68.28-.08.2-.16.4-.24.61.29.12.58.24.87.36.1-.2.19-.4.29-.6.21.09.42.18.63.27-.08.2-.16.4-.24.61.3.12.6.24.9.36.08-.2.17-.4.25-.59.21.09.43.17.64.26-.04.23-.32.49-.13.71.11-.28.23-.55.33-.82-.31-.12-.62-.24-.92-.36-.1.22-.19.43-.3.64-.09-.19.05-.36.1-.53.29-.69.57-1.38.86-2.08Z" style="fill:#fff; stroke:#231f20; stroke-miterlimit:10; stroke-width:.03px;"/><path d="M57,93.26c.19.08.38.16.58.24.12-.3.5-.87,0-1.02-.4,0-.41.51-.57.78Z" style="fill:#fff; stroke:#231f20; stroke-miterlimit:10; stroke-width:.03px;"/><path d="M54.49,91.76c.39.16.79.32,1.18.48-.18.43-.35.86-.53,1.29-.37-.19-.38.31-.52.53-.2-.08-.39-.16-.59-.24.08-.21.16-.41.23-.62-.08-.03-.24-.09-.31-.12.18-.44.36-.88.54-1.32Z" style="fill:#fff; stroke:#231f20; stroke-miterlimit:10; stroke-width:.03px;"/><path d="M54.39,92.88c.2.07.4.15.6.22.07-.3.43-.72.08-.96-.47-.19-.53.45-.68.74Z" style="fill:#fff; stroke:#231f20; stroke-miterlimit:10; stroke-width:.03px;"/><path d="M59.23,93.71c.39.16.78.32,1.18.48l-.54,1.32c-.08-.03-.24-.09-.32-.11-.09.2-.17.4-.26.59-.2-.08-.4-.17-.6-.25.08-.19.16-.39.24-.58-.06-.04-.18-.11-.24-.15.18-.44.36-.87.54-1.31Z" style="fill:#fff; stroke:#231f20; stroke-miterlimit:10; stroke-width:.03px;"/><path d="M59.12,94.82c.2.08.39.16.58.24.08-.3.45-.73.09-.97-.46-.18-.52.45-.67.74Z" style="fill:#fff; stroke:#231f20; stroke-miterlimit:10; stroke-width:.03px;"/><path d="M53.37,94.49c1.97.81,3.94,1.62,5.91,2.43-.45.93-.61,1.97-.9,2.96-.86-.36-1.72-.71-2.58-1.06.17-.47.42-.92.55-1.41.08-.6-.73-1.01-1.16-.58-.33.43-.44.98-.68,1.46-.86-.35-1.72-.71-2.58-1.06.5-.9,1.1-1.75,1.44-2.73Z" style="fill:#fff; stroke:#231f20; stroke-miterlimit:10; stroke-width:.03px;"/><path d="M53.47,96.03c.23.09.45.18.68.28.12-.36.59-.95.04-1.18-.51-.08-.55.58-.72.9Z" style="fill:#fff; stroke:#231f20; stroke-miterlimit:10; stroke-width:.03px;"/><path d="M57.46,97.66c.22.09.45.18.67.27.11-.36.56-.91.08-1.17-.53-.12-.56.57-.75.9Z" style="fill:#fff; stroke:#231f20; stroke-miterlimit:10; stroke-width:.03px;"/><path d="M51.63,97.28c2.32.94,4.63,1.9,6.94,2.85-.03.05-.09.16-.12.21-2.31-.91-4.6-1.89-6.91-2.82.02-.06.06-.18.09-.24Z" style="fill:#fff; stroke:#231f20; stroke-miterlimit:10; stroke-width:.03px;"/><path d="M59.12,93.47c.51.19,1.02.41,1.52.62.04-.1.12-.3.15-.4-.12.03-.25.06-.37.1-.17-.07-.31-.18-.39-.35-.2.08-.39.02-.57-.05-.03-.08-.1-.25-.13-.34-.07.14-.14.28-.21.42Z" style="fill:#e8b70b; stroke:#231f20; stroke-miterlimit:10; stroke-width:.03px;"/><path d="M57.16,94.59c-.21-.09-.43-.18-.64-.26-.08.2-.17.4-.25.59-.3-.12-.6-.24-.9-.36.08-.2.16-.4.24-.61-.21-.09-.42-.18-.63-.27-.09.2-.19.4-.29.6-.29-.13-.58-.25-.87-.36.08-.21.16-.41.24-.61-.23-.09-.46-.19-.68-.28-.15.37-.3.74-.45,1.1,2.32.94,4.62,1.91,6.93,2.83.14-.37.29-.73.44-1.1-.22-.09-.44-.18-.66-.27-.09.2-.17.4-.26.59-.3-.12-.6-.24-.9-.37.08-.2.16-.4.24-.6-.21-.09-.42-.18-.63-.27-.09.2-.17.4-.26.6-.19-.07-.38-.15-.57-.22-.03-.09.04-.13.01-.22l.06-.12c.38-.76.61-1.58.95-2.36-.39-.16-.79-.32-1.18-.49-.29.69-.57,1.39-.86,2.08-.05.17-.19.35-.1.53.11-.21.2-.43.3-.64.31.12.61.25.92.36" style="fill:#e8b70b; stroke:#231f20; stroke-miterlimit:10; stroke-width:.03px;"/><path d="M57.16,94.59c-.21-.09-.43-.18-.64-.26-.08.2-.17.4-.25.59-.3-.12-.6-.24-.9-.36.08-.2.16-.4.24-.61-.21-.09-.42-.18-.63-.27-.09.2-.19.4-.29.6-.29-.13-.58-.25-.87-.36.08-.21.16-.41.24-.61-.23-.09-.46-.19-.68-.28-.15.37-.3.74-.45,1.1,2.32.94,4.62,1.91,6.93,2.83.14-.37.29-.73.44-1.1-.22-.09-.44-.18-.66-.27-.09.2-.17.4-.26.59-.3-.12-.6-.24-.9-.37.08-.2.16-.4.24-.6-.21-.09-.42-.18-.63-.27-.09.2-.16.41-.24.61-.19-.07-.39-.16-.58-.23-.03-.09.04-.13.01-.22l.06-.12c.38-.76.61-1.58.95-2.36-.39-.16-.79-.32-1.18-.49-.29.69-.57,1.39-.86,2.08-.05.17-.19.35-.1.53.11-.21.2-.43.3-.64.31.12.61.25.92.36" style="fill:#e8b70b; stroke:#231f20; stroke-miterlimit:10; stroke-width:.03px;"/><path d="M57.16,94.59c-.22-.09-.44-.18-.64-.26-.08.2-.17.4-.25.59-.3-.12-.6-.24-.9-.36.08-.2.16-.4.24-.61-.21-.09-.42-.18-.63-.27-.09.2-.19.4-.29.6-.29-.13-.58-.25-.87-.36.08-.21.16-.41.24-.61-.23-.09-.46-.19-.68-.28-.15.37-.3.74-.45,1.1,2.32.94,4.62,1.91,6.93,2.83.14-.37.29-.73.44-1.1-.22-.09-.44-.18-.66-.27-.09.2-.17.4-.26.59-.3-.12-.6-.24-.9-.37.08-.2.16-.4.24-.6-.21-.09-.42-.18-.63-.27-.09.2-.17.4-.26.6-.19-.07-.46-.18-.63-.26l.13-.31c.35-.78.62-1.58.96-2.36-.39-.16-.79-.32-1.18-.49-.29.69-.57,1.39-.86,2.08-.05.17-.19.35-.1.53.11-.21.2-.43.3-.64.31.12.61.25.92.36l-.24.58.19.08s-.07.18-.07.18l-.32-.13.25-.6Z" style="fill:#e8b70b; stroke:#231f20; stroke-miterlimit:10; stroke-width:.03px;"/><path d="M54.5,91.76c-.18.44-.36.88-.54,1.32.08.03.24.09.31.12-.07.21-.15.41-.23.62.2.08.39.16.59.24.13-.22.15-.72.52-.53.18-.43.35-.86.53-1.29-.39-.16-.78-.32-1.18-.48Z" style="fill:#e8b70b; stroke:#231f20; stroke-miterlimit:10; stroke-width:.03px;"/><path d="M59.23,93.71c-.18.44-.35.9-.53,1.33.06.04.17.08.24.11-.08.19-.16.4-.24.59.2.08.4.16.6.25.09-.2.17-.4.26-.59.08.03.23.1.31.13l.55-1.33c-.39-.16-.78-.32-1.18-.48Z" style="fill:#e8b70b; stroke:#231f20; stroke-miterlimit:10; stroke-width:.03px;"/><path d="M53.37,94.49c-.34.98-.94,1.83-1.44,2.73.87.35,1.73.71,2.59,1.06.23-.48.34-1.04.67-1.46.43-.42,1.24-.02,1.16.58-.13.49-.37.94-.55,1.41.86.35,1.72.7,2.58,1.06.28-.99.44-2.02.89-2.96-1.97-.81-3.94-1.62-5.91-2.43Z" style="fill:#e8b70b;"/><path d="M51.63,97.28c-.02.06-.06.18-.09.24,2.31.93,4.6,1.91,6.91,2.81.03-.05.09-.16.12-.21-2.32-.95-4.63-1.9-6.94-2.84Z" style="fill:#e8b70b;"/><path d="M57,93.26c.16-.27.17-.78.57-.78.5.15.13.71,0,1.02-.19-.08-.38-.16-.58-.24Z" style="fill:#231f20;"/><path d="M54.39,92.88c.15-.29.21-.93.68-.74.35.24-.01.66-.08.96-.2-.07-.4-.15-.6-.22Z" style="fill:#231f20;"/><path d="M59.12,94.82c.15-.28.21-.92.67-.74.36.25-.01.67-.09.97-.19-.08-.39-.16-.58-.24Z" style="fill:#231f20;"/><path d="M53.47,96.03c.17-.33.21-.99.72-.9.54.22.07.82-.04,1.18-.23-.09-.45-.19-.68-.28Z" style="fill:#231f20;"/><path d="M57.46,97.66c.18-.33.22-1.02.75-.9.49.27.03.81-.08,1.17-.22-.09-.45-.18-.67-.27Z" style="fill:#231f20;"/><path d="M56.99,91.93c.51.19,1.02.41,1.52.62.04-.1.12-.3.15-.4-.12.03-.25.06-.37.1-.17-.07-.31-.18-.39-.35-.2.08-.39.02-.57-.05-.03-.08-.1-.25-.13-.34-.07.14-.14.28-.21.42Z" style="fill:#e8b70b; stroke:#231f20; stroke-miterlimit:10; stroke-width:.03px;"/><path d="M54.39,91.53c.51.19,1.02.41,1.52.62.04-.1.12-.3.15-.4-.12.03-.25.06-.37.1-.17-.07-.31-.18-.39-.35-.2.08-.39.02-.57-.05-.03-.08-.1-.25-.13-.34-.07.14-.14.28-.21.42Z" style="fill:#e8b70b; stroke:#231f20; stroke-miterlimit:10; stroke-width:.03px;"/><path d="M57.31,94.45s.05.02.05.02l-.24.58s.2.08.2.08-.08.18-.08.18l-.32-.13s.26-.64.26-.64.13-.1.13-.1Z" style="fill:#231f20;"/><g style="clip-path:url(#uuid-28d61688-eac2-470f-a89d-bd3ed189e5d2);"><path d="M57.05,65.37c0,.22-.01.43-.02.65.05.04.15.11.2.15-.04.88.05,1.76-.04,2.64-.08,0-.24.02-.33.03,0-.23-.01-.46-.03-.68-.19,0-.38,0-.56.01,0-.46,0-.92,0-1.38.05-.04.14-.11.19-.14,0-.19,0-.39-.02-.58-.15-.09-.41-.1-.52.07-.1.22-.2-.04-.26-.11-.14,0-.27-.01-.41-.01-.02.06-.07.18-.09.24-.07-.08-.15-.16-.22-.24-.15,0-.3,0-.45,0,0,.22,0,.43,0,.65.04.03.12.09.16.12.04.46,0,.93,0,1.39l-.51-.02c-.05.51-.02,1.02-.02,1.53.18,0,.36,0,.54,0,.05.97-.15,1.93-.27,2.89-.01.15-.1.22-.27.23,0,.18,0,.36,0,.55,3.05,0,5.65,0,7.8,0,0-.18,0-.37,0-.55-.06-.01-.19-.04-.26-.06-.12-1.01-.35-2.02-.29-3.04.1,0,.28,0,.54-.01,0-.5.01-1.01,0-1.51-.18,0-.36,0-.54,0,0-.46,0-.92,0-1.38.05-.04.14-.11.19-.14,0-.21,0-.42,0-.62-.14.01-.31-.04-.44.03-.09.02-.19.28-.27.08-.1-.16-.31-.1-.46-.12-.06.29-.24.18-.35.01-.15,0-.3,0-.45,0,0,.21,0,.43,0,.64.04.03.12.1.15.13.05.45,0,.91.01,1.37-.19,0-.39,0-.58,0,0,.22,0,.43-.01.65-.09,0-.27,0-.36,0,0-.83,0-1.65,0-2.48-.01-.14.05-.25.18-.32,0-.21,0-.42,0-.63-.15,0-.3-.02-.45-.03-.05.06-.14.19-.18.26-.04-.06-.12-.19-.16-.25-.12,0-.25,0-.37,0-.04.06-.11.17-.14.23-.07-.07-.15-.15-.22-.22-.14,0-.29,0-.43,0Z" style="fill:#231f20;"/><path d="M57.38,66.1c.43,0,.85,0,1.28,0-.02.85.03,1.71-.02,2.55l-.07.13c.06.07.12.14.18.21.2,0,.4,0,.61-.01,0-.22,0-.43.01-.65.23,0,.46,0,.69,0,0,.21,0,.43,0,.65.33,0,.65,0,.98,0,0-.22,0-.43.01-.65.24,0,.48,0,.72,0,0,.39,0,.79.01,1.18-2.5.03-4.99,0-7.49.01,0-.4,0-.8,0-1.19.25,0,.49,0,.74,0,0,.22,0,.43.01.65.31,0,.63,0,.94,0,.02-.22.03-.45.03-.67.23,0,.46,0,.69.01,0,.22,0,.43.01.65.32,0,.64,0,.96,0,0-.22,0-.43,0-.65.23,0,.46,0,.69,0,.05.23-.11.57.15.7,0-.3,0-.59-.01-.89-.33.01-.66.01-.99.01,0,.24-.01.47-.03.71-.15-.14-.09-.35-.1-.53,0-.75,0-1.5,0-2.25Z" style="fill:#fff; stroke:#231f20; stroke-miterlimit:10; stroke-width:.03px;"/><path d="M57.71,67.17c.21,0,.42,0,.62,0,0-.33.13-.99-.39-.94-.37.15-.19.63-.23.94Z" style="fill:#fff; stroke:#231f20; stroke-miterlimit:10; stroke-width:.03px;"/><path d="M54.82,66.73c.43,0,.85,0,1.27,0,0,.47,0,.93,0,1.4-.42-.03-.24.44-.28.69-.21,0-.43,0-.64,0,0-.22,0-.44-.02-.66-.08,0-.25,0-.34,0,0-.48,0-.95,0-1.43Z" style="fill:#fff; stroke:#231f20; stroke-miterlimit:10; stroke-width:.03px;"/><path d="M55.15,67.8c.21,0,.43-.01.64-.02-.05-.31.13-.83-.29-.92-.5,0-.32.62-.35.94Z" style="fill:#fff; stroke:#231f20; stroke-miterlimit:10; stroke-width:.03px;"/><path d="M59.94,66.73c.42,0,.85,0,1.27,0v1.42c-.08,0-.25.01-.34.02,0,.21,0,.43-.01.65-.22,0-.43,0-.65,0,0-.21,0-.42,0-.63-.07-.01-.21-.03-.28-.04,0-.47,0-.94,0-1.42Z" style="fill:#fff; stroke:#231f20; stroke-miterlimit:10; stroke-width:.03px;"/><path d="M60.27,67.8c.21,0,.42,0,.63,0-.04-.31.14-.85-.29-.93-.49,0-.31.62-.34.94Z" style="fill:#fff; stroke:#231f20; stroke-miterlimit:10; stroke-width:.03px;"/><path d="M54.82,69.68c2.13,0,4.26,0,6.39,0-.06,1.04.18,2.05.29,3.07-.93,0-1.86,0-2.79,0-.02-.5.04-1.01-.03-1.51-.15-.59-1.06-.65-1.29-.1-.14.52-.04,1.07-.07,1.61-.93,0-1.86,0-2.79,0,.12-1.02.36-2.04.29-3.08Z" style="fill:#fff; stroke:#231f20; stroke-miterlimit:10; stroke-width:.03px;"/><path d="M55.5,71.06c.24,0,.49,0,.73,0-.03-.38.18-1.11-.41-1.11-.5.11-.29.74-.32,1.11Z" style="fill:#fff; stroke:#231f20; stroke-miterlimit:10; stroke-width:.03px;"/><path d="M59.81,71.06c.24,0,.48,0,.72,0-.04-.37.18-1.05-.38-1.11-.54.09-.3.74-.35,1.11Z" style="fill:#fff; stroke:#231f20; stroke-miterlimit:10; stroke-width:.03px;"/><path d="M54.27,72.92c2.5,0,5,0,7.5,0,0,.06-.02.18-.03.24-2.49.04-4.97,0-7.46.02,0-.06,0-.19-.01-.26Z" style="fill:#fff; stroke:#231f20; stroke-miterlimit:10; stroke-width:.03px;"/><path d="M59.75,66.56c.55-.01,1.1,0,1.64,0,0-.11,0-.32,0-.43-.1.08-.2.15-.3.23-.19,0-.36-.04-.49-.17-.15.15-.35.16-.55.17-.06-.07-.19-.2-.25-.26-.02.15-.03.31-.04.47Z" style="fill:#231f20; stroke:#231f20; stroke-miterlimit:10; stroke-width:.03px;"/><path d="M57.38,66.1c0,.75,0,1.5,0,2.25.01.18-.04.39.1.53.02-.24.03-.47.03-.71.33,0,.66,0,.99-.01.02.29.01.59.01.89-.26-.13-.1-.48-.15-.7-.23,0-.46,0-.69,0,0,.21,0,.43,0,.65-.32,0-.64,0-.96,0,0-.22,0-.44-.01-.65-.23,0-.46,0-.69-.01,0,.22-.02.44-.03.67-.31,0-.63,0-.94,0,0-.22,0-.44-.01-.65-.25,0-.49,0-.74,0,0,.4,0,.79,0,1.19,1.89,0,4.39.02,7.49-.01-.01-.39-.01-.79-.01-1.18-.24,0-.48,0-.72,0,0,.21,0,.43-.01.65-.33,0-.65,0-.98,0,0-.22,0-.43,0-.65-.23,0-.46,0-.69,0,0,.22,0,.43-.01.65-.2,0-.4,0-.61.01-.06-.07-.01-.14-.07-.21l-.04-.13c.06-.85,0-1.7.02-2.55-.43,0-.85,0-1.28,0Z" style="fill:#e8b70b;"/><path d="M54.83,66.73c0,.48,0,.95,0,1.43.08,0,.25,0,.34,0,.01.22.02.44.02.66.21,0,.43,0,.64,0,.04-.25-.14-.72.28-.69,0-.47,0-.93,0-1.4-.43,0-.85,0-1.27,0Z" style="fill:#231f20; stroke:#231f20; stroke-miterlimit:10; stroke-width:.03px;"/><path d="M59.94,66.73c0,.47,0,.94,0,1.42.07.01.21.03.28.04,0,.21,0,.42,0,.63.22,0,.43,0,.65,0,0-.22,0-.43.01-.65.08,0,.25-.01.34-.02v-1.42c-.42,0-.85,0-1.27,0Z" style="fill:#231f20; stroke:#231f20; stroke-miterlimit:10; stroke-width:.03px;"/><path d="M54.82,69.68c.06,1.04-.18,2.05-.29,3.08.93,0,1.87,0,2.79,0,.03-.54-.08-1.09.07-1.61.24-.56,1.14-.49,1.29.1.07.5.01,1.01.03,1.51.93,0,1.86,0,2.79,0-.11-1.02-.36-2.04-.29-3.07-2.13,0-4.26,0-6.39,0Z" style="fill:#e8b70b;"/><path d="M54.27,72.92c0,.06,0,.19.01.26,2.49-.02,4.98.02,7.46-.02,0-.06.02-.18.03-.24-2.5,0-5,0-7.5,0Z" style="fill:#e8b70b;"/><path d="M57.71,67.17c.04-.31-.14-.79.23-.94.52-.05.39.61.39.94-.21,0-.42,0-.62,0Z" style="fill:#fff; stroke:#231f20; stroke-miterlimit:10; stroke-width:.03px;"/><path d="M55.15,67.8c.03-.32-.15-.94.35-.94.42.09.24.62.29.92-.21.01-.43.01-.64.02Z" style="fill:#fff; stroke:#231f20; stroke-miterlimit:10; stroke-width:.03px;"/><path d="M60.27,67.8c.03-.32-.15-.93.34-.94.43.09.25.63.29.93-.21,0-.42,0-.63,0Z" style="fill:#fff; stroke:#231f20; stroke-miterlimit:10; stroke-width:.03px;"/><path d="M55.5,71.06c.03-.37-.18-.99.32-1.11.59,0,.38.73.41,1.11-.24,0-.49,0-.73,0Z" style="fill:#231f20; stroke:#231f20; stroke-miterlimit:10; stroke-width:.03px;"/><path d="M59.81,71.06c.05-.37-.19-1.03.35-1.11.55.06.34.74.38,1.11-.24,0-.48,0-.72,0Z" style="fill:#fff; stroke:#231f20; stroke-miterlimit:10; stroke-width:.03px;"/><path d="M57.19,65.94c.55-.01,1.1,0,1.64,0,0-.11,0-.32,0-.43-.1.08-.2.15-.3.23-.19,0-.36-.04-.49-.17-.15.15-.35.16-.55.17-.06-.07-.19-.2-.25-.26-.02.15-.03.31-.04.47Z" style="fill:#231f20; stroke:#231f20; stroke-miterlimit:10; stroke-width:.03px;"/><path d="M54.64,66.56c.55-.01,1.1,0,1.64,0,0-.11,0-.32,0-.43-.1.08-.2.15-.3.23-.19,0-.36-.04-.49-.17-.15.15-.35.16-.55.17-.06-.07-.19-.2-.25-.26-.02.15-.03.31-.04.47Z" style="fill:#231f20; stroke:#231f20; stroke-miterlimit:10; stroke-width:.03px;"/></g></g></svg>