<?xml version="1.0" encoding="UTF-8" standalone="no"?>
<svg
   version="1.1"
   width="600pt"
   height="600pt"
   id="svg170"
   viewBox="0 0 600 599.99999"
   sodipodi:docname="Logo UB Ibiza.svg"
   inkscape:version="1.2 (dc2aeda, 2022-05-15)"
   xmlns:inkscape="http://www.inkscape.org/namespaces/inkscape"
   xmlns:sodipodi="http://sodipodi.sourceforge.net/DTD/sodipodi-0.dtd"
   xmlns="http://www.w3.org/2000/svg"
   xmlns:svg="http://www.w3.org/2000/svg">
  <defs
     id="defs174" />
  <sodipodi:namedview
     id="namedview172"
     pagecolor="#ffffff"
     bordercolor="#000000"
     borderopacity="0.25"
     inkscape:showpageshadow="2"
     inkscape:pageopacity="0.0"
     inkscape:pagecheckerboard="0"
     inkscape:deskcolor="#d1d1d1"
     showgrid="false"
     inkscape:zoom="0.4204826"
     inkscape:cx="335.32898"
     inkscape:cy="324.62699"
     inkscape:window-width="1440"
     inkscape:window-height="737"
     inkscape:window-x="0"
     inkscape:window-y="25"
     inkscape:window-maximized="0"
     inkscape:current-layer="svg170"
     inkscape:document-units="pt" />
  <g
     id="g348"
     transform="translate(-0.4070945)">
    <path
       style="fill:#7fc8ef;fill-rule:evenodd;stroke-width:1"
       d="M 299.39088,-2e-6 C 134.2216,-2e-6 0.4070945,133.67935 0.4070945,299.0335 0.4070945,464.38766 134.28273,600 299.45202,600 464.62129,600 600.40709,464.46893 600.40709,299.11477 600.40709,133.76063 464.56016,-2e-6 299.39088,-2e-6 Z"
       id="path1382" />
    <path
       style="fill:#ffffff;fill-rule:evenodd;stroke-width:1"
       d="m 23.227587,300 c 0,-76.53997 31.02471,-145.8353 81.184683,-195.99484 50.15953,-50.159965 119.45487,-81.184676 195.99483,-81.184676 76.53985,0 145.83518,31.024711 195.99483,81.184676 50.15986,50.15954 81.18468,119.45487 81.18468,195.99484 0,76.53985 -31.02482,145.83518 -81.18468,195.99483 -50.15965,50.15997 -119.45498,81.18468 -195.99483,81.18468 -76.53996,0 -145.8353,-31.02471 -195.99483,-81.18468 C 54.252297,445.83519 23.227587,376.53985 23.227587,300 Z"
       id="path156" />
    <path
       style="fill:#7fc8ef;fill-rule:evenodd;stroke-width:1"
       d="m 299.51508,36.662516 c -144.98421,0 -262.445471,117.342604 -262.445471,262.489104 0,145.14649 117.514931,264.18586 262.499141,264.18586 144.98419,0 264.17583,-118.96803 264.17583,-264.11452 0,-145.14648 -119.24529,-262.560444 -264.2295,-262.560444 z"
       id="path1388" />
  </g>
  <g
     id="g644"
     transform="matrix(1.0853683,0,0,1.0853683,-22.741749,-156.74426)"
     style="stroke-width:0.921346">
    <path
       style="fill:#ffffff;fill-rule:evenodd;stroke-width:0.921346"
       d="m 186.01,320.9635 -46.0117,-47.2022 14.8088,-14.4456 45.9743,47.1461 z"
       id="path635" />
    <path
       id="path631"
       style="fill:#ffffff;fill-rule:evenodd;stroke-width:0.921346"
       d="m 231.05421,217.89844 c -3.44375,-0.0921 -7.18138,0.63769 -10.99805,1.85303 -2.7712,0.8824 -7.16227,2.93372 -12.93897,5.50342 l -25.98633,11.55762 27.01758,60.33398 27.82032,-12.75732 c 6.15429,-2.8222 10.62231,-4.7011 13.11621,-6.2959 9.06009,-5.79429 15.96038,-13.83899 11.31299,-24.28858 -3.251,-7.30999 -8.77767,-10.49183 -19.53516,-9.26953 4.2415,-4.33419 7.15155,-11.38662 3.97705,-17.77002 -3.12131,-6.27655 -8.04606,-8.71324 -13.78564,-8.8667 z m -7.67872,17.59424 c 1.87295,0.0504 3.49618,0.82341 4.49268,2.89014 2.35,4.87328 -4.01245,8.10149 -7.86475,9.86719 l -9.93603,4.5542 -4.74024,-10.47364 7.22461,-3.17871 c 2.76399,-1.2155 7.24811,-3.75541 10.82373,-3.65918 z m 12.58741,21.01026 c 2.02413,0.009 3.73808,0.77147 4.68017,2.89013 2.3091,5.1936 -3.51541,8.34441 -9.37939,10.94971 l -11.0669,4.91748 -4.96728,-10.60107 11.31152,-5.2544 c 2.84234,-1.32038 6.46354,-2.91564 9.42188,-2.90185 z" />
    <path
       style="fill:#ffffff;fill-rule:evenodd;stroke-width:0.921346"
       d="m 296.9833,270.8354 -20.5574,1.4729 -4.5366,-65.8219 20.4041,-1.249 z"
       id="path629" />
    <path
       style="fill:#ffffff;fill-rule:evenodd;stroke-width:0.921346"
       d="m 306.7758,267.9846 3.5689,-12.9688 45.0859,-25.7321 -34.0166,-9.504 4.1431,-15.0077 61.2453,17.0118 -3.6618,13.0054 -45.0881,25.6263 35.2017,9.6863 -3.9673,15.1452 z"
       id="path627" />
    <path
       id="path625"
       style="fill:#ffffff;fill-rule:evenodd;stroke-width:0.921346"
       d="m 439.56593,257.8418 -67.74463,26.32911 15.33984,15.07324 11.98829,-5.00098 20.12402,19.13379 -4.24365,12.34278 15.5874,15.3457 23.7334,-69.63282 z m -7.71533,22.33887 -6.88916,18.92871 -11.625,-11.20166 z" />
  </g>
  <path
     d="m 92.764013,230.66427 c 1.156786,-3.37289 4.463577,-5.67821 7.836477,-4.52132 3.37299,1.15679 5.37311,4.40172 4.09411,8.42595 -3.58215,10.40368 -6.545532,21.04974 -8.341708,31.78315 -1.794548,10.7242 -2.716351,21.6746 -2.716351,32.68805 0,11.5583 0.800242,23.05355 2.794498,34.36417 2.003806,11.36477 4.983581,22.51412 8.915221,33.3169 1.21246,3.34521 -0.51631,7.04057 -3.86152,8.25303 -3.345223,1.21247 -7.040576,-0.51631 -8.253042,-3.86152 C 89.012112,359.51867 85.830246,347.64322 83.711065,335.62493 81.582875,323.55412 80.903,311.29065 80.903,299.01481 c 0,-11.62288 1.208775,-23.21593 3.137257,-34.74166 1.926855,-11.51522 4.936472,-22.60953 8.723756,-33.60888 z"
     style="fill:#edb34c;fill-opacity:1;fill-rule:evenodd;stroke-width:1"
     id="path56" />
  <path
     d="m 490.05907,230.66427 c -1.15679,-3.37289 -4.46358,-5.67821 -7.83647,-4.52132 -3.37289,1.15679 -5.37301,4.40172 -4.09412,8.42595 3.58215,10.40368 6.54553,21.04974 8.34171,31.78315 1.79466,10.7242 2.71635,21.6746 2.71635,32.68805 0,11.5583 -0.80024,23.05355 -2.7945,34.36417 -2.0038,11.36477 -4.98357,22.51412 -8.9151,33.3169 -1.21258,3.34521 0.5162,7.04057 3.86141,8.25303 3.34521,1.21247 7.04057,-0.51631 8.25314,-3.86152 4.21959,-11.59401 7.40145,-23.46946 9.52064,-35.48775 2.12808,-12.07081 2.80795,-24.33428 2.80795,-36.61012 0,-11.62288 -1.20877,-23.21593 -3.13715,-34.74166 -1.92696,-11.51522 -4.93647,-22.60953 -8.72386,-33.60888 z"
     style="fill:#edb34c;fill-opacity:1;fill-rule:evenodd;stroke-width:1"
     id="path58" />
  <g
     id="g5832"
     transform="matrix(1.0853683,0,0,1.0853683,-0.4070945,-6.1402624e-6)"
     style="stroke-width:0.921346">
    <path
       style="fill:#1d71b7;fill-opacity:1;stroke:none;stroke-width:0.276404;stroke-dasharray:none"
       d="m 256.48829,504.10841 a 93.419449,18.617001 0 0 0 -53.7085,3.47021 c 23.10246,7.41497 47.69539,11.45069 73.22607,11.45069 19.59916,0 38.66503,-2.42092 56.96924,-6.87012 a 93.419449,18.617001 0 0 0 -76.48681,-8.05078 z"
       id="path5820" />
    <path
       style="fill:#1d71b7;fill-opacity:1;stroke:none;stroke-width:0.276404;stroke-dasharray:none"
       d="m 259.82373,463.3169 c -40.95277,0.24592 -72.00672,5.9285 -111.76611,18.66944 9.12842,5.76026 18.66943,10.90523 28.56006,15.41894 28.97656,-7.17409 59.66414,-11.62251 88.03125,-11.34521 28.09345,0.27463 75.46965,8.23131 92.6499,18.8291 9.5616,-3.42517 18.83841,-7.45219 27.81739,-12.00293 -33.1032,-20.52219 -79.06083,-29.10116 -116.45362,-29.54151 -3.00078,-0.0353 -5.94473,-0.0452 -8.83887,-0.0278 z"
       id="path5818" />
    <path
       style="fill:#1d71b7;fill-opacity:1;stroke:none;stroke-width:0.276404;stroke-dasharray:none"
       d="m 266.87989,423.22999 c -47.2086,-0.75793 -99.58363,11.38942 -150.78516,34.68896 6.45261,5.74404 13.2144,11.13618 20.25146,16.17188 51.4483,-22.00377 92.29072,-26.67451 128.30274,-27.03076 64.90228,-0.64207 108.9157,21.2593 131.75391,39.72363 7.45477,-4.28502 14.66646,-8.94353 21.60644,-13.96729 -31.52015,-24.06576 -82.72372,-48.48819 -151.12939,-49.58642 z"
       id="path5816" />
    <path
       style="fill:#1d71b7;fill-opacity:1;stroke:none;stroke-width:0.276404;stroke-dasharray:none"
       d="m 266.43311,382.24366 c -44.26169,-0.75255 -118.63944,19.09522 -172.841312,52.81934 5.209965,6.03071 10.702102,11.80135 16.469242,17.29248 51.34813,-31.7475 113.56551,-46.57807 154.14258,-46.28174 67.56998,0.49347 120.20305,24.05877 159.80273,62.26611 6.27385,-4.8386 12.30405,-9.97304 18.07764,-15.38525 -51.83147,-45.78538 -106.71258,-69.53883 -175.65088,-70.71094 z"
       id="path5814" />
    <path
       style="fill:#1d71b7;fill-opacity:1;stroke:none;stroke-width:0.276404;stroke-dasharray:none"
       d="m 474.3838,354.50391 22.70654,22.3667 c 3.36323,-7.27328 6.37233,-14.73479 9.01465,-22.3667 z"
       id="path5812" />
    <path
       style="fill:#1d71b7;fill-opacity:1;stroke:none;stroke-width:0.276404;stroke-dasharray:none"
       d="m 433.11475,354.50391 c 28.40453,27.16009 33.33849,33.43546 49.94385,48.48633 4.15181,-6.69878 7.98794,-13.60799 11.48731,-20.71142 -7.38883,-7.90932 -14.368,-14.25477 -27.42188,-27.77491 z"
       id="path5810" />
    <path
       style="fill:#1d71b7;fill-opacity:1;stroke:none;stroke-width:0.276404;stroke-dasharray:none"
       d="m 379.11475,354.50391 c 44.58597,28.24547 63.76315,49.70092 87.15235,72.24756 4.81785,-6.04056 9.35433,-12.30641 13.59228,-18.78955 -18.09634,-18.3771 -39.45633,-38.57397 -59.23535,-53.45801 z"
       id="path5808" />
    <path
       style="fill:#1d71b7;fill-opacity:1;stroke:none;stroke-width:0.276404;stroke-dasharray:none"
       d="m 109.91895,354.50391 c -15.936888,11.35753 -31.29395,23.22617 -47.173832,35.65576 3.649193,6.84731 7.61495,13.49755 11.876954,19.93799 24.448492,-21.97695 49.812748,-38.92039 81.670898,-55.59375 z"
       id="path5806" />
    <path
       style="fill:#1d71b7;fill-opacity:1;stroke:none;stroke-width:0.276404;stroke-dasharray:none"
       d="m 47.3042,354.50391 c 4.155307,12.14158 9.211042,23.86671 15.14209,35.06836 22.151729,-20.90603 28.496432,-26.40185 38.64844,-35.06836 z"
       id="path5804" />
    <path
       style="fill:#1d71b7;fill-opacity:1;stroke:none;stroke-width:0.276404;stroke-dasharray:none"
       d="m 266.43311,344.74366 c -44.91276,-0.5876 -108.22411,9.21288 -190.548343,67.27002 4.438584,6.57269 9.194684,12.91211 14.233887,19.00781 67.190446,-50.06621 135.913936,-66.09354 177.205086,-65.79199 68.71678,0.50184 123.32658,27.04241 179.93262,82.79297 5.40199,-5.36543 10.54675,-10.98629 15.43359,-16.83106 -76.79601,-71.02235 -122.4153,-85.48167 -196.25684,-86.44775 z"
       id="path1768" />
  </g>
  <g
     id="g1572"
     transform="matrix(1.0853683,0,0,1.0853683,-0.4070945,-6.1402624e-6)"
     style="stroke-width:0.921346">
    <path
       d="m 460.44045,399.01918 3.3743,-4.62311 -31.1827,-7.17039 -3.0327,3.8861 15.6524,27.90089 3.4123,-4.4825 -3.7929,-6.5655 8.1897,-10.86239 z m -18.1203,4.6555 -6.2014,-10.4228 0.1314,-0.1771 11.8808,2.772 z"
       style="fill:#ffffff;fill-rule:evenodd;stroke-width:0.921346"
       id="path10" />
    <path
       d="m 433.46695,431.48768 3.2758,-3.28481 -12.3591,-29.48739 -4.1499,4.21839 9.8106,21.7014 -0.1535,0.1584 -21.8368,-9.499 -4.1332,4.235 z"
       style="fill:#ffffff;fill-rule:evenodd;stroke-width:0.921346"
       id="path12" />
    <path
       d="m 397.23865,460.22507 4.4604,-2.98759 -13.4473,-20.12431 7.687,-5.1512 -2.5892,-4.0407 -19.9793,13.1214 2.8333,4.1483 7.7086,-5.2022 z"
       style="fill:#ffffff;fill-rule:evenodd;stroke-width:0.921346"
       id="path14" />
    <path
       d="m 385.03305,468.01557 -11.9412,-6.54539 c 3.5278,-2.8463 4.1948,-7.2485 2.2355,-11.2394 -2.8609,-5.8272 -9.0959,-5.6927 -15.855,-2.4601 l -9.6811,4.6304 12.5932,26.4047 4.8554,-2.4611 -4.5872,-8.9055 5.7599,-2.83551 11.0536,6.19401 z m -28.3571,-13.3319 4.2877,-2.1587 c 5.2537,-2.6454 8.331,-2.9049 9.7047,0.4549 1.3396,3.2769 0.1381,5.3736 -4.5443,7.6945 l -5.1799,2.56741 z"
       style="fill:#ffffff;fill-rule:evenodd;stroke-width:0.921346"
       id="path16" />
    <path
       d="m 299.20585,480.30008 -1.391,-10.2489 3.9292,-0.5405 c 5.8215,-0.8007 8.2655,0.6545 8.7868,3.8438 0.5904,3.6118 -1.755,5.77909 -7.3761,6.46409 z m -3.5512,14.4585 5.2455,-0.5784 -1.0147,-9.259 4.7198,-0.6535 c 7.6404,-1.0583 12.2929,-5.36 11.3789,-11.4937 -1.0287,-6.9016 -5.9955,-9.2116 -14.355,-8.0539 l -9.6115,1.3313 z"
       style="fill:#ffffff;fill-rule:evenodd;stroke-width:0.921346"
       id="path18" />
    <path
       d="m 265.92825,495.31648 21.8294,-0.0828 -0.0167,-4.4132 -16.7127,-0.0163 -0.0316,-7.8137 14.635,-0.0118 -0.016,-4.54079 -14.6351,0.0119 -0.028,-7.5433 16.5366,0.017 -0.0175,-4.545 -21.6528,0.082 z"
       style="fill:#ffffff;fill-rule:evenodd;stroke-width:0.921346"
       id="path20" />
    <path
       d="m 236.63975,487.00988 2.9739,-19.48361 2.9395,0.3862 c 7.1126,0.935 12.2582,4.1518 11.0699,11.8112 -1.1225,7.2359 -6.6786,8.8594 -14.2596,7.702 z m -5.9014,3.9046 8.6416,1.5151 c 10.5276,1.8455 18.4442,-2.5905 19.712,-11.7163 1.3215,-9.5127 -3.9401,-15.6006 -15.3509,-17.3824 l -8.5402,-1.3336 z"
       style="fill:#ffffff;fill-rule:evenodd;stroke-width:0.921346"
       id="path22" />
    <path
       id="path24"
       style="fill:#ffffff;fill-rule:evenodd;stroke-width:0.921346"
       d="m 184.37403,432.55225 -6.97559,2.66162 3.07471,2.1753 7.23779,-0.6753 z m -14.47266,3.19483 c -5.06956,-0.12798 -9.77787,2.51411 -12.99756,7.7622 -4.00799,6.533 -2.248,15.90091 5.55029,20.51661 7.0915,4.19749 16.43787,2.60728 20.84327,-4.70801 4.36869,-7.25459 2.67664,-16.29692 -5.29395,-21.06592 -2.69197,-1.61067 -5.44657,-2.43785 -8.10205,-2.50488 z m 0.54785,5.17676 c 1.72778,-0.0194 3.47149,0.45256 5.07422,1.43554 4.5379,2.7834 5.87481,8.80758 2.96631,13.92627 -2.7913,4.913 -8.95102,6.34071 -13.46192,3.66211 -4.87919,-2.8971 -6.12696,-8.71126 -3.18457,-13.66846 2.07073,-3.48908 5.30747,-5.31841 8.60596,-5.35546 z" />
    <path
       d="m 138.97095,446.99858 4.2745,3.3193 17.8901,-22.88671 -4.2091,-3.4131 z"
       style="fill:#ffffff;fill-rule:evenodd;stroke-width:0.921346"
       id="path26" />
    <path
       d="m 113.17425,423.24008 3.7582,3.8315 14.1238,-14.5981 0.1572,0.1548 -3.0074,25.4219 3.2899,3.1315 20.2844,-20.813 -3.7427,-3.6562 -13.717,14.2352 -0.1574,-0.1549 2.9419,-24.7934 -3.5342,-3.3572 z"
       style="fill:#ffffff;fill-rule:evenodd;stroke-width:0.921346"
       id="path28" />
    <path
       d="m 101.64645,388.45548 c -7.7334,5.61829 -5.9827,13.3199 -3.1173,17.2439 4.6517,6.3698 11.4359,8.0675 18.2479,2.9794 l 13.4891,-10.075 -3.2786,-4.1854 -13.474,9.89929 c -5.0882,3.73841 -8.4366,1.74041 -10.8395,-1.3933 -1.9043,-2.48379 -2.6452,-6.5305 2.4346,-10.2816 l 13.3427,-9.8521 -3.2217,-4.2036 z"
       style="fill:#ffffff;fill-rule:evenodd;stroke-width:0.921346"
       id="path30" />
    <path
       d="m 184.01245,475.31898 4.959,1.9891 7.3329,-19.0123 0.2049,0.0809 7.186,24.7353 4.1546,1.5906 10.6689,-27.1285 -4.959,-1.933 -7.0141,18.5627 -0.2045,-0.0811 -7.0268,-24.0885 -4.5675,-1.8629 z"
       style="fill:#ffffff;fill-rule:evenodd;stroke-width:0.921346"
       id="path48" />
    <path
       d="m 415.02545,447.52728 4.0555,-3.4969 -18.3204,-22.4144 -4.1975,3.3935 z"
       style="fill:#ffffff;fill-rule:evenodd;stroke-width:0.921346"
       id="path50" />
    <path
       d="m 337.98505,482.39588 c -4.5377,1.5477 -10.2864,-1.6957 -12.1477,-7.3891 -1.7877,-5.4687 2.2717,-11.0485 6.7228,-12.2323 4.7162,-1.254 10.3981,1.1332 12.0563,6.694 1.8883,6.3303 -1.3126,11.1134 -6.6314,12.9274 z m 1.3829,4.6079 c 8.4982,-2.5211 13.0934,-10.4795 10.5941,-19.27911 -2.3945,-8.4307 -11.2742,-11.8934 -19.1409,-9.5728 -8.7198,2.5725 -12.4738,11.1966 -10.2912,18.4773 2.5439,8.4851 10.7573,12.7718 18.838,10.37461 z"
       style="fill:#ffffff;fill-rule:evenodd;stroke-width:0.921346"
       id="path52" />
  </g>
  <g
     id="g5852"
     transform="matrix(1.0853683,0,0,1.0853683,-0.4070945,-6.1402624e-6)"
     style="stroke-width:0.921346">
    <path
       d="m 255.07035,290.16298 h 19.5001 v 47.10019 c 0,12.0123 -3.7375,20.0299 -8.5464,26.926 -5.6013,8.032 -12.9501,14.8728 -22.8269,19.9902 l -22.2242,-11.22179 c 9.8422,-4.13351 18.9357,-9.1035 25.5473,-16.6445 5.2466,-5.9839 8.5501,-12.46281 8.5501,-19.0499 z"
       style="fill:none;stroke-width:0.921346"
       id="path62" />
    <path
       d="m 298.44155,290.16298 h -19.5001 v 47.10019 c 0,12.0123 3.7375,20.0299 8.5465,26.926 5.6012,8.032 12.9501,14.8728 22.8268,19.9902 l 22.2242,-11.22179 c -9.8422,-4.13351 -18.9357,-9.1035 -25.5472,-16.6445 -5.2467,-5.9839 -8.5502,-12.46281 -8.5502,-19.0499 z"
       style="fill:none;stroke-width:0.921346"
       id="path64" />
    <path
       d="m 198.96705,354.56747 c 6.912,6.93901 14.7609,12.94221 23.3518,17.8155 9.1724,-3.9909 17.9873,-8.9824 24.2014,-16.0699 5.2463,-5.9839 8.5501,-12.4628 8.5501,-19.0499 v -47.10019 h 19.5001 v 47.10019 c 0,12.0123 -3.2873,19.8051 -8.5464,26.926 -3.6766,5.2721 -8.106,10.0309 -13.5091,14.1262 -0.002,0.001 -0.004,0.003 -0.006,0.005 -1.8876,1.4822 -3.8821,2.8726 -5.9885,4.1451 9.5097,2.6691 19.5658,4.0955 29.9886,4.0955 10.5633,0 20.7915,-1.4726 30.4849,-4.2222 -8.2293,-4.8722 -14.5511,-11.04489 -19.5055,-18.1494 -4.809,-6.8961 -8.5465,-14.9137 -8.5465,-26.926 v -47.1002 h 19.5001 0.1418 v 47.1002 c 0,6.5871 3.7652,12.5175 9.0272,18.4872 6.1747,7.0053 14.9102,12.3305 23.9034,16.3148 8.6003,-4.8886 16.4826,-10.8884 23.4442,-17.8052 20.0259,-19.8978 32.4488,-47.3947 32.4488,-77.8482 0,-30.4256 -12.4175,-57.8347 -32.4306,-77.6616 -20.1135,-19.9264 -47.9192,-32.2053 -78.524,-32.2053 -30.4563,0 -57.77,12.2307 -77.4782,32.0604 -19.7779,19.9004 -31.9204,47.4761 -31.9204,78.0506 0,30.5527 12.1419,58.0632 31.9133,77.9116 z m 16.2771,-79.10219 v -37.19991 h 21.2258 v 14.3989 h 18.6001 v -14.3989 h 43.4787 v 14.3989 h 18.6001 v -14.3989 h 21.0954 v 37.19991 h -39.2998 v 8.92439 h -43.575 v -8.92439 z m 54.798,-48.81371 v -20.7833 h 4.7182 v 20.7833 z m -36.1046,0 h -15.7981 v -20.7833 h 15.6495 v 4.0734 h -11.2144 v 4.1813 h 9.8739 v 4.0352 h -9.8739 v 4.2783 h 11.363 z m 4.0731,0 v -20.7833 h 4.7182 v 20.7833 z m 16.2876,0 -8.3407,-20.7833 h 5.1823 l 5.4468,14.5658 5.2528,-14.5658 h 5.0083 l -8.3857,20.7833 z m 47.7932,-9.1533 c -2.44,-0.9494 -4.2429,-2.2201 -4.299,-5.4565 -0.0811,-4.6678 3.257,-6.347 7.3933,-6.347 2.8965,0 5.315,0.4606 7.8336,2.4233 l -2.5416,3.6888 c -0.8101,-0.9817 -3.3522,-2.234 -5.2843,-2.253 -1.8905,-0.0185 -2.8358,0.7631 -2.8358,1.9145 0,1.3053 1.3036,1.8519 2.3131,2.1135 0.6015,0.1556 1.4198,0.4184 2.2167,0.6018 3.3148,0.7625 6.6628,1.9341 6.6628,6.2374 0,4.8724 -4.2579,6.4646 -8.3288,6.4646 -3.1821,0 -5.6145,-1.2188 -8.2837,-3.3256 l 2.8083,-3.2485 c 1.1367,1.2907 4.1726,2.5419 6.2096,2.5232 1.8695,-0.0171 2.9248,-0.8921 2.935,-2.02 0.0142,-1.5809 -2.058,-2.1025 -4.0105,-2.5251 -0.6825,-0.1477 -2.0219,-0.4932 -2.7887,-0.7914 z m -15.4369,9.38741 c -3.1822,0 -5.6146,-1.2188 -8.2837,-3.32561 l 2.8083,-3.2485 c 1.1367,1.2907 4.1726,2.5419 6.2096,2.5232 1.8694,-0.0171 2.9248,-0.8921 2.935,-2.02 0.0141,-1.5809 -2.058,-2.1025 -4.0105,-2.5251 -0.6826,-0.1477 -2.0219,-0.4932 -2.7887,-0.7914 -2.4401,-0.9494 -4.2429,-2.2201 -4.299,-5.4565 -0.0811,-4.6678 3.257,-6.347 7.3933,-6.347 2.8964,0 5.3149,0.4606 7.8335,2.4233 l -2.5415,3.6888 c -0.8102,-0.9817 -3.3523,-2.234 -5.2844,-2.253 -1.8904,-0.0185 -2.8357,0.7631 -2.8357,1.9145 0,1.3053 1.3036,1.8519 2.313,2.1135 0.6015,0.1556 1.4199,0.4184 2.2167,0.6018 3.3149,0.7625 6.6629,1.9341 6.6629,6.2374 0,4.8724 -4.258,6.4646 -8.3288,6.46461 z m 28.4057,-0.23411 8.9133,-20.7833 h 4.4864 l 8.6303,20.7833 h -4.7055 l -2.0562,-4.6542 h -8.5391 l -1.8822,4.6542 z"
       style="fill:#ffffff;fill-rule:evenodd;stroke-width:0.921346"
       id="path163" />
    <path
       style="fill:#edb34c;fill-rule:evenodd;stroke-width:0.921346"
       d="m 190.10495,190.08512 c 21.8807,-22.0159 52.1649,-35.5947 85.896,-35.5947 33.8312,0 64.6033,13.6086 86.8952,35.693 22.1942,21.9875 35.9649,52.369 35.9649,86.07941 0,33.72949 -13.7755,64.2008 -35.983,86.2659 -22.2701,22.1273 -53.0084,35.7886 -86.8209,35.7886 -33.7459,0 -64.0588,-13.5414 -85.9593,-35.5275 -21.9319,-22.0175 -35.401,-52.48661 -35.401,-86.2829 0,-33.81081 13.4691,-64.34731 35.4081,-86.42181 z"
       id="path658" />
    <path
       style="fill:#ffffff;fill-rule:evenodd;stroke-width:0.921346"
       d="m 274.11905,337.11424 v -47.1002 h -19.5001 v 47.10019 c 0,6.5871 -3.3038,13.066 -8.5501,19.0499 -6.2141,7.0875 -15.029,12.079 -24.2014,16.0699 -8.5909,-4.8733 -16.4398,-10.8765 -23.3518,-17.8155 -19.7714,-19.8484 -31.9133,-47.3589 -31.9133,-77.9116 0,-30.5745 12.1425,-58.1502 31.9204,-78.0506 19.7082,-19.8297 47.0219,-32.0604 77.4782,-32.0604 30.6048,0 58.4105,12.2789 78.524,32.2053 20.0131,19.8269 32.4306,47.236 32.4306,77.6616 0,30.4535 -12.4229,57.9504 -32.4488,77.8482 -6.9616,6.91681 -14.8439,12.91661 -23.4442,17.8052 -8.9932,-3.9843 -17.7287,-9.3095 -23.9034,-16.31479 -5.262,-5.9697 -9.0272,-11.90011 -9.0272,-18.48721 v -47.10019 h -19.6419 v 47.10019 c 0,12.0118 4.0695,19.9071 9.0717,26.6635 5.0548,6.8275 11.0158,13.3798 18.9981,18.4068 -9.6984,2.753 -19.9329,4.2273 -30.5027,4.2273 -10.4228,0 -20.4789,-1.4264 -29.9886,-4.0955 8.0373,-4.8552 14.4453,-11.4265 19.5041,-18.2761 5.2591,-7.1209 8.5464,-14.9137 8.5464,-26.92599 z"
       id="path66" />
    <path
       d="m 215.24415,238.26537 h 21.2258 v 14.3989 h 18.6001 v -14.3989 h 43.4787 v 14.3989 h 18.6001 v -14.3989 h 21.0954 v 37.19991 h -39.2998 v 8.92439 h -43.575 v -8.92439 h -40.1253 z"
       style="fill:#edb34c;fill-opacity:1;fill-rule:evenodd;stroke-width:0.921346"
       id="path60" />
    <g
       id="g654"
       style="fill:#edb34c;fill-opacity:1;stroke-width:0.921346"
       transform="translate(-20.57795,-144.41572)">
      <path
         id="path32"
         style="fill:#edb34c;fill-opacity:1;fill-rule:evenodd;stroke-width:0.921346"
         d="m 344.55177,350.2837 -8.91358,20.7832 h 4.84717 l 1.88233,-4.6538 h 8.53857 l 2.05664,4.6538 h 4.70508 l -8.6294,-20.7832 z m 2.10205,5.47412 2.69238,6.52295 h -5.35693 z" />
      <path
         d="m 312.4888,356.2226 c -0.8102,-0.9817 -3.3523,-2.234 -5.2844,-2.253 -1.8904,-0.0185 -2.8357,0.7631 -2.8357,1.9145 0,1.3053 1.3036,1.8519 2.313,2.1135 0.6015,0.1556 1.4199,0.4184 2.2167,0.6018 3.3149,0.7625 6.6629,1.9341 6.6629,6.2374 0,4.8724 -4.258,6.4646 -8.3288,6.4646 -3.1822,0 -5.6146,-1.2188 -8.2837,-3.3256 l 2.8083,-3.2485 c 1.1367,1.2907 4.1726,2.5419 6.2096,2.5232 1.8694,-0.0171 2.9248,-0.8921 2.935,-2.02 0.0141,-1.5809 -2.058,-2.1025 -4.0105,-2.5251 -0.6826,-0.1477 -2.0219,-0.4932 -2.7887,-0.7914 -2.4401,-0.9494 -4.2429,-2.2201 -4.299,-5.4565 -0.0811,-4.6678 3.257,-6.347 7.3933,-6.347 2.8964,0 5.3149,0.4606 7.8335,2.4233 z"
         style="fill:#edb34c;fill-opacity:1;fill-rule:evenodd;stroke-width:0.921346"
         id="path34" />
      <path
         d="m 271.7178,350.284 5.4468,14.5658 5.2528,-14.5658 h 5.0083 l -8.3857,20.7833 h -4.1638 l -8.3407,-20.7833 z"
         style="fill:#edb34c;fill-opacity:1;fill-rule:evenodd;stroke-width:0.921346"
         id="path36" />
      <path
         d="M 258.5886,371.0673 V 350.284 h 4.7182 v 20.7833 z"
         style="fill:#edb34c;fill-opacity:1;fill-rule:evenodd;stroke-width:0.921346"
         id="path38" />
      <path
         d="m 254.5155,366.8522 v 4.2151 H 238.7174 V 350.284 h 15.6495 v 4.0734 h -11.2144 v 4.1813 h 9.8739 v 4.0352 h -9.8739 v 4.2783 z"
         style="fill:#edb34c;fill-opacity:1;fill-rule:evenodd;stroke-width:0.921346"
         id="path40" />
      <path
         d="M 290.6201,371.0673 V 350.284 h 4.7182 v 20.7833 z"
         style="fill:#edb34c;fill-opacity:1;fill-rule:evenodd;stroke-width:0.921346"
         id="path44" />
      <path
         d="m 331.0557,356.2226 c -0.8101,-0.9817 -3.3522,-2.234 -5.2843,-2.253 -1.8905,-0.0185 -2.8358,0.7631 -2.8358,1.9145 0,1.3053 1.3036,1.8519 2.3131,2.1135 0.6015,0.1556 1.4198,0.4184 2.2167,0.6018 3.3148,0.7625 6.6628,1.9341 6.6628,6.2374 0,4.8724 -4.2579,6.4646 -8.3288,6.4646 -3.1821,0 -5.6145,-1.2188 -8.2837,-3.3256 l 2.8083,-3.2485 c 1.1367,1.2907 4.1726,2.5419 6.2096,2.5232 1.8695,-0.0171 2.9248,-0.8921 2.935,-2.02 0.0142,-1.5809 -2.058,-2.1025 -4.0105,-2.5251 -0.6825,-0.1477 -2.0219,-0.4932 -2.7887,-0.7914 -2.44,-0.9494 -4.2429,-2.2201 -4.299,-5.4565 -0.0811,-4.6678 3.257,-6.347 7.3933,-6.347 2.8965,0 5.315,0.4606 7.8336,2.4233 z"
         style="fill:#edb34c;fill-opacity:1;fill-rule:evenodd;stroke-width:0.921346"
         id="path46" />
    </g>
  </g>
</svg>
