<?xml version="1.0" encoding="UTF-8" standalone="no"?>
<!-- Created with Inkscape (http://www.inkscape.org/) -->

<svg
   xmlns:dc="http://purl.org/dc/elements/1.1/"
   xmlns:cc="http://creativecommons.org/ns#"
   xmlns:rdf="http://www.w3.org/1999/02/22-rdf-syntax-ns#"
   xmlns:svg="http://www.w3.org/2000/svg"
   xmlns="http://www.w3.org/2000/svg"
   xmlns:sodipodi="http://sodipodi.sourceforge.net/DTD/sodipodi-0.dtd"
   xmlns:inkscape="http://www.inkscape.org/namespaces/inkscape"
   id="svg2"
   version="1.1"
   inkscape:version="0.91 r13725"
   xml:space="preserve"
   width="595"
   height="700"
   viewBox="0 0 595.00002 700"
   sodipodi:docname="Logo CD Lugo.svg"><metadata
     id="metadata8"><rdf:RDF><cc:Work
         rdf:about=""><dc:format>image/svg+xml</dc:format><dc:type
           rdf:resource="http://purl.org/dc/dcmitype/StillImage" /><dc:title /></cc:Work></rdf:RDF></metadata><defs
     id="defs6" /><sodipodi:namedview
     pagecolor="#ffffff"
     bordercolor="#666666"
     borderopacity="1"
     objecttolerance="10"
     gridtolerance="10"
     guidetolerance="10"
     inkscape:pageopacity="0"
     inkscape:pageshadow="2"
     inkscape:window-width="1440"
     inkscape:window-height="788"
     id="namedview4"
     showgrid="false"
     inkscape:zoom="0.47563727"
     inkscape:cx="99.361888"
     inkscape:cy="402.39214"
     inkscape:window-x="0"
     inkscape:window-y="1"
     inkscape:window-maximized="1"
     inkscape:current-layer="g10" /><g
     id="g10"
     inkscape:groupmode="layer"
     inkscape:label="Lugo"
     transform="matrix(1.25,0,0,-1.25,0,700.00002)"><g
       id="g4235"><g
         id="g4181"><path
           inkscape:connector-curvature="0"
           id="path394"
           style="fill:#ffffff;fill-opacity:1;fill-rule:nonzero;stroke:none"
           d="M 415.72819,180.20667 C 394.97683,145.82325 366.34377,108.767 318.27296,68.63955 l 2.56264,-3.08466 C 283.15528,35.57505 245.64454,12.86002 237.99973,8.3245495 230.36031,12.86002 192.84957,35.57505 155.17195,65.55489 l 2.55994,3.08466 C 109.6557,108.767 81.02802,145.82325 60.27666,180.20667 32.036614,226.97717 21.086226,272.89979 16.72276,296.82338 l -3.294807,-0.55449 c -1.577416,19.57115 -1.284006,39.69678 0.971753,60.02429 6.315047,57.04731 23.254769,96.65257 24.746046,100.0683 38.339812,16.51611 114.933308,44.12997 198.517498,44.12997 l 0.34187,0 0.34186,0 c 83.57343,0 160.17231,-27.61386 198.50942,-44.12997 1.49128,-3.41573 18.43369,-43.02099 24.74875,-100.0683 2.24767,-20.27906 2.54916,-40.34278 0.97714,-59.87356 l -0.0162,-0.15073 -3.28405,0.55449 c -4.37154,-23.92359 -15.31385,-69.84621 -43.5539,-116.61671" /><path
           inkscape:connector-curvature="0"
           id="path398"
           style="fill:#00a0dd;fill-opacity:1;fill-rule:nonzero;stroke:none"
           d="m 13.428491,296.26997 c -1.582799,19.57115 -1.286697,39.69678 0.971753,60.0216 6.315047,57.04999 23.254769,96.65526 24.743355,100.07099 38.342506,16.5161 114.936001,44.12728 198.512121,44.12728 l 0.34455,0 0.34725,0 c 83.57343,0 160.1723,-27.61118 198.50942,-44.12728 1.49128,-3.41573 18.43369,-43.021 24.74605,-100.07099 2.25306,-20.32482 2.55186,-40.45045 0.96906,-60.0216 l 5.32984,-0.9071 c 5.20062,31.89632 6.10239,65.30267 2.64069,99.53535 -6.80765,67.50984 -25.60475,113.42438 -25.79048,113.88735 l -0.31764,0.75636 -0.74025,0.35261 c -39.61575,18.71251 -119.02221,50.10548 -205.69394,50.10548 -86.67172,0 -166.072803,-31.39297 -205.691242,-50.10548 l -0.740255,-0.35261 -0.312253,-0.75636 C 31.065399,508.3226 12.268311,462.40806 5.4606575,394.89822 1.9989574,360.66554 2.8953388,327.25919 8.1067322,295.36287 l 5.3217588,0.9071 z" /><path
           inkscape:connector-curvature="0"
           id="path518"
           style="fill:#2b2325;fill-opacity:1;fill-rule:nonzero;stroke:none"
           d="M 459.27562,296.82418 C 454.91216,272.9006 443.96716,226.97529 415.72711,180.20748 394.97037,145.82137 366.34538,108.76781 318.27189,68.63766 l 2.55994,-3.08196 C 283.1542,35.57316 245.64347,12.86891 237.99866,8.3253595 230.36192,12.86891 192.8485,35.57316 155.17087,65.5557 l 2.56263,3.08196 C 109.65462,108.76781 81.026949,145.82137 60.27559,180.20748 32.038229,226.97529 21.087841,272.9006 16.724375,296.82418 L 0,293.99254 C 3.3244168,269.27223 12.939655,222.87587 44.821757,170.66281 60.916238,144.31134 96.289656,94.92992 147.14112,55.8899 l 3.44017,4.15325 C 192.60892,26.58567 234.0282,2.3175495 235.7779,1.2785595 L 237.99866,1.953125e-5 240.22211,1.2785595 c 1.75239,1.03899 43.17436,25.3071105 85.1993,58.7645905 l 3.44286,-4.15325 c 50.84877,39.04002 86.21949,88.42144 102.31398,114.77291 31.88748,52.21306 41.50003,98.60942 44.82175,123.32973 l -16.72438,2.83164 z" /></g><g
         id="g4168"><path
           inkscape:connector-curvature="0"
           id="path458"
           style="fill:#e2251d;fill-opacity:1;fill-rule:nonzero;stroke:none"
           d="m 354.98664,367.10455 0,-166.95366 c 0.69989,1.69306 1.40784,3.40496 2.09156,5.1384 0.44685,1.1305 0.90176,2.23678 1.34053,3.37536 4.34733,11.30771 8.28547,23.25066 11.66911,35.76694 2.77798,10.23912 5.20063,20.86046 7.09568,31.92592 2.76183,16.11235 4.04584,36.03611 4.04584,62.73212 0,8.59451 -0.34187,17.95884 -1.00137,27.86419 -0.005,0.0619 -0.005,0.10228 -0.0108,0.15073 l -25.23058,0 z" /><path
           inkscape:connector-curvature="0"
           id="path462"
           style="fill:#e2251d;fill-opacity:1;fill-rule:nonzero;stroke:none"
           d="m 298.30277,100.63465 c 5.27062,6.80185 10.21283,13.66562 14.58707,20.49708 2.84796,4.45472 5.77129,9.11131 8.72154,13.96709 l 0,232.006 -33.37607,0 0,-278.87609 c 3.45093,4.09134 6.82649,8.23383 10.06746,12.40592" /><path
           inkscape:connector-curvature="0"
           id="path466"
           style="fill:#e2251d;fill-opacity:1;fill-rule:nonzero;stroke:none"
           d="m 237.99973,36.11769 c 5.30561,4.93652 11.00961,10.38985 16.88589,16.21463 l 0,314.77223 -33.37876,0 0,-315.16521 c 5.73899,-5.67405 11.30301,-10.99549 16.49287,-15.82165" /><path
           inkscape:connector-curvature="0"
           id="path470"
           style="fill:#e2251d;fill-opacity:1;fill-rule:nonzero;stroke:none"
           d="m 158.46325,128.47838 c 1.56666,-2.50863 3.11446,-4.95806 4.64611,-7.34557 1.79276,-2.80203 3.70397,-5.61483 5.66901,-8.42493 5.87627,-8.38456 12.45512,-16.76912 19.35968,-24.91412 l 0,279.30945 -33.37876,0 0,-232.60894 c 1.24363,-2.0349 2.47918,-4.05904 3.70396,-6.01589" /><path
           inkscape:connector-curvature="0"
           id="path474"
           style="fill:#e2251d;fill-opacity:1;fill-rule:nonzero;stroke:none"
           d="m 94.774154,339.08936 c 0,-26.69601 1.278618,-46.63053 4.035065,-62.73211 1.800831,-10.50291 4.083511,-20.57784 6.673051,-30.33515 3.14407,-11.8299 6.79151,-23.11608 10.81311,-33.86931 1.13865,-3.07389 2.31228,-6.08588 3.51284,-9.07094 0.52761,-1.30008 1.06328,-2.58939 1.59626,-3.8787 l 0,167.9119 -25.628965,0 c -0.003,-0.0592 -0.008,-0.0996 -0.0135,-0.1615 -0.65681,-9.8246 -0.9879,-19.18893 -0.9879,-27.86419" /></g><g
         id="g4175"><path
           inkscape:connector-curvature="0"
           id="path478"
           style="fill:#00a0dd;fill-opacity:1;fill-rule:nonzero;stroke:none"
           d="m 99.460369,236.39883 c -3.526304,12.24442 -6.557308,25.05409 -8.864219,38.4963 -2.837192,16.59685 -4.156192,37.00511 -4.156192,64.19369 0,8.68872 0.341861,18.05843 0.98791,27.86419 l -63.085867,0 c -0.04037,-0.323 -0.08345,-0.65407 -0.121132,-0.98784 -1.294773,-11.65763 -1.943505,-23.33949 -1.943505,-34.68489 0,-28.7013 4.333855,-56.84812 12.783528,-83.83752 l 45.712752,-39.48145 18.686725,28.43752 z" /><path
           inkscape:connector-curvature="0"
           id="path482"
           style="fill:#2b2325;fill-opacity:1;fill-rule:nonzero;stroke:none"
           d="m 102.66473,188.93388 8.76193,12.58626 c -4.39308,11.03586 -8.43891,22.65581 -11.959831,34.86792 L 80.774724,207.96939 35.059277,247.44276 c 0.756405,-2.39828 1.488584,-4.80463 2.30421,-7.1733 3.755111,-9.71425 7.967834,-19.29929 12.66778,-28.89241 L 70.6615,193.42897 64.489115,184.58952 c 5.160254,-8.76677 10.778115,-17.6143 16.910117,-26.60449 l 11.133426,16.40575 60.649752,-53.25743 c -8.77807,13.92671 -18.06491,29.65684 -26.86452,47.23346 l -23.65316,20.56707 z" /><path
           inkscape:connector-curvature="0"
           id="path486"
           style="fill:#00a0dd;fill-opacity:1;fill-rule:nonzero;stroke:none"
           d="m 376.53883,236.39883 c 3.53169,12.24442 6.56269,25.05409 8.8696,38.4963 2.83719,16.59685 4.15619,37.00511 4.15619,64.19369 0,8.68872 -0.34725,18.05843 -0.9879,27.86419 l 63.08586,0 c 0.035,-0.323 0.0781,-0.65407 0.11575,-0.98784 1.29477,-11.65763 1.94889,-23.33949 1.94889,-34.68489 0,-28.7013 -4.33925,-56.84812 -12.78892,-83.83752 l -45.71005,-39.48145 -18.68942,28.43752 z" /><path
           inkscape:connector-curvature="0"
           id="path490"
           style="fill:#2b2325;fill-opacity:1;fill-rule:nonzero;stroke:none"
           d="m 373.33985,188.93388 -8.76462,12.58626 c 4.39039,11.03586 8.43622,22.65581 11.96252,34.86792 l 18.69211,-28.41867 45.70737,39.47337 c -0.74833,-2.39828 -1.48051,-4.80463 -2.30152,-7.1733 -3.74973,-9.71425 -7.96245,-19.29929 -12.66778,-28.89241 l -20.62484,-17.94808 6.17237,-8.83945 c -5.16563,-8.76677 -10.78349,-17.6143 -16.91011,-26.60449 l -11.13343,16.40575 -60.65513,-53.25743 c 8.77807,13.92671 18.05953,29.65684 26.8699,47.23346 l 23.65316,20.56707 z" /></g><g
         id="g4186"><path
           inkscape:connector-curvature="0"
           id="path402"
           style="fill:#2b2325;fill-opacity:1;fill-rule:nonzero;stroke:none"
           d="m 380.45437,405.65172 c -2.58955,-4.51393 -9.70407,-7.31596 -17.99492,-7.05487 -7.08491,0.25302 -12.45243,1.93531 -16.3206,5.25145 -3.529,3.01199 -4.85338,5.5933 -4.7484,20.40557 0.0861,11.73031 2.50072,14.58348 5.14679,16.50803 3.49131,2.53824 8.87229,3.54762 15.92221,3.0039 0.16151,-0.0215 0.24765,-0.0215 0.42531,-0.0431 2.87488,-0.33108 6.36888,-1.24625 8.77269,-2.33637 4.10505,-1.8438 7.29488,-4.7858 8.9692,-8.0831 1.39975,-2.76973 1.84929,-6.18546 1.8143,-14.55118 -0.0404,-6.92298 -0.61105,-10.73169 -1.98658,-13.10037 m -71.46016,22.36242 c -15.44845,0.76443 -23.19824,1.04706 -38.68437,1.4212 -0.0188,-7.59052 -0.0188,-11.38846 -0.0485,-18.97629 6.32311,-0.0915 9.47256,-0.12112 15.78223,-0.25302 -0.82639,-6.47078 -7.14145,-10.22835 -17.21429,-10.1476 -7.29757,0.0511 -16.79975,1.84379 -17.10931,18.89554 -0.0404,2.13719 0,6.1074 0,6.68073 0.0215,15.30754 2.00541,18.16071 4.95028,20.80932 2.79144,2.50056 6.97456,3.96214 11.76064,3.83025 6.7269,-0.20188 12.88043,-2.62977 17.62614,-6.88261 2.31767,-2.08604 2.9987,-2.67014 5.58825,-7.27559 l 16.97202,-0.65407 c -1.42667,4.4924 -4.61649,15.09489 -6.47118,21.0408 -0.4926,0.42259 -0.7537,0.62447 -1.26784,1.06859 -4.67842,4.06173 -9.49949,6.59998 -11.91946,7.73856 -5.51826,2.58131 -11.83061,4.0725 -18.70825,4.33359 -15.16849,0.57333 -25.62359,-2.98237 -34.88619,-11.38846 -6.5304,-5.94322 -11.32725,-13.87557 -13.78759,-22.06903 -0.0161,10.87436 -0.0161,16.29539 -0.0511,27.15898 -8.97728,3.13311 -13.44842,4.66736 -22.43376,7.52861 0.0861,-23.19953 0.1319,-34.79794 0.21804,-58.00554 0.0188,-8.45724 -5.91128,-12.80967 -17.62614,-12.98194 -7.39179,-0.11843 -11.89791,0.81827 -14.56821,2.96353 -2.0162,1.61232 -2.6057,4.46549 -2.64608,9.86767 -0.12113,22.20899 -0.18574,33.30407 -0.34187,55.51575 -12.07557,-4.7858 -18.0972,-7.24599 -30.10817,-12.17444 0.13997,-14.48927 0.21534,-21.74602 0.3607,-36.23798 -6.78612,-0.40375 -10.16168,-0.60563 -16.95049,-1.0686 -0.16689,-1.77381 -0.26111,-2.6809 -0.43877,-4.46548 -0.37686,-3.82756 -3.44555,-7.94851 -5.23562,-10.4087 -2.91795,-4.03212 -3.35672,-4.69697 -10.71351,-4.98767 -3.790105,-0.13189 -5.67708,-0.21264 -9.47257,-0.36337 -0.137279,24.31657 -0.191122,36.46139 -0.31763,60.77796 -11.905993,-6.87453 -17.844183,-10.25796 -29.709794,-16.8391 l 0,-54.80245 c 8.813066,-2.09681 13.238444,-3.21386 22.081131,-5.5933 16.568243,-0.0404 24.837573,-0.0915 41.400433,-0.18034 3.87624,9.0494 5.81974,13.65485 9.69599,22.95727 1.88966,-15.08682 17.65037,-24.08777 42.93209,-24.08777 14.91546,0.0108 27.24676,3.41573 34.77044,9.67656 5.85474,4.87462 8.9692,12.2821 9.15493,21.35304 5.46173,-18.7152 23.12018,-30.99999 46.6576,-30.99999 25.44053,0 39.31963,12.55665 44.14072,26.22227 7.62058,-16.00199 26.37999,-26.70408 49.00755,-26.70408 29.76364,0 53.08031,15.96161 53.08031,36.34834 0,9.20283 -5.48327,19.47156 -14.63281,27.86419 -9.48872,8.69949 -22.65719,15.08683 -38.01141,17.35321 -23.65586,3.48841 -42.50409,-6.00512 -49.80974,-22.66388 -0.69718,-1.5827 -1.16018,-2.92315 -1.76314,-4.92576 -0.80217,-2.67283 -1.25171,-6.2689 -1.25171,-6.2689" /><g
           id="g5109"
           transform="scale(1.0000607,1)"><path
             d="m 61.28076,484.05449 c -1.84917,-2.18564 -2.69705,-3.03352 -4.29321,-4.29322 -1.74959,-1.37006 -3.57185,-2.43866 -5.684814,-3.36459 -7.768167,-3.36728 -12.012934,-0.20188 -10.454455,7.97004 1.59347,8.33342 8.007725,16.80142 15.525569,20.06642 2.13449,0.91517 3.88946,1.25701 5.27029,1.14665 1.34315,-0.11843 1.973,-0.36338 2.97699,-1.51003 0.42259,-2.24755 0.63523,-3.38612 1.06859,-5.64444 -0.76712,-0.30146 -1.16011,-0.4522 -1.92454,-0.76443 -0.28263,1.86264 -0.5491,2.62976 -1.27585,3.30537 -1.38891,1.32969 -3.83295,1.53156 -6.53538,0.35261 -1.66884,-0.72675 -3.531479,-2.16949 -4.898848,-3.81948 -1.873404,-2.26908 -2.941998,-4.90961 -3.79795,-9.47469 -0.05383,-0.34184 -0.08613,-0.72406 -0.150733,-1.10627 -0.368759,-2.08874 -0.543718,-3.7199 -0.589477,-4.77772 -0.04576,-1.17088 0.363376,-2.23678 1.079361,-2.72128 1.022835,-0.71599 2.855864,-0.59486 4.993052,0.34184 2.145265,0.92863 4.629675,2.78319 6.535385,4.89884 1.81687,2.02414 2.60823,3.43727 3.67682,6.62959 0.68099,0.26379 1.02822,0.41452 1.70383,0.69714 -1.27585,-3.17617 -1.9407,-4.73734 -3.22463,-7.93235"
             style="fill:#ffffff;fill-opacity:1;fill-rule:nonzero;stroke:none"
             id="path406"
             inkscape:connector-curvature="0" /><path
             d="m 69.06589,486.06059 c 1.42928,8.76678 2.13719,13.1219 3.57723,21.87791 2.52748,2.06721 3.80333,3.1035 6.32812,5.1384 -1.50195,-9.5016 -2.25562,-14.23894 -3.75757,-23.75131 2.08066,0.7752 3.11157,1.17895 5.20031,1.92454 3.12234,1.11974 4.04827,1.95685 5.77364,4.59469 0.75097,1.17895 2.28792,3.4588 2.75089,5.47217 1.2597,0.42259 1.91377,0.63523 3.17348,1.05783 -2.21525,-4.74542 -3.33498,-7.12486 -5.57176,-11.89989 -4.72658,-1.60423 -7.0791,-2.42789 -11.77607,-4.18286 -2.30138,-0.07 -3.43188,-0.13996 -5.69827,-0.23148"
             style="fill:#ffffff;fill-opacity:1;fill-rule:nonzero;stroke:none"
             id="path410"
             inkscape:connector-curvature="0" /><path
             d="m 124.56252,526.1587 c -0.75098,-6.58921 -1.12512,-9.8569 -1.88417,-16.44612 -0.31762,-2.80203 -1.42659,-5.1707 -3.23001,-6.98489 -2.39828,-2.41712 -6.32274,-4.46279 -10.82321,-5.76287 -8.09655,-2.30676 -12.14483,-0.83711 -11.40193,4.54624 0.92594,6.73994 1.37006,10.10454 2.28523,16.84717 2.4898,1.57194 3.72528,2.33907 6.22046,3.87063 -0.92325,-6.98489 -1.37814,-10.48137 -2.30946,-17.4528 -0.34722,-2.59208 -0.0592,-3.92177 0.88287,-4.51663 1.1332,-0.72675 3.03082,-0.67561 6.12086,0.20188 5.12495,1.43197 8.3738,4.54354 8.84753,8.5649 0.83173,7.03603 1.23548,10.54328 2.06721,17.56585 1.28392,-0.17227 1.92992,-0.26109 3.22462,-0.43336"
             style="fill:#ffffff;fill-opacity:1;fill-rule:nonzero;stroke:none"
             id="path414"
             inkscape:connector-curvature="0" /><path
             d="m 133.99037,507.03168 c 2.91777,0.66484 4.36858,0.99861 7.29174,1.61231 3.98906,0.83711 6.72111,3.07389 6.96874,5.82478 0.26109,2.8424 -2.22332,4.13171 -6.31466,3.25423 -2.8128,-0.59486 -4.21247,-0.91517 -7.0145,-1.5504 -0.37683,-3.65799 -0.55987,-5.47217 -0.93132,-9.14092 m 1.23817,12.20404 c 2.83164,0.64331 4.25823,0.95823 7.08986,1.57194 3.44804,0.71598 6.18278,2.97429 6.4008,5.37257 0.22072,2.43866 -1.35122,3.69836 -4.03751,3.14388 -3.44534,-0.72675 -5.17339,-1.0982 -8.59989,-1.88417 -0.33377,-3.28654 -0.50873,-4.91769 -0.85326,-8.20422 m -5.09264,7.67934 c 2.5194,1.39967 3.76295,2.08605 6.28774,3.46687 3.76296,0.88556 5.64982,1.32969 9.42893,2.12643 5.66328,1.21932 9.57159,-0.79674 9.26474,-4.58661 -0.1615,-1.90302 -2.21794,-4.56508 -4.21247,-5.4318 -2.42251,-1.03629 -3.62837,-1.5827 -6.06165,-2.65937 l 0,-0.07 c 2.45481,0 3.69836,-0.0296 6.15855,-0.0807 1.34584,-0.0215 3.08196,-1.3916 3.64722,-2.8128 0.21264,-0.56525 0.30685,-1.14935 0.24763,-1.71191 -0.35261,-4.31475 -5.48832,-7.76009 -13.59025,-9.46392 -3.03352,-0.646 -4.54624,-0.97707 -7.58245,-1.67152 -2.42519,0.18034 -3.63914,0.27186 -6.05087,0.42259 0.0431,0.43336 0.0646,0.64331 0.11305,1.07667 0.91247,8.24459 1.36737,12.3467 2.26369,20.56976 0.035,0.33107 0.0458,0.50334 0.0861,0.82634"
             style="fill:#ffffff;fill-opacity:1;fill-rule:nonzero;stroke:none"
             id="path418"
             inkscape:connector-curvature="0" /><path
             d="m 178.08427,514.75139 c 2.05644,0.27186 3.09273,0.38222 5.14379,0.62447 2.98506,0.36338 5.40756,1.32969 7.08179,2.88278 1.83302,1.6823 2.67013,3.7495 2.82625,7.26483 0.2261,4.97959 -0.42528,7.3671 -2.27446,8.85829 -1.40505,1.1305 -3.45611,1.5827 -6.19623,1.27047 -2.15603,-0.26109 -3.23001,-0.40375 -5.37796,-0.67561 -0.47643,-8.09386 -0.70791,-12.12329 -1.20318,-20.22523 m -6.24737,-0.86671 c 0.53833,8.1423 0.81557,12.2148 1.34853,20.33558 0.0161,0.40375 0.0269,0.59486 0.0565,0.97708 2.50326,1.17087 3.74412,1.7442 6.24199,2.87201 2.34445,0.26378 3.48841,0.39298 5.83016,0.62716 8.62143,0.91517 14.60771,-4.01328 14.32508,-11.68993 -0.32569,-7.9512 -6.8207,-13.48528 -16.66683,-14.63462 -2.02683,-0.23956 -3.03352,-0.36338 -5.06842,-0.62447 -2.46019,0.46296 -3.67952,0.72675 -6.13432,1.16818 0.0323,0.39299 0.0404,0.57602 0.0673,0.96901"
             style="fill:#ffffff;fill-opacity:1;fill-rule:nonzero;stroke:none"
             id="path422"
             inkscape:connector-curvature="0" /><path
             d="m 205.62681,538.65533 c 2.46288,0.95554 3.71181,1.4212 6.17738,2.33637 5.34567,0.31493 8.01042,0.43336 13.36147,0.58678 1.69037,-3.45879 2.53017,-5.1707 4.24745,-8.62681 -1.3243,-0.0215 -1.98376,-0.0404 -3.31344,-0.0807 0,0 -1.14396,3.36459 -2.28523,4.26361 -1.08744,0.85595 -2.26101,1.34046 -4.3659,1.25971 -3.07927,-0.12113 -4.59737,-0.1938 -7.68472,-0.37415 -0.0861,-3.2946 -0.11036,-4.93922 -0.20726,-8.20421 3.50725,0.1938 5.24069,0.27455 8.76947,0.41451 -0.0404,-1.52079 -0.0511,-2.26908 -0.0807,-3.7791 -3.51263,-0.15074 -5.2676,-0.22072 -8.79369,-0.4226 -0.0754,-3.27576 -0.1319,-4.91768 -0.23149,-8.19345 3.43996,0.20188 5.15725,0.27186 8.59451,0.4226 3.11427,0.12112 4.72658,1.92454 5.83555,3.99982 0.54371,1.02822 1.39428,3.17617 1.39428,3.17617 1.34584,0.0296 2.0376,0.0512 3.38343,0.07 -1.68767,-4.09134 -2.55978,-6.13702 -4.29052,-10.25797 -5.99435,-0.0808 -9.00364,-0.14265 -14.97377,-0.41451 -2.51941,0.66484 -3.76834,1.00668 -6.25276,1.62307 0.005,0.39299 0.005,0.5841 0.0269,0.97708 0.26917,8.12347 0.41182,12.13406 0.66753,20.25484 0.0108,0.3849 0.0108,0.59486 0.0215,0.969"
             style="fill:#ffffff;fill-opacity:1;fill-rule:nonzero;stroke:none"
             id="path426"
             inkscape:connector-curvature="0" /><path
             d="m 242.50514,529.62584 c 2.47903,-0.0215 3.7172,-0.0404 6.19354,-0.11035 4.34166,-0.0915 6.22045,1.20856 6.15585,4.26091 -0.0485,2.98507 -1.88955,4.76695 -5.22992,4.8477 -2.86125,0.0727 -4.31744,0.11036 -7.15446,0.1319 0,-3.65799 0.008,-5.48294 0.035,-9.13016 m -6.25276,-11.9914 c 0.0108,8.59451 0.0296,12.87696 0.0296,21.48493 2.46827,1.0686 3.69298,1.58001 6.13163,2.60823 3.50187,-0.0296 5.25146,-0.07 8.74794,-0.16957 5.83016,-0.17227 9.88113,-3.61761 9.99149,-8.30381 0.10766,-4.27438 -4.22324,-6.84492 -10.93896,-6.66189 -3.06851,0.0807 -4.6216,0.0915 -7.69818,0.13189 0.0296,-4.47625 0.0485,-6.70226 0.07,-11.17582 -2.53556,0.84518 -3.81948,1.27854 -6.33351,2.08604"
             style="fill:#ffffff;fill-opacity:1;fill-rule:nonzero;stroke:none"
             id="path430"
             inkscape:connector-curvature="0" /><path
             d="m 273.63971,535.54106 c -1.63384,-1.38082 -2.22332,-3.35651 -2.08066,-7.38595 0.19111,-5.50177 0.64869,-7.13562 2.60554,-8.93904 1.82226,-1.68229 4.25822,-2.62976 7.32404,-2.91239 3.77372,-0.37414 6.90414,0.91517 8.00234,3.31345 0.55449,1.18164 0.69984,2.83433 0.54372,5.89745 -0.19649,3.59877 -0.46835,5.11956 -1.17357,6.54077 -0.85595,1.72267 -2.45211,3.25423 -4.38204,4.13979 -1.14935,0.53564 -2.63515,0.89902 -3.86255,1.02014 -0.07,0.008 -0.0996,0.008 -0.18034,0.0296 -2.96623,0.15074 -5.27568,-0.41452 -6.79648,-1.70383 m 18.28184,-0.28262 c 2.89624,-2.82088 4.82079,-6.6592 5.02805,-10.16914 0.45758,-7.85968 -6.29852,-12.93887 -15.65208,-12.08292 -9.14899,0.85865 -16.62108,7.12486 -16.82833,14.61309 -0.21803,8.15308 6.3335,13.69523 15.59824,12.85004 4.72657,-0.44412 8.80446,-2.26907 11.85412,-5.21107"
             style="fill:#ffffff;fill-opacity:1;fill-rule:nonzero;stroke:none"
             id="path434"
             inkscape:connector-curvature="0" /><path
             d="m 308.14991,524.7986 c 1.71191,-0.27186 2.54902,-0.40375 4.23939,-0.67561 4.63506,-0.75636 6.17469,-0.74559 7.3348,0.18034 0.75636,0.58679 1.09282,1.48311 0.98246,2.70244 -0.19649,2.51941 -2.61361,4.74542 -5.82477,5.27029 -2.92585,0.50335 -4.3982,0.75636 -7.34289,1.1978 0.24764,-3.46418 0.36338,-5.20839 0.61101,-8.67526 m 17.80811,-17.56585 c 0,0 -1.51272,0.76712 -2.20717,1.45081 -1.29739,1.292 -1.82496,2.57054 -2.09682,5.18147 -0.26109,2.74012 -0.85595,3.99982 -2.39828,5.20838 -1.01745,0.79674 -2.18294,1.292 -3.55839,1.54233 -2.93123,0.49527 -4.40357,0.72675 -7.33481,1.16819 0.32301,-4.63506 0.4872,-6.93106 0.8102,-11.58765 -2.58401,1.18972 -3.87601,1.78458 -6.44387,2.94199 -0.5787,8.92828 -0.89632,13.37223 -1.49118,22.29243 2.40904,0.44144 3.60146,0.66485 5.99435,1.0686 3.93523,-0.60563 5.93514,-0.92863 9.85691,-1.61231 5.32143,-0.9394 9.55812,-4.74811 9.9215,-8.71833 0.16688,-1.63115 -0.53295,-2.93123 -1.88955,-3.63645 -1.4562,-0.75636 -2.64592,-0.93939 -5.93245,-1.09013 0.0108,-0.0296 0,-0.0511 0,-0.0807 3.84102,-1.17895 5.3995,-2.0349 6.68342,-3.28384 1.18703,-1.14934 1.57194,-1.97568 1.89494,-4.0725 0.10498,-0.62447 0.10498,-0.82634 0.20995,-1.39159 0.33915,-1.76305 0.97708,-2.60823 2.53017,-3.13311 0.33646,-0.0996 -4.54892,-2.24754 -4.54892,-2.24754"
             style="fill:#ffffff;fill-opacity:1;fill-rule:nonzero;stroke:none"
             id="path438"
             inkscape:connector-curvature="0" /><path
             d="m 331.32844,529.18226 c -0.11036,1.20856 -0.17765,1.80342 -0.2907,3.02274 11.2808,-2.34713 16.91716,-3.70912 28.07953,-6.77224 0.14535,-1.21933 0.24225,-1.82227 0.38221,-3.04159 -4.3309,1.18702 -6.52461,1.75228 -10.90665,2.83971 1.05244,-9.40201 1.58001,-14.08821 2.61899,-23.50906 -2.55439,1.44004 -3.84101,2.16679 -6.38464,3.57723 -0.9071,8.5649 -1.3593,12.83927 -2.26639,21.39341 -4.48163,1.04706 -6.7238,1.56386 -11.23235,2.4898"
             style="fill:#ffffff;fill-opacity:1;fill-rule:nonzero;stroke:none"
             id="path442"
             inkscape:connector-curvature="0" /><path
             d="m 373.49241,495.7245 c -2.52479,1.45081 -3.78449,2.15603 -6.31466,3.57723 -1.14127,9.10055 -1.73613,13.65486 -2.88009,22.76617 2.27177,0.07 3.41035,0.0996 5.67674,0.15073 1.39697,-10.6025 2.11296,-15.89163 3.51801,-26.49413"
             style="fill:#ffffff;fill-opacity:1;fill-rule:nonzero;stroke:none"
             id="path446"
             inkscape:connector-curvature="0" /><path
             d="m 399.45817,510.61968 c -1.99453,-8.45455 -3.02813,-12.67778 -5.22185,-21.1727 -1.96761,-0.23417 -2.9716,-0.37414 -4.95806,-0.63523 -5.53138,12.03177 -8.23113,17.99921 -13.56872,29.85872 2.26908,0.0915 3.40766,0.10228 5.64713,0.14266 4.0079,-9.17053 6.0428,-13.77598 10.15568,-23.04879 0.0404,0 0.0404,-0.0108 0.0754,-0.0188 1.58808,7.21637 2.3579,10.81244 3.81948,18.02882 1.62308,-1.25971 2.41712,-1.8761 4.05097,-3.15464"
             style="fill:#ffffff;fill-opacity:1;fill-rule:nonzero;stroke:none"
             id="path450"
             inkscape:connector-curvature="0" /><path
             d="m 412.12006,502.63752 c -1.31353,-0.89632 -1.5827,-2.72935 -0.87748,-6.89337 0.96362,-5.69289 1.63923,-7.49631 3.73604,-9.94573 1.93262,-2.26639 4.3309,-4.01059 7.22445,-5.24069 3.55839,-1.52079 6.27967,-1.17895 6.93374,0.92594 0.33646,1.03899 0.22072,2.69167 -0.36875,5.86785 -0.68907,3.73873 -1.14397,5.36988 -2.01068,7.03334 -1.0363,2.04567 -2.71052,4.09134 -4.63506,5.61213 -1.12781,0.88825 -2.57055,1.72536 -3.73874,2.21794 -0.0646,0.0404 -0.0915,0.0404 -0.1615,0.0807 -2.77511,1.07667 -4.86385,1.19779 -6.10202,0.34184 m 16.971,-5.90553 c 3.09273,-3.76834 5.38603,-8.28496 6.08587,-11.95102 1.57193,-8.17192 -3.86794,-11.27811 -12.67778,-7.51784 -8.60528,3.68759 -16.55648,12.39515 -17.82156,20.09333 -1.38083,8.39533 4.01597,12.06408 12.72353,8.33342 4.4601,-1.90301 8.4707,-5.00651 11.68994,-8.95789"
             style="fill:#ffffff;fill-opacity:1;fill-rule:nonzero;stroke:none"
             id="path454"
             inkscape:connector-curvature="0" /></g><g
           id="g5143"
           transform="scale(1.0000607,1)"><path
             d="m 69.41258,317.42274 c 0,-10.43023 -8.20691,-17.52547 -8.20691,-17.52547 l 0,-8.87714 12.87427,-6.89337 0,-3.09543 -16.4219,0 0,36.39141 11.75454,0 z"
             style="fill:#2b2325;fill-opacity:1;fill-rule:nonzero;stroke:none"
             id="path498"
             inkscape:connector-curvature="0" /><path
             d="m 45.88736,317.42274 c 0,-10.43023 8.21768,-17.52547 8.21768,-17.52547 l 0,-8.87714 -12.879656,-6.89337 0,-3.09543 16.432656,0 0,36.39141 -11.77068,0 z"
             style="fill:#ffffff;fill-opacity:1;fill-rule:nonzero;stroke:none"
             id="path494"
             inkscape:connector-curvature="0" /><path
             d="m 65.08975,329.7471 c 0,-4.12095 -3.31614,-7.44785 -7.43171,-7.44785 -4.10211,0 -7.442471,3.3269 -7.442471,7.44785 0,4.09135 3.340361,7.43709 7.442471,7.43709 4.11557,0 7.43171,-3.34574 7.43171,-7.43709"
             style="fill:#ffffff;fill-opacity:1;fill-rule:nonzero;stroke:none"
             id="path502"
             inkscape:connector-curvature="0" /></g><g
           id="g5138"
           transform="scale(1.0000607,1)"><path
             d="m 424.34456,312.80679 3.85448,0 0,10.66172 -17.85656,0 0,-10.66172 3.85986,0 c -6.3039,-2.11565 -10.85551,-8.06155 -10.85551,-15.08682 0,-8.78831 7.141,-15.92124 15.92393,-15.92124 8.80177,0 15.92662,7.13293 15.92662,15.92124 0,7.02527 -4.53816,12.97117 -10.85282,15.08682"
             style="fill:#ffffff;fill-opacity:1;fill-rule:nonzero;stroke:none"
             id="path506"
             inkscape:connector-curvature="0" /><path
             d="m 425.8562,324.30589 5.45602,10.64018 -7.6578,-5.09803 -1.10897,8.7587 -3.27577,-6.87453 -3.27038,6.87453 -1.11704,-8.7587 -7.64974,5.09803 5.43718,-10.64018 13.1865,0 z"
             style="fill:#ffffff;fill-opacity:1;fill-rule:nonzero;stroke:none"
             id="path510"
             inkscape:connector-curvature="0" /><path
             d="m 419.27049,310.29816 -0.17765,0 0,-25.15368 0.17765,0 c 6.93375,0 12.57011,5.64174 12.57011,12.57549 0,6.93375 -5.63636,12.57819 -12.57011,12.57819"
             style="fill:#2b2325;fill-opacity:1;fill-rule:nonzero;stroke:none"
             id="path514"
             inkscape:connector-curvature="0" /></g></g></g></g></svg>