<svg version="1.2" xmlns="http://www.w3.org/2000/svg" viewBox="0 0 2000 1894" width="2000" height="1894">
	<defs>
		<clipPath clipPathUnits="userSpaceOnUse" id="cp1">
			<path d="m0 0h1999.99v1893.89h-1999.99z"/>
		</clipPath>
	</defs>
	<style>
		.s0 { fill: #2e2a25 } 
	</style>
	<filter id="f0">
		<feFlood flood-color="#ffffff" flood-opacity="1" />
		<feBlend mode="normal" in2="SourceGraphic"/>
		<feComposite in2="SourceAlpha" operator="in" />
	</filter>
	<g id="Clip-Path" clip-path="url(#cp1)" filter="url(#f0)">
		<g>
			<path class="s0" d="m1614.35 1017.58c0 0-167.29-95.72-337.25-24.15-169.97 71.56-302.37 296.99-398.09 357.81-93.03 59.05-178 48.31-178 48.31 0 0 228.99 104.67 380.18 17 176.23-101.98 203.06-219.16 328.3-309.52 130.61-93.03 204.86-89.45 204.86-89.45z"/>
			<path class="s0" d="m1353.14 866.4c0 0-167.29-95.72-337.25-24.15-169.97 71.56-302.37 296.99-398.08 357.81-93.04 59.05-178.02 48.31-178.02 48.31 0 0 220.96 112.72 372.13 25.05 176.23-101.97 211.12-227.21 335.47-317.57 131.49-93.03 205.75-89.45 205.75-89.45z"/>
			<path class="s0" d="m1091.92 715.22c0 0-167.28-95.72-337.24-24.15-169.97 71.56-302.37 296.99-398.08 357.82-93.04 59.04-178.02 48.3-178.02 48.3 0 0 220.95 112.72 372.13 25.05 176.23-101.97 211.12-227.21 335.47-317.57 130.61-93.03 205.74-89.45 205.74-89.45z"/>
			<path class="s0" d="m1560.67 589.09c-118.08-65.31-182.49-99.31-277.31-149.39-61.72-35.79-93.04-50.1-132.39-102.88-47.41-86.77-10.74-157.44-10.74-157.44 102.87-197.7 486.64 137.76 486.64 137.76 33.99 20.58 38.47 4.47 23.25-27.73-20.57-42.94-41.14-76.93-41.14-76.93 79.61-101.09-67.99-152.97-67.99-152.97-392.71-145.81-500.95 45.62-500.95 45.62-40.25 47.41-71.57 173.54-26.84 279.1 65.31 152.08 234.38 247.8 477.7 366.77 390.92 190.54 73.35 461.59 73.35 461.59 224.54-94.82 271.05-215.59 261.21-318.46-17-183.38-264.79-305.04-264.79-305.04z"/>
			<path class="s0" d="m31.69 1210.44l9.54 18.83c-17.17 8.69-20.13 24.12-9.22 45.67 10.49 20.73 23.52 27.27 38.6 19.64 15.27-7.74 17.72-20.54 8.03-48.51-12.12-34.86-7.18-52.61 17.3-65.01 27.21-13.77 50.23-3.61 66.45 28.4 15.89 31.4 10.13 54.29-17.71 68.38l-9.54-18.83c16.54-8.37 19.73-21.81 9.77-41.48-9.86-19.46-23.22-26.12-37.65-18.8-14.24 7.21-16.48 19.38-7.43 45.04 12.97 36.54 7.84 55.45-18.13 68.58-27.82 14.1-50.11 4.35-66.96-28.92-17.17-33.9-11.72-58.48 16.95-72.99z"/>
			<path class="s0" d="m310.83 1436.35l-153.18 61.87-13.01-17.24 78.03-101.82-119.44 46.97-12.87-17.04 101.44-130.38 13.15 17.42-79.95 101.22 120.24-47.87 12.44 16.47-79.19 103.01 119.63-49.46z"/>
			<path class="s0" d="m314.04 1596.57l-47.72-43.05-38.13 20.57-16.19-14.61 150-79.46 15.85 14.29-63.64 157.37-16.72-15.08zm-29.78-52.77l37.62 33.93 29.73-70.77z"/>
			<path class="s0" d="m548.72 1615.44l-84.47 135.25-17.5-10.93 2.03-150.23-68.07 108.99-17.3-10.8 84.47-135.25 21.27 13.29-1.96 141.71 64.23-102.83z"/>
			<path class="s0" d="m540.81 1739.02l19.51 8.05c-7.33 17.77 0.5 31.4 22.83 40.6 21.46 8.85 35.61 5.3 42.04-10.31 6.52-15.82 0.02-27.13-25.56-41.99-31.94-18.49-39.78-35.16-29.32-60.53 11.62-28.19 35.69-35.51 68.86-21.83 32.52 13.4 43.1 34.51 31.21 63.33l-19.52-8.04c7.06-17.13 0.71-29.39-19.67-37.79-20.16-8.3-34.62-4.63-40.78 10.33-6.08 14.75 0.17 25.44 23.76 38.96 33.68 19.21 42.11 36.9 31.03 63.78-11.89 28.84-35.13 35.99-69.61 21.78-35.11-14.48-47.03-36.63-34.78-66.34z"/>
			<path class="s0" d="m798.94 1850.35l-4.57 18.68-103.66-25.41 37.97-154.91 101.37 24.85-4.57 18.67-80.87-19.82-11.67 47.62 69.47 17.03-4.57 18.67-69.49-17.03-12.56 51.26z"/>
			<path class="s0" d="m839.28 1877.11l21.72 1.92 18.06-39.4 64.02 5.62 10.92 41.93 22.43 1.98-43.98-163.97-21.27-1.86zm48.24-56.04l31.59-69.97 18.89 74.4z"/>
			<path class="s0" d="m1108.94 1824.11l-5.63-38.52c-6.07-41.54 10.14-65.24 49.82-71.04 37.13-5.42 58.81 9.89 65.55 46.36l-20.43 2.99c-4.71-24.2-18.21-33.85-42.34-30.32-26.45 3.86-36.09 19.02-31.65 49.42l5.49 37.59c4.45 30.4 18.02 42.17 44.47 38.3 24.13-3.52 34.3-16.63 31.94-40.93l20.42-2.99c3.93 36.65-12.45 57.52-49.58 62.95-39.69 5.79-62-12.27-68.06-53.81z"/>
			<path class="s0" d="m1255.07 1696.72l20.37-5.52 41.68 153.95-20.37 5.53z"/>
			<path class="s0" d="m1425.21 1658.27l-43.91 17.21 51.12 130.38-19.67 7.71-51.11-130.38-43.89 17.2-7.1-18.12 107.44-42.12z"/>
			<path class="s0" d="m1540.53 1677.39l33.66 59.1-18.35 10.44-33.64-59.1-94.37-51.52 21.4-12.18 71.96 39.17 2.83-81.76 20.38-11.6z"/>
			<path class="s0" d="m1768.89 1535.09l-46.57 44.28 17.57 39.6-15.81 15.02-67.73-155.66 15.47-14.71 152.05 75.51-16.32 15.52zm-54.91 25.65l36.72-34.9-68.28-35.07z"/>
			<path class="s0" d="m1763.35 1391.78l38.89 29.83 42.24-55.09 15.26 11.69-42.24 55.09 57.12 43.8-12.83 16.75-126.54-97.02 62.2-81.13 15.26 11.69z"/>
			<path class="s0" d="m1901.2 1337.02l-34.13-18.71c-36.82-20.18-45.98-47.4-26.7-82.56 18.04-32.92 43.33-40.99 76.5-24.42l-9.92 18.1c-22.17-10.8-38-5.84-49.71 15.56-12.86 23.45-6.55 40.26 20.38 55.03l33.32 18.26c26.95 14.77 44.51 11.03 57.36-12.42 11.73-21.4 7.41-37.4-13.43-50.16l9.93-18.1c31.61 18.94 38.4 44.59 20.37 77.5-19.28 35.17-47.14 42.1-83.97 21.92z"/>
		</g>
	</g>
</svg>